<svg width="160" height="160" viewBox="0 0 160 160" fill="none" xmlns="http://www.w3.org/2000/svg">
<path d="M123.333 3.33338V2.83338V3.33338ZM36.6668 3.33337L36.6668 2.83337H36.6668V3.33337ZM36.6668 36.6667V36.1667V36.6667ZM97.5003 120.69C97.2242 120.69 97.0003 120.914 97.0003 121.19C97.0003 121.466 97.2242 121.69 97.5003 121.69V120.69ZM144.643 121.69C144.919 121.69 145.143 121.466 145.143 121.19C145.143 120.914 144.919 120.69 144.643 120.69V121.69ZM110.469 71.8396C110.565 71.5805 110.432 71.293 110.173 71.1975C109.914 71.1021 109.626 71.2347 109.531 71.4938L110.469 71.8396ZM99.6668 99.7072L99.1976 99.5343L99.1969 99.5363L99.6668 99.7072ZM103.004 102.519L102.756 102.085V102.085L103.004 102.519ZM107.023 100.223L106.775 99.7886L107.023 100.223ZM110.313 101.325L109.853 101.522L110.313 101.325ZM111.762 104.707L112.222 104.51L111.762 104.707ZM132.971 71.4991C132.879 71.2389 132.593 71.1031 132.333 71.1956C132.072 71.2882 131.937 71.5741 132.029 71.8343L132.971 71.4991ZM142.477 99.7072L142.006 99.8748L142.007 99.878L142.477 99.7072ZM139.14 102.519L139.388 102.085L139.14 102.519ZM135.12 100.223L135.369 99.7886V99.7886L135.12 100.223ZM131.831 101.325L132.291 101.522L131.831 101.325ZM130.382 104.707L129.922 104.51L130.382 104.707ZM126.011 104.43L126.492 104.292L126.011 104.43ZM116.133 104.43L116.614 104.567L116.133 104.43ZM121.572 78.7256C121.572 78.4495 121.348 78.2256 121.072 78.2256C120.796 78.2256 120.572 78.4495 120.572 78.7256H121.572ZM123.333 2.83338L36.6668 2.83337L36.6668 3.83337L123.333 3.83338V2.83338ZM32.8335 6.66671V33.3334H33.8335V6.66671H32.8335ZM32.8335 33.3334C32.8335 35.4504 34.5497 37.1667 36.6668 37.1667V36.1667C35.102 36.1667 33.8335 34.8982 33.8335 33.3334H32.8335ZM36.6668 2.83337C34.5497 2.83337 32.8335 4.54961 32.8335 6.66671H33.8335C33.8335 5.1019 35.102 3.83337 36.6668 3.83337V2.83337ZM127.167 6.66672C127.167 4.54962 125.451 2.83338 123.333 2.83338V3.83338C124.898 3.83338 126.167 5.10191 126.167 6.66672H127.167ZM92.7621 25.2821C92.7621 23.5615 94.1569 22.1667 95.8775 22.1667V21.1667C93.6046 21.1667 91.7621 23.0092 91.7621 25.2821H92.7621ZM146.266 22.1667C147.986 22.1667 149.381 23.5615 149.381 25.2821H150.381C150.381 23.0092 148.539 21.1667 146.266 21.1667V22.1667ZM149.381 25.2821V128.051H150.381V25.2821H149.381ZM149.381 128.051C149.381 129.772 147.986 131.167 146.266 131.167V132.167C148.539 132.167 150.381 130.324 150.381 128.051H149.381ZM146.266 131.167H95.8775V132.167H146.266V131.167ZM95.8775 131.167C94.1569 131.167 92.7621 129.772 92.7621 128.051H91.7621C91.7621 130.324 93.6046 132.167 95.8775 132.167V131.167ZM92.7621 128.051V36.6667H91.7621V128.051H92.7621ZM92.7621 36.6667V25.2821H91.7621V36.6667H92.7621ZM36.6668 37.1667L92.2621 37.1667V36.1667L36.6668 36.1667V37.1667ZM95.8775 22.1667H126.667V21.1667H95.8775V22.1667ZM126.667 22.1667H146.266V21.1667H126.667V22.1667ZM127.167 21.6667V6.66672H126.167V21.6667H127.167ZM97.5003 121.69H144.643V120.69H97.5003V121.69ZM109.531 71.4938L99.1976 99.5343L100.136 99.8801L110.469 71.8396L109.531 71.4938ZM103.252 102.954L107.272 100.657L106.775 99.7886L102.756 102.085L103.252 102.954ZM109.853 101.522L111.303 104.904L112.222 104.51L110.772 101.128L109.853 101.522ZM132.029 71.8343L142.006 99.8748L142.948 99.5396L132.971 71.4991L132.029 71.8343ZM139.388 102.085L135.369 99.7886L134.872 100.657L138.892 102.954L139.388 102.085ZM131.371 101.128L129.922 104.51L130.841 104.904L132.291 101.522L131.371 101.128ZM126.492 104.292L121.553 87.0066L120.591 87.2813L125.53 104.567L126.492 104.292ZM116.614 104.567L121.553 87.2813L120.591 87.0066L115.652 104.292L116.614 104.567ZM121.572 87.144V78.7256H120.572V87.144H121.572ZM129.922 104.51C129.246 106.088 126.963 105.943 126.492 104.292L125.53 104.567C126.26 107.123 129.794 107.347 130.841 104.904L129.922 104.51ZM142.007 99.878C142.588 101.475 140.863 102.928 139.388 102.085L138.892 102.954C141.175 104.258 143.846 102.008 142.947 99.5363L142.007 99.878ZM111.303 104.904C112.349 107.347 115.884 107.123 116.614 104.567L115.652 104.292C115.181 105.943 112.898 106.088 112.222 104.51L111.303 104.904ZM107.272 100.657C108.218 100.116 109.424 100.52 109.853 101.522L110.772 101.128C110.108 99.5773 108.24 98.9514 106.775 99.7886L107.272 100.657ZM135.369 99.7886C133.904 98.9514 132.036 99.5773 131.371 101.128L132.291 101.522C132.72 100.52 133.926 100.116 134.872 100.657L135.369 99.7886ZM99.1969 99.5363C98.2981 102.008 100.969 104.258 103.252 102.954L102.756 102.085C101.281 102.928 99.5561 101.475 100.137 99.878L99.1969 99.5363Z" fill="#0F274D"/>
<rect x="160" y="7" width="160" height="7" rx="2" transform="rotate(-180 160 7)" fill="#A6B1E1"/>
<path fill-rule="evenodd" clip-rule="evenodd" d="M102.106 66.3353C103.596 67.2292 104.109 69.1433 103.266 70.6623C102.085 72.7891 103.597 75.4072 106.029 75.4481C107.766 75.4773 109.168 76.8784 109.197 78.6155C109.238 81.0476 111.856 82.559 113.983 81.3784C115.502 80.5351 117.416 81.048 118.31 82.5378C119.561 84.6237 122.584 84.6238 123.836 82.538C124.73 81.0482 126.644 80.5355 128.163 81.3787C130.29 82.5595 132.908 81.0477 132.949 78.6153C132.978 76.8782 134.38 75.4769 136.117 75.4477C138.549 75.4067 140.06 72.7887 138.88 70.662C138.036 69.143 138.549 67.229 140.039 66.3351C142.125 65.0836 142.125 62.0606 140.039 60.8091C138.549 59.9152 138.036 58.0009 138.879 56.4818C140.06 54.3551 138.549 51.7369 136.117 51.696C134.379 51.6668 132.978 50.2654 132.949 48.5282C132.908 46.0959 130.29 44.584 128.163 45.7647C126.644 46.608 124.73 46.0951 123.836 44.6053C122.584 42.5194 119.561 42.5197 118.309 44.6056C117.416 46.0954 115.499 46.6068 113.98 45.7636C111.857 44.585 109.238 46.0911 109.197 48.5191C109.168 50.25 107.767 51.6476 106.036 51.6813C103.603 51.7286 102.084 54.352 103.265 56.4797C104.108 57.9988 103.596 59.915 102.107 60.8089C100.021 62.0605 100.02 65.0837 102.106 66.3353ZM121.072 77.0412C128.511 77.0412 134.542 71.0107 134.542 63.5718C134.542 56.1328 128.511 50.1024 121.072 50.1024C113.633 50.1024 107.603 56.1328 107.603 63.5718C107.603 71.0107 113.633 77.0412 121.072 77.0412Z" fill="#A6B1E1"/>
<path d="M134.042 63.5717C134.042 70.7345 128.235 76.5411 121.072 76.5411C113.909 76.5411 108.103 70.7345 108.103 63.5717C108.103 56.4089 113.909 50.6023 121.072 50.6023C128.235 50.6023 134.042 56.4089 134.042 63.5717Z" stroke="#0F274D" stroke-linecap="round" stroke-linejoin="round"/>
<path d="M14.988 141.404C14.988 139.35 16.6531 137.685 18.7071 137.685H81.9328C83.9869 137.685 85.652 139.35 85.652 141.404V156.281C85.652 158.335 83.9869 160 81.9328 160H18.7071C16.6531 160 14.988 158.335 14.988 156.281V141.404Z" fill="#A6B1E1"/>
<path d="M84.1259 53.3236C84.323 52.4892 83.4905 51.7304 82.7058 52.0758C62.4942 60.9741 58.881 71.0299 61.3653 93.0161C61.4258 93.5512 61.9 93.9511 62.4327 93.8723C66.5628 93.2606 74.584 90.6188 80.0734 83.757C85.6545 76.7808 81.5846 64.0794 84.1259 53.3236Z" fill="#A6B1E1"/>
<path d="M93.6561 103.94C94.5125 103.981 95.1459 103.032 94.6714 102.317C87.3032 91.2269 77.4854 89.9876 64.3439 93.2354C63.8211 93.3646 63.4968 93.8895 63.662 94.402C64.4973 96.9923 66.8241 101.473 71.3567 104.183C76.0097 106.966 86.3499 103.588 93.6561 103.94Z" fill="#A6B1E1"/>
<path d="M39.376 85.7968C40.0888 85.3203 40.0062 84.1908 39.1996 83.9001C22.1388 77.7497 14.1608 81.7244 3.04316 96.2249C2.7155 96.6523 2.78368 97.2697 3.22565 97.5774C6.13216 99.6008 12.4186 102.55 19.5959 101.607C26.9089 100.646 31.7829 90.8718 39.376 85.7968Z" fill="#A6B1E1"/>
<path d="M17.1855 79.8627C7.42722 72.5438 4.78094 53.8464 4.27063 49.2714C4.20823 48.7119 4.62272 48.2297 5.18566 48.2251C9.07337 48.1937 23.1704 48.6564 31.1319 56.618C39.217 64.703 42.3809 79.1149 43.0687 82.7372C43.1613 83.2245 42.8763 83.6853 42.3953 83.8062C39.126 84.6282 26.7808 87.0592 17.1855 79.8627Z" fill="#A6B1E1"/>
<path d="M41.8742 68.6792C39.6762 62.1051 43.6262 52.7105 45.0469 49.6791C45.2975 49.1446 45.9475 48.9785 46.4199 49.3325C48.6562 51.0079 54.4043 55.8425 55.6009 62.0565C56.8284 68.4307 54.245 76.0708 53.2865 78.5883C53.1015 79.0744 52.5728 79.3072 52.0955 79.1007C49.8888 78.1459 44.0113 75.071 41.8742 68.6792Z" fill="#A6B1E1"/>
<path d="M47.611 58.6809C49.1984 48.8837 60.9947 39.7003 64.3229 37.283C64.7938 36.9409 65.4327 37.0955 65.6937 37.6157C67.2486 40.7146 71.7491 50.8388 69.0902 59.5625C66.3785 68.4591 57.664 76.3418 55.1411 78.4825C54.7501 78.8142 54.1846 78.7734 53.8531 78.3823C51.9215 76.1026 46.0585 68.2627 47.611 58.6809Z" fill="#A6B1E1"/>
<path d="M15.4878 117.601C15.4878 116.645 16.263 115.87 17.2193 115.87H83.4203C84.3766 115.87 85.1518 116.645 85.1518 117.601V135V150.33C85.1518 151.286 84.3766 152.062 83.4203 152.062H17.2193C16.263 152.062 15.4878 151.286 15.4878 150.33V135V117.601Z" fill="white" stroke="#0F274D" stroke-linejoin="round"/>
<path d="M48.4606 101.423C49.2044 105.886 46.9109 113.093 45.6712 116.192H55.8989C56.5187 112.783 57.9444 105.514 58.6883 103.283C59.618 100.493 61.4776 97.7041 63.3372 97.7041C65.1968 97.7041 65.1968 93.0551 63.3372 92.1253C61.4776 91.1955 56.8287 96.7743 55.8989 97.7041C54.9691 98.6339 55.8989 78.178 55.8989 76.3184C55.8989 74.4588 52.1797 75.3886 50.3202 76.3184C48.4606 77.2482 50.3202 84.6868 48.4606 84.6868C46.601 84.6868 45.6712 82.8272 44.7414 81.8975C43.8116 80.9677 41.0223 82.8272 40.0925 84.6868C39.1627 86.5464 47.5308 95.8443 48.4606 101.423Z" fill="white" stroke="#0F274D"/>
<path d="M11.8089 73.4628L17.8081 56.5718C18.5524 54.4761 21.4473 54.4761 22.1916 56.5718L28.1907 73.4628C28.7438 75.0201 27.6174 76.6667 25.9989 76.6667H14.0007C12.3823 76.6667 11.2558 75.0201 11.8089 73.4628Z" fill="white"/>
<path d="M11.8089 73.4628L12.2801 73.6302L11.8089 73.4628ZM17.8081 56.5718L17.3369 56.4044L17.8081 56.5718ZM22.1916 56.5718L22.6628 56.4044L22.1916 56.5718ZM28.1907 73.4628L28.6619 73.2955L28.1907 73.4628ZM19.4998 0V55H20.4998V0H19.4998ZM12.2801 73.6302L18.2792 56.7391L17.3369 56.4044L11.3378 73.2955L12.2801 73.6302ZM18.2792 56.7391C18.866 55.0869 21.1337 55.0869 21.7205 56.7391L22.6628 56.4044C21.7609 53.8652 18.2388 53.8652 17.3369 56.4044L18.2792 56.7391ZM21.7205 56.7391L27.7196 73.6301L28.6619 73.2955L22.6628 56.4044L21.7205 56.7391ZM27.7196 73.6301C28.1628 74.8782 27.255 76.1667 25.9989 76.1667V77.1667C27.9798 77.1667 29.3248 75.1621 28.6619 73.2955L27.7196 73.6301ZM25.9989 76.1667H14.0007V77.1667H25.9989V76.1667ZM14.0007 76.1667C12.7447 76.1667 11.8369 74.8782 12.2801 73.6302L11.3378 73.2955C10.6748 75.1621 12.0199 77.1667 14.0007 77.1667V76.1667Z" fill="#0F274D"/>
</svg>
