<svg width="20" height="20" viewBox="0 0 20 20" fill="none" xmlns="http://www.w3.org/2000/svg">
<path fill-rule="evenodd" clip-rule="evenodd" d="M20 10C20 15.5228 15.5228 20 10 20C4.47715 20 0 15.5228 0 10C0 4.47715 4.47715 0 10 0C15.5228 0 20 4.47715 20 10ZM5.27601 11.1828C5.08675 11.0179 5.06898 10.7325 5.23632 10.5453C5.40367 10.3582 5.69275 10.3402 5.88202 10.5051L8.9953 13.2181L14.966 6.54123C15.1346 6.35271 15.4259 6.33457 15.6165 6.50073C15.8072 6.66688 15.8251 6.95441 15.6565 7.14294L9.08167 14.4954L9.07809 14.4923L9.0762 14.4944L5.27601 11.1828Z" fill="#0F274D"/>
</svg>
