<svg width="65" height="63" viewBox="0 0 65 63" fill="none" xmlns="http://www.w3.org/2000/svg">
<path d="M4.04785 55.9576V55.9576C4.04785 54.853 4.94328 53.9387 6.04785 53.9387H28.4606C29.5651 53.9387 30.4606 54.853 30.4606 55.9576V55.9576" stroke="#A6B1E1" stroke-linecap="round" stroke-linejoin="round"/>
<path d="M36.1578 31.1876L36.51 31.5426L36.8677 31.1876L36.51 30.8327L36.1578 31.1876ZM32.97 34.3502L32.6178 34.7052L32.97 35.0546L33.3221 34.7052L32.97 34.3502ZM10.9193 28.2861L11.2714 27.9311H11.2714L10.9193 28.2861ZM2.73728 20.1688L2.38513 20.5238H2.38513L2.73728 20.1688ZM13.7238 26.927L14.076 27.282H14.076L13.7238 26.927ZM12.3539 28.2861L12.706 28.6411V28.6411L12.3539 28.2861ZM2.73728 18.7374L3.08942 19.0924H3.08942L2.73728 18.7374ZM4.10178 17.3837L3.74964 17.0287L3.74964 17.0287L4.10178 17.3837ZM22.2367 1.40721L22.5888 1.05226V1.05226L22.2367 1.40721ZM29.871 8.98117L29.5189 9.33612V9.33613L29.871 8.98117ZM29.896 10.9316L29.5349 10.5857L29.896 10.9316ZM29.3824 11.4676L29.7435 11.8135V11.8135L29.3824 11.4676ZM19.7481 1.93726L20.1092 2.28314L20.1092 2.28314L19.7481 1.93726ZM20.2315 1.4326L20.5926 1.77847V1.77847L20.2315 1.4326ZM6.0298 17.3859L5.67886 17.0297H5.67886L6.0298 17.3859ZM19.7586 3.85824L20.1096 4.2144L19.7586 3.85824ZM13.726 25.0178L13.3751 24.6616H13.3751L13.726 25.0178ZM27.4669 11.4782L27.8178 11.8344V11.8344L27.4669 11.4782ZM28.4179 11.4798L28.0657 11.8348L28.4179 11.4798ZM19.7603 2.89073L20.1124 2.53577V2.53577L19.7603 2.89073ZM13.7238 26.2913L14.076 25.9364H14.076L13.7238 26.2913ZM4.74519 17.3837L5.09734 17.0287L5.09734 17.0287L4.74519 17.3837ZM21.4382 17.2888L21.5079 17.3579L22.2122 16.648L22.1425 16.5789L21.4382 17.2888ZM21.5079 17.3579L35.8057 31.5426L36.51 30.8327L22.2122 16.648L21.5079 17.3579ZM35.8057 30.8327L32.6178 33.9953L33.3221 34.7052L36.51 31.5426L35.8057 30.8327ZM33.3221 33.9953L19.0135 19.7998L18.3092 20.5097L32.6178 34.7052L33.3221 33.9953ZM19.0135 19.7998L18.9547 19.7415L18.2504 20.4514L18.3092 20.5097L19.0135 19.7998ZM11.2714 27.9311L3.08942 19.8139L2.38513 20.5238L10.5671 28.6411L11.2714 27.9311ZM13.3717 26.5721L12.0017 27.9311L12.706 28.6411L14.076 27.282L13.3717 26.5721ZM3.08942 19.0924L4.45393 17.7386L3.74964 17.0287L2.38513 18.3825L3.08942 19.0924ZM21.8845 1.76217L29.5189 9.33612L30.2232 8.62622L22.5888 1.05226L21.8845 1.76217ZM29.5349 10.5857L29.0214 11.1218L29.7435 11.8135L30.257 11.2774L29.5349 10.5857ZM20.1092 2.28314L20.5926 1.77847L19.8705 1.08672L19.387 1.59138L20.1092 2.28314ZM6.38073 17.742L20.1096 4.2144L19.4077 3.50209L5.67886 17.0297L6.38073 17.742ZM14.0769 25.3739L19.0123 20.5109L18.3104 19.7986L13.3751 24.6616L14.0769 25.3739ZM19.0123 20.5109L22.211 17.3591L21.5091 16.6468L18.3104 19.7986L19.0123 20.5109ZM22.211 17.3591L27.8178 11.8344L27.116 11.1221L21.5091 16.6468L22.211 17.3591ZM28.77 11.1249C28.3129 10.6714 27.5746 10.6702 27.116 11.1221L27.8178 11.8344C27.8862 11.767 27.9975 11.7672 28.0657 11.8348L28.77 11.1249ZM20.1096 4.2144C20.578 3.75281 20.5793 2.99897 20.1124 2.53577L19.4081 3.24568C19.4798 3.31677 19.4796 3.43123 19.4077 3.50209L20.1096 4.2144ZM14.076 25.9364C13.9191 25.7808 13.9196 25.529 14.0769 25.3739L13.3751 24.6616C12.8211 25.2074 12.8196 26.0986 13.3717 26.6463L14.076 25.9364ZM4.39304 17.7386C4.94229 18.2836 5.82963 18.2851 6.38073 17.742L5.67886 17.0297C5.51799 17.1882 5.25765 17.1878 5.09734 17.0287L4.39304 17.7386ZM19.387 1.59138C18.9413 2.05669 18.9508 2.79192 19.4081 3.24568L20.1124 2.53577C20.0422 2.46609 20.0408 2.35446 20.1092 2.28314L19.387 1.59138ZM29.0214 11.1218C28.9537 11.1924 28.8396 11.1939 28.77 11.1249L28.0657 11.8348C28.5322 12.2976 29.2889 12.288 29.7435 11.8135L29.0214 11.1218ZM29.5189 9.33613C29.8649 9.67946 29.872 10.2338 29.5349 10.5857L30.257 11.2774C30.9715 10.5316 30.9564 9.35363 30.2232 8.62622L29.5189 9.33613ZM22.5888 1.05226C21.8333 0.302647 20.6068 0.318103 19.8705 1.08672L20.5926 1.77847C20.942 1.41372 21.5258 1.40626 21.8845 1.76217L22.5888 1.05226ZM3.08942 19.8139C2.88847 19.6145 2.88847 19.2917 3.08942 19.0924L2.38513 18.3825C1.7899 18.973 1.7899 19.9332 2.38513 20.5238L3.08942 19.8139ZM10.5671 28.6411C11.1585 29.2278 12.1146 29.2278 12.706 28.6411L12.0017 27.9311C11.8002 28.1311 11.473 28.1311 11.2714 27.9311L10.5671 28.6411ZM14.076 27.282C14.4499 26.911 14.4499 26.3073 14.076 25.9364L13.3717 26.6463C13.3513 26.6261 13.3513 26.5922 13.3717 26.5721L14.076 27.282ZM4.45393 17.7386C4.43681 17.7556 4.41016 17.7556 4.39304 17.7386L5.09734 17.0287C4.72458 16.6589 4.12239 16.6589 3.74964 17.0287L4.45393 17.7386ZM4.04214 56.457H30.4658V55.457H4.04214V56.457ZM30.4658 61.5104H4.04214V62.5104H30.4658V61.5104ZM4.04214 61.5104C2.63575 61.5104 1.5 60.3767 1.5 58.9837H0.5C0.5 60.9338 2.08827 62.5104 4.04214 62.5104V61.5104ZM33.008 58.9837C33.008 60.3767 31.8722 61.5104 30.4658 61.5104V62.5104C32.4197 62.5104 34.008 60.9338 34.008 58.9837H33.008ZM30.4658 56.457C31.8722 56.457 33.008 57.5906 33.008 58.9837H34.008C34.008 57.0335 32.4197 55.457 30.4658 55.457V56.457ZM4.04214 55.457C2.08828 55.457 0.5 57.0335 0.5 58.9837H1.5C1.5 57.5906 2.63575 56.457 4.04214 56.457V55.457Z" fill="#0F274D"/>
<path d="M16.9759 21.954L16.9759 21.954L8.85914 13.8897C8.85913 13.8897 8.85912 13.8897 8.85911 13.8897C8.33189 13.3658 8.3319 12.5176 8.85914 11.9937L14.0277 6.85785C14.5565 6.33232 15.4152 6.33232 15.9441 6.85785L15.9441 6.85787L24.0608 14.9221C24.0608 14.9221 24.0608 14.9221 24.0609 14.9222C24.5881 15.4461 24.5881 16.2943 24.0608 16.8182L18.8923 21.954C18.3634 22.4795 17.5047 22.4795 16.9759 21.954ZM30.3837 34.063C29.8566 33.5395 29.8566 32.692 30.3837 32.1685L34.236 28.3427C34.7649 27.8174 35.6237 27.8174 36.1526 28.3427L64.136 56.1339C64.6631 56.6574 64.6631 57.5048 64.136 58.0283L60.2837 61.8542C59.7548 62.3794 58.896 62.3794 58.3671 61.8542L30.3837 34.063Z" fill="#A6B1E1" stroke="#A6B1E1" stroke-width="0.927408"/>
</svg>
