<svg width="65" height="65" viewBox="0 0 65 65" fill="none" xmlns="http://www.w3.org/2000/svg">
<path d="M54.6775 37.3586L62.8733 37.3586C63.7719 37.3586 64.5004 36.6855 64.5004 35.8552L64.5004 29.1935C64.5004 28.1055 63.2649 27.3412 62.1104 27.5549C59.4817 28.0414 55.6252 27.8851 55.6252 22.7797C55.6252 17.6742 59.4817 17.5179 62.1104 18.0044C63.2649 18.2181 64.5004 17.4539 64.5004 16.3659L64.5004 9.70414C64.5004 8.8738 63.7719 8.20068 62.8733 8.20068L54.6775 8.20068C53.5 8.20068 52.6729 7.05914 52.9041 5.99234C53.4306 3.56342 53.2615 2.89223e-06 47.7361 3.13148e-06C42.2107 3.37074e-06 42.0416 3.56342 42.5681 5.99234C42.7994 7.05913 41.9723 8.20068 40.7948 8.20068L33.5851 8.20068C32.6865 8.20068 31.958 8.87381 31.958 9.70414L31.958 16.3659C31.958 17.4539 33.1934 18.2181 34.348 18.0044C36.9767 17.5179 40.8332 17.6742 40.8332 22.7797C40.8332 27.8851 36.9767 28.0414 34.348 27.5549C33.1934 27.3412 31.958 28.1055 31.958 29.1935L31.958 35.8552C31.958 36.6855 32.6865 37.3586 33.5851 37.3586L40.7948 37.3586C41.9723 37.3586 42.7994 38.5002 42.5681 39.567C42.0416 41.9959 42.2107 45.5593 47.7361 45.5593C53.2615 45.5593 53.4306 41.9959 52.9041 39.567C52.6729 38.5002 53.5 37.3586 54.6775 37.3586Z" fill="#EF4537"/>
<path d="M26.2487 54.6278L35.5373 54.6278C36.5557 54.6278 37.3814 53.8585 37.3814 52.9096L37.3814 45.2962C37.3814 44.0527 35.9812 43.1793 34.6727 43.4235C31.6935 43.9795 27.3228 43.8009 27.3228 37.9661C27.3228 32.1313 31.6935 31.9527 34.6727 32.5087C35.9812 32.7529 37.3814 31.8795 37.3814 30.636L37.3814 23.0226C37.3814 22.0737 36.5557 21.3044 35.5373 21.3044L26.2487 21.3044C24.9142 21.3044 23.9768 19.9998 24.2389 18.7806C24.8356 16.0047 24.644 11.9322 18.3819 11.9322C12.1198 11.9322 11.9281 16.0047 12.5248 18.7806C12.7869 19.9998 11.8495 21.3044 10.515 21.3044L2.34406 21.3044C1.32561 21.3044 0.49999 22.0737 0.49999 23.0226L0.499991 30.636C0.499991 31.8795 1.90015 32.7529 3.20864 32.5087C6.18784 31.9527 10.5585 32.1313 10.5585 37.9661C10.5585 43.8009 6.18784 43.9795 3.20864 43.4235C1.90016 43.1793 0.499992 44.0527 0.499992 45.2962L0.499993 52.9096C0.499993 53.8585 1.32561 54.6278 2.34406 54.6278L10.515 54.6278C11.8495 54.6278 12.7869 55.9324 12.5248 57.1516C11.9281 59.9275 12.1198 64 18.3819 64C24.644 64 24.8356 59.9275 24.2389 57.1516C23.9768 55.9324 24.9142 54.6278 26.2487 54.6278Z" stroke="#232323" stroke-linecap="round" stroke-linejoin="round"/>
</svg>
