<svg width="64" height="64" viewBox="0 0 64 64" fill="none" xmlns="http://www.w3.org/2000/svg">
<path d="M41.1306 28.5652C42.9302 26.1546 43.794 23.0152 43.2838 19.7609C42.2915 13.4303 36.4759 9.06204 30.2944 10.0041M41.1306 28.5652C39.4294 30.8439 36.8919 32.4714 33.8881 32.9292M41.1306 28.5652C40.9838 26.4056 37.9636 25.4446 35.7401 25.1228C35.053 25.0234 34.4797 24.5187 34.3736 23.842C34.3001 23.3728 34.4822 22.9082 34.7577 22.5188C36.4853 20.0766 34.7877 16.1656 31.3426 16.6906C27.8975 17.2157 27.4767 21.4495 29.8714 23.2635C30.2533 23.5527 30.5692 23.9414 30.6428 24.4106C30.7488 25.0873 30.3568 25.7391 29.7323 26.0384C27.711 27.0072 25.1261 28.8224 25.6474 30.9249M33.8881 32.9292L57.206 29.3755L59.8599 28.971C62 28.6448 63.4668 26.6698 63.136 24.5596L60.7402 9.27619C60.4094 7.166 58.4063 5.71975 56.2662 6.04592L53.6122 6.45039L30.2944 10.0041M33.8881 32.9292L10.5703 36.4829L7.91637 36.8874C5.77623 37.2136 3.77316 35.7673 3.44237 33.6571L1.04656 18.3737C0.715766 16.2636 2.18253 14.2885 4.32266 13.9623L6.9766 13.5579L30.2944 10.0041M33.8881 32.9292C30.8843 33.387 27.967 32.5909 25.6474 30.9249M30.2944 10.0041C24.1129 10.9462 19.9063 16.8419 20.8987 23.1725C21.4089 26.4268 23.1936 29.1626 25.6474 30.9249M23.052 49.832C21.2523 47.4213 20.3886 44.2819 20.8987 41.0276C21.3114 38.395 22.5582 36.1018 24.3185 34.3887M23.052 49.832C24.7532 52.1106 27.2906 53.7381 30.2944 54.1959M23.052 49.832C23.1988 47.6724 26.2189 46.7114 28.4425 46.3895C29.1295 46.2901 29.7029 45.7854 29.8089 45.1087C29.8825 44.6395 29.7003 44.1749 29.4248 43.7855C27.6973 41.3433 29.3949 37.4323 32.84 37.9573C36.2851 38.4824 36.7058 42.7162 34.3111 44.5302C33.9292 44.8194 33.6133 45.2081 33.5398 45.6773C33.4337 46.354 33.8258 47.0058 34.4503 47.3051C36.4715 48.2739 39.0565 50.0891 38.5351 52.1916M30.2944 54.1959L6.97659 50.6422L4.32266 50.2377C2.18252 49.9116 0.71576 47.9365 1.04655 45.8263L3.17024 32.2788M30.2944 54.1959L53.6122 57.7497L56.2662 58.1541C58.4063 58.4803 60.4094 57.034 60.7402 54.9238L63.136 39.6405C63.4668 37.5303 62 35.5552 59.8599 35.229L57.2059 34.8246L39.8641 32.1816M30.2944 54.1959C33.2982 54.6537 36.2156 53.8576 38.5351 52.1916M38.5351 52.1916C40.9889 50.4293 42.7737 47.6935 43.2838 44.4392C44.0832 39.34 41.5094 34.523 37.2474 32.3496" stroke="#0F274D" stroke-linecap="round" stroke-linejoin="round"/>
<path d="M21.4165 53.3333C21.4165 56.2214 19.4938 58.6626 16.8524 59.4591C16.2611 59.6375 15.6337 59.7333 14.9839 59.7333C11.4312 59.7333 8.55118 56.868 8.55118 53.3333C8.55118 52.6867 8.64756 52.0626 8.82679 51.4742C9.62737 48.8463 12.0811 46.9333 14.9839 46.9333C18.5365 46.9333 21.4165 49.7987 21.4165 53.3333Z" fill="#A6B1E1"/>
<path d="M51.4357 6.4C51.4357 9.42488 49.3265 11.9596 46.4915 12.6278C46.0137 12.7404 45.5154 12.8 45.003 12.8C41.4504 12.8 38.5704 9.93462 38.5704 6.4C38.5704 2.86538 41.4504 0 45.003 0C46.9904 0 48.7673 0.896654 49.9472 2.30553C50.8766 3.4152 51.4357 4.84264 51.4357 6.4Z" fill="#A6B1E1"/>
<path d="M17.1281 57.6C17.1281 58.2466 17.0317 58.8708 16.8524 59.4591C16.0519 62.0871 13.5982 64 10.6954 64C7.1427 64 4.2627 61.1346 4.2627 57.6C4.2627 54.712 6.18542 52.2707 8.82679 51.4742C9.41814 51.2959 10.0455 51.2 10.6954 51.2C14.248 51.2 17.1281 54.0654 17.1281 57.6Z" fill="#A6B1E1"/>
<path d="M57.8684 8.53333C57.8684 12.068 54.9884 14.9333 51.4357 14.9333C49.4483 14.9333 47.6715 14.0367 46.4915 12.6278C45.5621 11.5181 45.003 10.0907 45.003 8.53333C45.003 5.50845 47.1122 2.97371 49.9472 2.30553C50.425 2.19293 50.9233 2.13333 51.4357 2.13333C54.9884 2.13333 57.8684 4.99871 57.8684 8.53333Z" fill="#A6B1E1"/>
</svg>
