<svg width="64" height="64" viewBox="0 0 64 64" fill="none" xmlns="http://www.w3.org/2000/svg">
<path d="M3.00073 54.4998C2.72459 54.4998 2.50073 54.7237 2.50073 54.9998C2.50073 55.2759 2.72459 55.4998 3.00073 55.4998V54.4998ZM61.0007 55.4998C61.2769 55.4998 61.5007 55.2759 61.5007 54.9998C61.5007 54.7237 61.2769 54.4998 61.0007 54.4998V55.4998ZM3.00073 60.5C2.72459 60.5 2.50073 60.7239 2.50073 61C2.50073 61.2762 2.72459 61.5 3.00073 61.5V60.5ZM61.0007 61.5C61.2769 61.5 61.5007 61.2762 61.5007 61C61.5007 60.7239 61.2769 60.5 61.0007 60.5V61.5ZM60.0007 14.9961L59.7929 15.4509C59.8002 15.4542 59.8076 15.4574 59.8151 15.4604L60.0007 14.9961ZM33.7475 2.99999L33.9553 2.54522C33.948 2.54188 33.9406 2.53872 33.9332 2.53573L33.7475 2.99999ZM30.254 2.99997L30.0683 2.53571C30.0609 2.53869 30.0535 2.54185 30.0462 2.54519L30.254 2.99997ZM4.00072 14.9961L4.18637 15.4603C4.19383 15.4574 4.20122 15.4542 4.20853 15.4509L4.00072 14.9961ZM4.64538 18.0001L4.64538 17.5001H4.64538V18.0001ZM59.3561 18.0001V18.5001V18.0001ZM3.00073 55.4998H61.0007V54.4998H3.00073V55.4998ZM3.00073 61.5H61.0007V60.5H3.00073V61.5ZM60.2085 14.5413L33.9553 2.54522L33.5397 3.45477L59.7929 15.4509L60.2085 14.5413ZM30.0462 2.54519L3.79292 14.5413L4.20853 15.4509L30.4618 3.45474L30.0462 2.54519ZM4.64538 18.5001L59.3561 18.5001V17.5001L4.64538 17.5001L4.64538 18.5001ZM33.9332 2.53573C33.1252 2.21267 32.5734 2.0019 32.0007 2.00189C31.4281 2.00188 30.8762 2.21264 30.0683 2.53571L30.4396 3.46423C31.2925 3.12317 31.6571 3.00189 32.0007 3.00189C32.3444 3.0019 32.709 3.1232 33.5619 3.46425L33.9332 2.53573ZM59.8151 15.4604C60.5614 15.7588 60.7332 16.2884 60.6487 16.6723C60.5617 17.0674 60.162 17.5001 59.3561 17.5001V18.5001C60.5608 18.5001 61.4229 17.8065 61.6253 16.8874C61.8301 15.9572 61.319 14.9847 60.1864 14.5319L59.8151 15.4604ZM3.81508 14.5318C2.68248 14.9847 2.17131 15.9572 2.37616 16.8874C2.57856 17.8065 3.44067 18.5001 4.64538 18.5001V17.5001C3.83943 17.5001 3.43976 17.0674 3.35276 16.6723C3.26821 16.2884 3.44004 15.7588 4.18637 15.4603L3.81508 14.5318Z" fill="#232323"/>
<path d="M10.25 28C10.25 25.9289 11.9289 24.25 14 24.25C16.0711 24.25 17.75 25.9289 17.75 28V48C17.75 50.0711 16.0711 51.75 14 51.75C11.9289 51.75 10.25 50.0711 10.25 48V28ZM22.25 28C22.25 25.9289 23.9289 24.25 26 24.25C28.0711 24.25 29.75 25.9289 29.75 28V48C29.75 50.0711 28.0711 51.75 26 51.75C23.9289 51.75 22.25 50.0711 22.25 48V28ZM34.25 28C34.25 25.9289 35.9289 24.25 38 24.25C40.0711 24.25 41.75 25.9289 41.75 28V48C41.75 50.0711 40.0711 51.75 38 51.75C35.9289 51.75 34.25 50.0711 34.25 48V28ZM46.25 28C46.25 25.9289 47.9289 24.25 50 24.25C52.0711 24.25 53.75 25.9289 53.75 28V48C53.75 50.0711 52.0711 51.75 50 51.75C47.9289 51.75 46.25 50.0711 46.25 48V28Z" fill="#EF4537" stroke="#232323" stroke-width="0.5"/>
</svg>
