<svg width="67" height="49" viewBox="0 0 67 49" fill="none" xmlns="http://www.w3.org/2000/svg">
<rect x="6" y="6" width="11" height="8" rx="1.11607" fill="#EF4537"/>
<path d="M41.07 14.271C40.9868 14.0077 40.7059 13.8617 40.4425 13.9449C40.1792 14.0281 40.0333 14.309 40.1165 14.5723L41.07 14.271ZM40.1151 20.7003C40.0343 20.9643 40.1828 21.2439 40.4468 21.3248C40.7109 21.4056 40.9905 21.2571 41.0713 20.9931L40.1151 20.7003ZM44.2785 11.0463C44.1886 10.7852 43.904 10.6465 43.6429 10.7364C43.3818 10.8263 43.2431 11.1109 43.333 11.372L44.2785 11.0463ZM43.3341 23.8931C43.2424 24.1535 43.3792 24.439 43.6396 24.5308C43.9001 24.6225 44.1856 24.4858 44.2773 24.2253L43.3341 23.8931ZM5.76427 23.9073C5.48813 23.9073 5.26427 24.1311 5.26427 24.4073C5.26427 24.6834 5.48813 24.9073 5.76427 24.9073V23.9073ZM26.4094 24.9073C26.6856 24.9073 26.9094 24.6834 26.9094 24.4073C26.9094 24.1311 26.6856 23.9073 26.4094 23.9073V24.9073ZM5.76427 28.6715C5.48813 28.6715 5.26427 28.8954 5.26427 29.1715C5.26427 29.4477 5.48813 29.6715 5.76427 29.6715V28.6715ZM16.8809 29.6715C17.157 29.6715 17.3809 29.4477 17.3809 29.1715C17.3809 28.8954 17.157 28.6715 16.8809 28.6715V29.6715ZM21.6452 28.6715C21.369 28.6715 21.1452 28.8954 21.1452 29.1715C21.1452 29.4477 21.369 29.6715 21.6452 29.6715V28.6715ZM32.7618 29.6715C33.0379 29.6715 33.2618 29.4477 33.2618 29.1715C33.2618 28.8954 33.0379 28.6715 32.7618 28.6715V29.6715ZM4.21251 1.5H47.0183V0.5H4.21251V1.5ZM49.7308 4.21251V32.086H50.7308V4.21251H49.7308ZM47.0183 34.7986H4.21251V35.7986H47.0183V34.7986ZM1.5 32.086V4.21251H0.5V32.086H1.5ZM4.21251 34.7986C2.71443 34.7986 1.5 33.5841 1.5 32.086H0.5C0.5 34.1364 2.16215 35.7986 4.21251 35.7986V34.7986ZM49.7308 32.086C49.7308 33.5841 48.5163 34.7986 47.0183 34.7986V35.7986C49.0686 35.7986 50.7308 34.1364 50.7308 32.086H49.7308ZM47.0183 1.5C48.5163 1.5 49.7308 2.71443 49.7308 4.21251H50.7308C50.7308 2.16215 49.0686 0.5 47.0183 0.5V1.5ZM4.21251 0.5C2.16215 0.5 0.5 2.16215 0.5 4.21251H1.5C1.5 2.71443 2.71443 1.5 4.21251 1.5V0.5ZM40.1165 14.5723C40.5147 15.8324 40.6868 16.7728 40.6791 17.6804C40.6714 18.5897 40.483 19.4989 40.1151 20.7003L41.0713 20.9931C41.4513 19.7522 41.6702 18.7374 41.6791 17.6889C41.688 16.6388 41.4862 15.5878 41.07 14.271L40.1165 14.5723ZM43.333 11.372C44.248 14.0287 44.6393 16.019 44.6136 17.9001C44.5879 19.7816 44.1448 21.5917 43.3341 23.8931L44.2773 24.2253C45.1034 21.8804 45.5857 19.9523 45.6135 17.9138C45.6413 15.8749 45.2143 13.7633 44.2785 11.0463L43.333 11.372ZM5.76427 24.9073H26.4094V23.9073H5.76427V24.9073ZM5.76427 29.6715H16.8809V28.6715H5.76427V29.6715ZM21.6452 29.6715H32.7618V28.6715H21.6452V29.6715Z" fill="#232323"/>
<path d="M39.7437 47.6898L66.0001 21.4334" stroke="#232323" stroke-linecap="round"/>
<path d="M52.0247 27.7858C52.0247 31.0602 49.3703 33.7147 46.0959 33.7147C42.8214 33.7147 40.167 31.0602 40.167 27.7858C40.167 24.5114 42.8214 21.8569 46.0959 21.8569C49.3703 21.8569 52.0247 24.5114 52.0247 27.7858Z" fill="#EF4537"/>
<path d="M65.5764 41.3375C65.5764 44.6119 62.922 47.2664 59.6476 47.2664C56.3731 47.2664 53.7187 44.6119 53.7187 41.3375C53.7187 38.0631 56.3731 35.4086 59.6476 35.4086C62.922 35.4086 65.5764 38.0631 65.5764 41.3375Z" fill="#EF4537"/>
</svg>
