<svg width="66" height="66" viewBox="0 0 66 66" fill="none" xmlns="http://www.w3.org/2000/svg">
<path d="M4 24.2037C4 22.9866 4.98662 22 6.20367 22H26.0367C27.2537 22 28.2403 22.9866 28.2403 24.2037C28.2403 25.4207 27.2537 26.4073 26.0367 26.4073H6.20367C4.98661 26.4073 4 25.4207 4 24.2037Z" fill="#EF4537"/>
<path d="M4 30.8147C4 29.5976 4.98662 28.611 6.20367 28.611H26.0367C27.2537 28.611 28.2403 29.5976 28.2403 30.8147C28.2403 32.0317 27.2537 33.0183 26.0367 33.0183H6.20367C4.98661 33.0183 4 32.0317 4 30.8147Z" fill="#EF4537"/>
<path d="M4 37.4257C4 36.2086 4.98662 35.222 6.20367 35.222H26.0367C27.2537 35.222 28.2403 36.2086 28.2403 37.4257C28.2403 38.6427 27.2537 39.6293 26.0367 39.6293H6.20367C4.98661 39.6293 4 38.6427 4 37.4257Z" fill="#EF4537"/>
<path d="M4 44.0367C4 42.8196 4.98662 41.833 6.20367 41.833H26.0367C27.2537 41.833 28.2403 42.8196 28.2403 44.0367C28.2403 45.2537 27.2537 46.2403 26.0367 46.2403H6.20367C4.98661 46.2403 4 45.2537 4 44.0367Z" fill="#EF4537"/>
<path d="M4.00324 50.6329C4.00324 49.4158 4.98985 48.4292 6.2069 48.4292H15.033C16.25 48.4292 17.2367 49.4158 17.2367 50.6329C17.2367 51.8499 16.25 52.8366 15.033 52.8366H6.20691C4.98985 52.8366 4.00324 51.8499 4.00324 50.6329Z" fill="#EF4537"/>
<path d="M35.4861 45.1367C37.3329 43.5491 37.5419 40.7664 35.953 38.9212C34.6479 37.4057 32.5358 36.9941 30.7995 37.7751L30.7995 45.8163C32.3121 46.4947 34.1462 46.2886 35.4861 45.1367Z" fill="#EF4537"/>
<path d="M49.3479 44.7429C47.759 42.8978 47.968 40.115 49.8147 38.5275C51.6615 36.94 54.4466 37.1488 56.0355 38.994C57.6244 40.8391 57.4154 43.6219 55.5687 45.2094C53.7219 46.7969 50.9368 46.5881 49.3479 44.7429Z" fill="#EF4537"/>
<path d="M14.7222 10.9165C14.7222 9.97559 15.4849 9.21283 16.4258 9.21283C17.3667 9.21283 18.1295 9.97559 18.1295 10.9165C18.1295 11.8574 17.3667 12.6202 16.4258 12.6202C15.4849 12.6202 14.7222 11.8574 14.7222 10.9165Z" fill="#232323" stroke="#232323"/>
<path d="M43.3699 28.5458C43.3699 28.2696 43.146 28.0458 42.8699 28.0458C42.5937 28.0458 42.3699 28.2696 42.3699 28.5458H43.3699ZM42.3699 53.888C42.3699 54.1642 42.5937 54.388 42.8699 54.388C43.146 54.388 43.3699 54.1642 43.3699 53.888H42.3699ZM30.862 11.4919L31.2394 11.1639L30.862 11.4919ZM22.9374 2.37514L22.5601 2.70316L22.9374 2.37514ZM1.97928 11.4919L1.60191 11.1639H1.60191L1.97928 11.4919ZM9.90387 2.37514L10.2812 2.70316L9.90387 2.37514ZM43.9172 63.9785L43.6024 63.5899L43.597 63.5945L43.9172 63.9785ZM63.564 48.0607L63.8788 48.4492L63.8842 48.4447L63.564 48.0607ZM64.0713 42.4353L63.6876 42.7559L64.0713 42.4353ZM34.055 6.50917L34.4387 6.18859L34.055 6.50917ZM31.6235 5.12573L31.7032 4.63212C31.696 4.63096 31.6889 4.62996 31.6817 4.62912L31.6235 5.12573ZM38.2865 63.4717L37.9028 63.7923L38.2865 63.4717ZM24.6735 3.80889C24.3992 3.77679 24.1508 3.97311 24.1187 4.24738C24.0866 4.52165 24.283 4.77001 24.5572 4.80211L24.6735 3.80889ZM32.357 55.5949C32.1799 55.3829 31.8646 55.3547 31.6527 55.5317C31.4408 55.7088 31.4125 56.0241 31.5896 56.236L32.357 55.5949ZM42.3699 28.5458L42.3699 53.888H43.3699L43.3699 28.5458H42.3699ZM0.5 14.1106V60.9078H1.5V14.1106H0.5ZM4.9976 65.4016H27.8437V64.4016H4.9976V65.4016ZM32.3413 60.9078V14.1106H31.3413V60.9078H32.3413ZM31.2394 11.1639L23.3148 2.04712L22.5601 2.70316L30.4846 11.8199L31.2394 11.1639ZM2.35664 11.8199L10.2812 2.70316L9.5265 2.04712L1.60191 11.1639L2.35664 11.8199ZM12.9222 1.5H19.9191V0.5H12.9222V1.5ZM10.2812 2.70316C10.9455 1.93898 11.9089 1.5 12.9222 1.5V0.5C11.6196 0.5 10.3808 1.06431 9.5265 2.04712L10.2812 2.70316ZM23.3148 2.04712C22.4605 1.06431 21.2217 0.5 19.9191 0.5V1.5C20.9324 1.5 21.8958 1.93898 22.5601 2.70316L23.3148 2.04712ZM32.3413 14.1106C32.3413 13.0277 31.95 11.9813 31.2394 11.1639L30.4846 11.8199C31.0371 12.4555 31.3413 13.2689 31.3413 14.1106H32.3413ZM27.8437 65.4016C30.3272 65.4016 32.3413 63.3901 32.3413 60.9078H31.3413C31.3413 62.8369 29.7758 64.4016 27.8437 64.4016V65.4016ZM0.5 60.9078C0.5 63.3901 2.51408 65.4016 4.9976 65.4016V64.4016C3.06548 64.4016 1.5 62.8369 1.5 60.9078H0.5ZM1.5 14.1106C1.5 13.2689 1.80416 12.4555 2.35664 11.8199L1.60191 11.1639C0.891331 11.9813 0.5 13.0277 0.5 14.1106H1.5ZM44.232 64.367L63.8788 48.4492L63.2493 47.6722L43.6024 63.59L44.232 64.367ZM64.455 42.1147L34.4387 6.18859L33.6713 6.82975L63.6876 42.7559L64.455 42.1147ZM34.4387 6.18859C33.7443 5.3574 32.7729 4.80474 31.7032 4.63212L31.5439 5.61934C32.3759 5.75362 33.1314 6.18348 33.6713 6.82975L34.4387 6.18859ZM63.8842 48.4447C65.7913 46.8543 66.047 44.0202 64.455 42.1147L63.6876 42.7559C64.9251 44.2371 64.7266 46.4401 63.2438 47.6767L63.8842 48.4447ZM37.9028 63.7923C39.4946 65.6975 42.3306 65.9526 44.2374 64.3625L43.597 63.5945C42.1139 64.8313 39.9081 64.6326 38.6702 63.1511L37.9028 63.7923ZM31.6817 4.62912L24.6735 3.80889L24.5572 4.80211L31.5654 5.62234L31.6817 4.62912ZM31.5896 56.236L37.9028 63.7923L38.6702 63.1511L32.357 55.5949L31.5896 56.236Z" fill="#232323"/>
</svg>
