<svg width="66" height="66" viewBox="0 0 66 66" fill="none" xmlns="http://www.w3.org/2000/svg">
<path d="M29 51.1813C29 58.6336 22.732 64.6749 15 64.6749C7.26801 64.6749 1 58.6336 1 51.1813M29 51.1813C29 43.7289 22.732 37.6877 15 37.6877C7.26801 37.6877 1 43.7289 1 51.1813M29 51.1813H37M1 51.1813L1 6.36127C1 3.40032 3.46243 1 6.5 1C9.53757 1 12 3.40032 12 6.36127V10.6913M65 51.1813C65 58.6336 58.732 64.6749 51 64.6749C43.268 64.6749 37 58.6336 37 51.1813M65 51.1813C65 43.7289 58.732 37.6877 51 37.6877C43.268 37.6877 37 43.7289 37 51.1813M65 51.1813V6.36127C65 3.40032 62.5376 1 59.5 1C56.4624 1 54 3.40032 54 6.36127V10.6913" stroke="#0F274D" stroke-linecap="round" stroke-linejoin="round"/>
<path d="M21.9658 16.3698L36.3106 1L33.0003 11.9784H42.9313L27.483 29.5439L31.2949 16.3698H21.9658Z" fill="#A6B1E1" stroke="#A6B1E1" stroke-linecap="round" stroke-linejoin="round"/>
</svg>
