<svg width="65" height="65" viewBox="0 0 65 65" fill="none" xmlns="http://www.w3.org/2000/svg">
<path d="M41.1357 6.86829H45.4747V20.5611H41.1357V6.86829Z" fill="#A6B1E1"/>
<path d="M14.5169 5.31694C14.5169 5.0408 14.2931 4.81694 14.0169 4.81694C13.7408 4.81694 13.5169 5.0408 13.5169 5.31694H14.5169ZM13.5169 19.5831C13.5169 19.8592 13.7408 20.0831 14.0169 20.0831C14.2931 20.0831 14.5169 19.8592 14.5169 19.5831H13.5169ZM10.178 5.31694C10.178 5.0408 9.95411 4.81694 9.67797 4.81694C9.40182 4.81694 9.17797 5.0408 9.17797 5.31694H10.178ZM9.17797 13.1951C9.17797 13.4713 9.40182 13.6951 9.67797 13.6951C9.95411 13.6951 10.178 13.4713 10.178 13.1951H9.17797ZM10.178 18.2678C10.178 17.9916 9.95411 17.7678 9.67797 17.7678C9.40182 17.7678 9.17797 17.9916 9.17797 18.2678H10.178ZM9.17797 20.5611C9.17797 20.8373 9.40182 21.0611 9.67797 21.0611C9.95411 21.0611 10.178 20.8373 10.178 20.5611H9.17797ZM5.33895 3.32288H4.83895V3.32289L5.33895 3.32288ZM49.2733 9.79829L49.7733 9.80597V9.79829H49.2733ZM13.5169 5.31694V19.5831H14.5169V5.31694H13.5169ZM9.17797 5.31694V13.1951H10.178V5.31694H9.17797ZM9.17797 18.2678V20.5611H10.178V18.2678H9.17797ZM5.33898 21.0611H52.1186V20.0611H5.33898V21.0611ZM55.5508 24.4734V59.6834H56.5508V24.4734H55.5508ZM52.1186 63.0956H4.9322V64.0956H52.1186V63.0956ZM1.5 59.6834V24.4734H0.5V59.6834H1.5ZM4.9322 63.0956C3.03425 63.0956 1.5 61.5655 1.5 59.6834H0.5C0.5 62.1226 2.48677 64.0956 4.9322 64.0956V63.0956ZM55.5508 59.6834C55.5508 61.5655 54.0166 63.0956 52.1186 63.0956V64.0956C54.5641 64.0956 56.5508 62.1226 56.5508 59.6834H55.5508ZM52.1186 21.0611C54.0166 21.0611 55.5508 22.5912 55.5508 24.4734H56.5508C56.5508 22.0342 54.5641 20.0611 52.1186 20.0611V21.0611ZM5.33898 20.0611C4.12332 20.0611 2.92397 20.5489 2.02681 21.3299C1.12851 22.1119 0.5 23.2193 0.5 24.4734H1.5C1.5 23.5668 1.95514 22.7181 2.6834 22.0841C3.41281 21.4492 4.38295 21.0611 5.33898 21.0611V20.0611ZM7.6737 1.5H27.1123V0.5H7.6737V1.5ZM5.83898 20.5611L5.83895 3.32288L4.83895 3.32289L4.83898 20.5611L5.83898 20.5611ZM28.947 3.32289V20.5611H29.947V3.32289H28.947ZM7.6737 0.5C6.11052 0.5 4.83895 1.76145 4.83895 3.32288H5.83895C5.83895 2.31853 6.65799 1.5 7.6737 1.5V0.5ZM27.1123 1.5C28.128 1.5 28.947 2.31853 28.947 3.32289H29.947C29.947 1.76145 28.6754 0.5 27.1123 0.5V1.5ZM46.9386 6.97541H29.6738V7.97541H46.9386V6.97541ZM49.608 20.5688L49.7733 9.80597L48.7734 9.79062L48.6081 20.5535L49.608 20.5688ZM46.9386 7.97541C47.9543 7.97541 48.7733 8.79394 48.7733 9.79829H49.7733C49.7733 8.23686 48.5018 6.97541 46.9386 6.97541V7.97541Z" fill="#0F274D"/>
<path d="M24.5487 3C25.2601 3 25.8369 3.57379 25.8369 4.28159V9.8485C25.8369 10.5563 25.2601 11.1301 24.5487 11.1301H21.2881C20.5767 11.1301 20 10.5563 20 9.8485L20 4.28159C20 3.57379 20.5767 3 21.2881 3L24.5487 3Z" fill="#A6B1E1"/>
<path fill-rule="evenodd" clip-rule="evenodd" d="M49.7013 33.2186C47.3049 33.2186 45.3623 35.1514 45.3623 37.5356V41.8525C45.3623 44.2367 47.3049 46.1695 49.7013 46.1695H60.5487C62.9451 46.1695 64.8877 44.2367 64.8877 41.8525V37.5356C64.8877 35.1514 62.9451 33.2186 60.5487 33.2186H49.7013ZM51.8708 37.5356C50.6726 37.5356 49.7013 38.502 49.7013 39.6941C49.7013 40.8861 50.6726 41.8525 51.8708 41.8525C53.0689 41.8525 54.0403 40.8861 54.0403 39.6941C54.0403 38.502 53.0689 37.5356 51.8708 37.5356Z" fill="#A6B1E1"/>
</svg>
