<svg width="54" height="62" viewBox="0 0 54 62" fill="none" xmlns="http://www.w3.org/2000/svg">
<path d="M5.35865 26.792L48.9854 23.7413L51.1967 55.3641C51.3007 56.8516 50.1792 58.1419 48.6916 58.2459L10.4517 60.9199C8.96415 61.0239 7.67395 59.9023 7.56993 58.4148L5.35865 26.792Z" stroke="#0F274D" stroke-width="0.6"/>
<rect x="21.3322" y="25.3745" width="11.6667" height="35" transform="rotate(-4 21.3322 25.3745)" fill="#A6B1E1"/>
<path d="M1.54024 25.7984L0.700562 19.8238C0.493032 18.3471 1.52186 16.9818 2.99852 16.7743L45.58 10.7898C47.0567 10.5823 48.422 11.6111 48.6295 13.0878L49.4692 19.0624L1.54024 25.7984Z" stroke="#0F274D" stroke-width="0.6"/>
<path fill-rule="evenodd" clip-rule="evenodd" d="M24.9131 14.518C25.5196 14.7865 26.1976 14.8941 26.8917 14.7966C28.9639 14.5053 30.3945 12.4958 30.0871 10.3082C29.7796 8.12053 27.8505 6.58318 25.7783 6.87441C24.9112 6.99627 24.1565 7.41901 23.5944 8.02977C22.8857 7.5976 22.0437 7.39928 21.1766 7.52114C19.1044 7.81237 17.6738 9.82189 17.9813 12.0095C18.2887 14.1972 20.2178 15.7345 22.29 15.4433C22.7842 15.3738 23.242 15.2066 23.6483 14.9625C22.8023 15.8954 21.6594 16.5417 20.3441 16.7266C17.2358 17.1634 14.3422 14.8574 13.881 11.576C13.4198 8.29449 15.5657 5.28021 18.674 4.84338C20.3877 4.60254 22.0361 5.1954 23.2476 6.32579C24.1006 4.90525 25.5217 3.88099 27.2354 3.64015C30.3437 3.20331 33.2373 5.50934 33.6984 8.7908C34.1596 12.0723 32.0137 15.0865 28.9055 15.5234C27.4522 15.7276 26.0459 15.3323 24.9131 14.518Z" fill="#A6B1E1"/>
<rect x="18.4711" y="14.2974" width="11.6667" height="9.33333" transform="rotate(-8 18.4711 14.2974)" fill="#A6B1E1"/>
</svg>
