<svg width="21" height="24" viewBox="0 0 21 24" fill="none" xmlns="http://www.w3.org/2000/svg">
<path d="M1.5 9.5H19.5V21C19.5 22.3807 18.3807 23.5 17 23.5H4C2.61929 23.5 1.5 22.3807 1.5 21V9.5Z" stroke="#0F274D"/>
<path d="M0.45 7.55L0.45 7C0.45 5.59167 1.59167 4.45 3 4.45L18 4.45C19.4083 4.45 20.55 5.59167 20.55 7L20.55 7.55L0.45 7.55Z" stroke="#0F274D" stroke-width="0.9"/>
<path fill-rule="evenodd" clip-rule="evenodd" d="M8.47018 5.21562C9.83442 5.21562 10.9404 4.04806 10.9404 2.60781C10.9404 1.16756 9.83442 0 8.47018 0C7.10594 0 6 1.16756 6 2.60781C6 4.04806 7.10594 5.21562 8.47018 5.21562ZM8.46998 3.91171C9.1521 3.91171 9.70507 3.32793 9.70507 2.6078C9.70507 1.88768 9.1521 1.3039 8.46998 1.3039C7.78786 1.3039 7.2349 1.88768 7.2349 2.6078C7.2349 3.32793 7.78786 3.91171 8.46998 3.91171Z" fill="#A6B1E1"/>
<path fill-rule="evenodd" clip-rule="evenodd" d="M12.1753 5.21562C13.5395 5.21562 14.6454 4.04806 14.6454 2.60781C14.6454 1.16756 13.5395 0 12.1753 0C10.811 0 9.70508 1.16756 9.70508 2.60781C9.70508 4.04806 10.811 5.21562 12.1753 5.21562ZM12.1757 3.91171C12.8578 3.91171 13.4108 3.32793 13.4108 2.6078C13.4108 1.88768 12.8578 1.3039 12.1757 1.3039C11.4936 1.3039 10.9406 1.88768 10.9406 2.6078C10.9406 3.32793 11.4936 3.91171 12.1757 3.91171Z" fill="#A6B1E1"/>
<rect x="8" y="9" width="5" height="15" fill="#A6B1E1"/>
<rect x="8" y="4" width="5" height="4" fill="#A6B1E1"/>
</svg>
