<svg width="24" height="24" viewBox="0 0 24 24" fill="none" xmlns="http://www.w3.org/2000/svg">
<circle cx="12" cy="12" r="11.5" stroke="#C2C2C2"/>
<path d="M10.8594 18V9.625H13.1406V18H10.8594ZM12.8672 8.35938C12.6328 8.58854 12.3438 8.70312 12 8.70312C11.6562 8.70312 11.3672 8.58854 11.1328 8.35938C10.8984 8.13021 10.7812 7.85156 10.7812 7.52344C10.7812 7.1901 10.8984 6.91146 11.1328 6.6875C11.3672 6.45833 11.6562 6.34375 12 6.34375C12.3438 6.34375 12.6328 6.45833 12.8672 6.6875C13.1016 6.91146 13.2188 7.1901 13.2188 7.52344C13.2188 7.85156 13.1016 8.13021 12.8672 8.35938Z" fill="#C2C2C2"/>
</svg>
