<svg width="92" height="72" viewBox="0 0 92 72" fill="none" xmlns="http://www.w3.org/2000/svg">
<path d="M7.10645 48.5802C6.84001 49.0845 6.44509 49.4889 5.9217 49.7934C5.39831 50.0979 4.76159 50.2501 4.01153 50.2498C3.27119 50.2498 2.60973 50.1086 2.02713 49.8261C1.44453 49.5437 0.978088 49.1366 0.627806 48.6049C0.277072 48.0735 0.0770716 47.4533 0.027806 46.7444H2.24916C2.29865 47.2208 2.46905 47.6169 2.76035 47.9325C3.05165 48.2482 3.4391 48.406 3.92272 48.406C4.35707 48.406 4.69029 48.2758 4.92238 48.0154C5.15447 47.755 5.2704 47.42 5.27018 47.0102C5.27018 46.6446 5.17639 46.3428 4.98882 46.1047C4.79105 45.8584 4.54824 45.6629 4.27696 45.5316C3.99063 45.3878 3.59571 45.2216 3.09221 45.033C2.44069 44.7896 1.90758 44.5487 1.49289 44.3104C1.07063 44.065 0.707454 43.7088 0.434247 43.2721C0.143399 42.818 -0.00134649 42.2253 9.43804e-06 41.4941C9.43804e-06 40.4865 0.323286 39.6918 0.96984 39.1099C1.61639 38.528 2.47289 38.2373 3.53933 38.2378C4.64487 38.2378 5.52622 38.5369 6.1834 39.135C6.84057 39.7331 7.21345 40.5306 7.30204 41.5276H5.05119C4.99198 41.1067 4.83379 40.7605 4.57662 40.4889C4.31944 40.2174 3.96916 40.0817 3.52577 40.082C3.14159 40.082 2.83063 40.1961 2.59289 40.4243C2.35515 40.6524 2.23673 40.9821 2.23764 41.4131C2.23764 41.7564 2.32893 42.0416 2.51153 42.2688C2.70677 42.5062 2.94373 42.6957 3.20747 42.8252C3.582 43.009 3.96517 43.1699 4.35526 43.3071C5.02645 43.573 5.57187 43.8223 5.99153 44.0548C6.41119 44.2873 6.76905 44.6362 7.06509 45.1014C7.36136 45.5667 7.5095 46.1759 7.5095 46.9292C7.51232 47.5106 7.37291 48.0816 7.10645 48.5802Z" fill="#EF4537"/>
<path d="M10.7643 40.2647V43.305H14.4667V45.0993H10.7643V48.256H14.9108V50.1333H8.67822V38.4038H14.9108V40.2647H10.7643Z" fill="#EF4537"/>
<path d="M23.9998 43.2597C24.0527 43.5816 24.0787 43.9083 24.0774 44.2356C24.0774 45.0107 23.9466 45.6891 23.6849 46.2707C23.4232 46.8524 23.0604 47.2982 22.5964 47.6083C22.1322 47.9186 21.5943 48.0737 20.9825 48.0734C20.3708 48.0732 19.8327 47.9181 19.3683 47.6083C18.9037 47.2987 18.5407 46.8524 18.2795 46.2692C18.0182 45.686 17.8874 45.0077 17.8869 44.2341C17.8869 43.4588 18.0178 42.7803 18.2795 42.1986C18.5412 41.617 18.904 41.1711 19.368 40.8611C19.8317 40.5512 20.3698 40.3962 20.9822 40.3959C21.5946 40.3957 22.1326 40.5507 22.5961 40.8611C22.6608 40.9044 22.7232 40.9504 22.7839 40.9987L21.3025 38.246C21.1968 38.2394 21.09 38.2361 20.9822 38.2361C20.0046 38.2361 19.1185 38.4908 18.3239 39.0001C17.5339 39.5042 16.8831 40.243 16.4432 41.1353C15.984 42.048 15.7544 43.081 15.7544 44.2341C15.7544 45.3872 15.984 46.4228 16.4432 47.3409C16.9022 48.2605 17.5291 48.9749 18.3239 49.484C19.1187 49.9932 20.0048 50.248 20.9822 50.2485C21.9594 50.2485 22.8454 49.9937 23.6402 49.484C24.435 48.9744 25.0619 48.26 25.5208 47.3409C25.6339 47.1147 25.7334 46.8803 25.8188 46.6392L23.9998 43.2597Z" fill="#EF4537"/>
<path d="M44.7273 50.6758H38.7148C38.7446 51.4955 38.9421 52.0991 39.3073 52.4865C39.6725 52.8739 40.1266 53.0677 40.6697 53.068C41.1531 53.068 41.5553 52.9351 41.8765 52.6694C42.1946 52.4084 42.4139 52.023 42.4911 51.5893H44.6975C44.5939 52.2202 44.355 52.8133 44.0016 53.3175C43.6463 53.8271 43.1897 54.2258 42.6317 54.5136C42.0738 54.8014 41.4543 54.9454 40.7734 54.9456C39.9739 54.9456 39.263 54.7546 38.6409 54.3725C38.0253 53.9978 37.5209 53.4294 37.1897 52.7371C36.8439 52.0272 36.6712 51.1905 36.6714 50.227C36.6716 49.2635 36.8444 48.4245 37.1897 47.7101C37.518 47.0154 38.0232 46.4461 38.6409 46.0747C39.2628 45.6982 39.9736 45.5098 40.7734 45.5095C41.5827 45.5095 42.2911 45.6979 42.8985 46.0747C43.4889 46.4328 43.9766 46.9714 44.3053 47.6279C44.6359 48.2871 44.8012 49.0376 44.8012 49.8794C44.7979 50.1468 44.7732 50.4133 44.7273 50.6758ZM42.1727 47.9341C41.7924 47.5464 41.326 47.3525 40.7734 47.3525C40.2107 47.3525 39.7368 47.5464 39.3517 47.9341C38.9666 48.3217 38.7543 48.8922 38.7148 49.6455H42.6985C42.7281 48.8925 42.5529 48.322 42.1727 47.9341Z" fill="#EF4537"/>
<path d="M53.0508 46.0735C53.6035 46.45 54.0354 46.9951 54.3464 47.7088C54.6573 48.4226 54.8128 49.2616 54.8128 50.2258C54.8128 51.1893 54.6573 52.0284 54.3464 52.7431C54.0354 53.4579 53.6035 54.003 53.0508 54.3785C52.4976 54.755 51.8761 54.9433 51.1864 54.9433C50.4966 54.9433 49.9068 54.7577 49.4169 54.3865C48.9368 54.0281 48.5711 53.5073 48.3728 52.8998V59.2131H46.2847V45.6247H48.3728V47.5354C48.5701 46.9294 48.9362 46.4109 49.4169 46.0567C49.9055 45.6911 50.4953 45.5083 51.1864 45.5083C51.8774 45.5083 52.4989 45.6967 53.0508 46.0735ZM48.9708 48.2747C48.5611 48.7565 48.3562 49.4072 48.3562 50.2269C48.3562 51.0355 48.5611 51.6808 48.9708 52.1628C49.3805 52.6447 49.9013 52.8856 50.5331 52.8854C51.1847 52.8854 51.7079 52.6499 52.103 52.1791C52.498 51.7083 52.6954 51.0575 52.6952 50.2269C52.6952 49.3963 52.4978 48.7428 52.103 48.2664C51.7082 47.79 51.1849 47.5519 50.5331 47.5521C49.9006 47.5521 49.3795 47.793 48.9698 48.2747H48.9708Z" fill="#EF4537"/>
<path d="M64.1411 45.6245V54.8282H62.0533V52.9673C61.848 53.5715 61.4706 54.0826 60.9798 54.4213C60.4808 54.7702 59.9057 54.9446 59.2544 54.9446C58.3066 54.9446 57.5513 54.5957 56.9886 53.898C56.4259 53.2002 56.1445 52.2255 56.1445 50.9737V45.6245H58.2178V50.7086C58.2178 51.4396 58.3855 52.0073 58.7211 52.4117C59.0567 52.8161 59.5109 53.0182 60.0835 53.0179C60.6858 53.0179 61.1646 52.8024 61.5201 52.3714C61.8756 51.9403 62.0533 51.32 62.0533 50.5105V45.6245H64.1411Z" fill="#EF4537"/>
<path d="M72.8042 46.0734C73.357 46.4499 73.7889 46.9951 74.1001 47.7088C74.4113 48.4225 74.5668 49.2615 74.5666 50.2258C74.5666 51.1892 74.4111 52.0283 74.1001 52.7431C73.7892 53.4578 73.3572 54.003 72.8042 54.3785C72.2514 54.755 71.6299 54.9432 70.9398 54.9432C70.2496 54.9432 69.6597 54.7576 69.17 54.3865C68.69 54.028 68.3244 53.5072 68.1262 52.8998V54.8269H66.0381V42.5342H68.1262V47.5354C68.3234 46.9294 68.6894 46.4109 69.17 46.0567C69.6588 45.6911 70.2487 45.5083 70.9398 45.5083C71.6309 45.5083 72.2523 45.6967 72.8042 46.0734ZM68.7245 48.2747C68.3146 48.7565 68.1097 49.4072 68.11 50.2269C68.11 51.0355 68.3148 51.6807 68.7245 52.1627C69.1342 52.6447 69.655 52.8856 70.2869 52.8853C70.9384 52.8853 71.4617 52.6499 71.8567 52.1791C72.2518 51.7082 72.4492 51.0575 72.4489 50.2269C72.4489 49.3963 72.2515 48.7428 71.8567 48.2664C71.4619 47.7899 70.9386 47.5519 70.2869 47.5521C69.655 47.5521 69.1342 47.793 68.7245 48.2747Z" fill="#EF4537"/>
<path d="M78.1355 42.5342V54.8292H76.0474V42.5342H78.1355Z" fill="#EF4537"/>
<path d="M80.1495 42.0607C80.3866 41.8227 80.6977 41.7036 81.0827 41.7036C81.4678 41.7036 81.7788 41.8227 82.0156 42.0607C82.2525 42.2991 82.3709 42.6065 82.3709 42.983C82.3747 43.154 82.3448 43.3238 82.2834 43.4803C82.222 43.6368 82.1306 43.7762 82.0156 43.8886C81.7786 44.1269 81.4676 44.2459 81.0827 44.2457C80.6979 44.2454 80.3868 44.1264 80.1495 43.8886C80.0346 43.7762 79.9432 43.6368 79.8818 43.4803C79.8204 43.3238 79.7905 43.154 79.7943 42.983C79.7943 42.6065 79.9127 42.2991 80.1495 42.0607ZM82.1194 45.6247V54.8284H80.0312V45.6247H82.1194Z" fill="#EF4537"/>
<path d="M90.3452 46.4719C91.051 47.1144 91.4928 47.9891 91.6707 49.0961H89.4642C89.3754 48.6091 89.173 48.2242 88.8571 47.9415C88.5412 47.6588 88.1413 47.5175 87.6574 47.5178C87.1047 47.5178 86.6431 47.7476 86.2727 48.2073C85.9023 48.667 85.7172 49.3399 85.7174 50.2261C85.7174 51.1135 85.9025 51.7864 86.2727 52.2448C86.6429 52.7032 87.1044 52.933 87.6574 52.9343C88.1413 52.9343 88.5412 52.7931 88.8571 52.5106C89.173 52.2282 89.3754 51.8433 89.4642 51.356H91.6707C91.493 52.4635 91.0512 53.3382 90.3452 53.9802C89.6392 54.6222 88.7579 54.9434 87.7012 54.9439C86.9014 54.9439 86.1905 54.7529 85.5686 54.3708C84.9532 53.9959 84.4488 53.4275 84.1174 52.7354C83.7717 52.0255 83.5989 51.1888 83.5991 50.2253C83.5993 49.2618 83.7721 48.4228 84.1174 47.7083C84.4458 47.0138 84.951 46.4445 85.5686 46.073C86.1905 45.6965 86.9014 45.5081 87.7012 45.5078C88.759 45.5083 89.6404 45.8297 90.3452 46.4719Z" fill="#EF4537"/>
<path d="M33.1188 50.144C33.9479 49.9445 34.5823 49.5456 35.0218 48.9475C35.4614 48.3494 35.681 47.6073 35.6808 46.7211C35.6808 45.6357 35.3624 44.761 34.7256 44.0969C34.0887 43.4329 33.1632 43.1006 31.9489 43.1001H27.9639V49.5111L30.052 53.3904V50.2592H30.97L33.4137 54.8284H35.7239L33.1188 50.144ZM30.0534 48.6486V45.0762H31.7713C32.3831 45.0762 32.8351 45.2341 33.1273 45.5497C33.4195 45.8654 33.5651 46.3058 33.5642 46.871C33.5642 48.056 32.9669 48.6486 31.7723 48.6486H30.0534Z" fill="#EF4537"/>
<path d="M19.7471 34.1614H29.7247L30.7003 36.0113H32.1017C32.1105 36.0072 32.1202 36.0055 32.1298 36.0064C32.1406 36.0064 32.1518 36.009 32.1637 36.0113H82.2735L67.6901 8.77775H53.6861L52.7203 6.972H5.17115L1.46877 0.072998H0.824707L39.3176 71.8773H39.9617L13.261 22.0593L19.7471 34.1614Z" fill="rgb(239, 69, 55)"/>
<path d="M52.7025 7.04419L29.7344 34.1693L30.7001 36.0112L53.6703 8.84995L52.7025 7.04419Z" fill="#F69C99"/>
<defs>
<linearGradient id="paint0_linear" x1="0.825046" y1="35.9752" x2="82.2735" y2="35.9752" gradientUnits="userSpaceOnUse">
<stop stop-color="#AE2F24"/>
<stop offset="1" stop-color="#EF4537"/>
</linearGradient>
</defs>
</svg>
