<svg width="279" height="56" viewBox="0 0 279 56" fill="none" xmlns="http://www.w3.org/2000/svg">
<path d="M277.251 17.9374C277.266 15.7185 276.848 13.5186 276.022 11.4643C275.195 9.40996 273.977 7.5419 272.436 5.96763C270.895 4.39336 269.063 3.14399 267.045 2.29143C265.027 1.43888 262.862 0.999994 260.676 1.00004C240.399 1.00004 240.399 20.3771 220.136 20.3771C199.873 20.3771 199.901 1.00003 179.638 1.00003C159.375 1.00002 159.361 20.3771 139.126 20.3771C118.89 20.3771 118.835 1.00002 98.5721 1.00001C78.309 1.00001 78.3505 20.3771 58.046 20.3771C37.7415 20.3771 37.783 1 17.5752 1L17.5752 34.8187C37.8382 34.8187 37.8382 54.1958 58.1013 54.1958C78.3643 54.1958 78.3505 34.8187 98.5721 34.8187C118.794 34.8187 118.835 54.1958 139.126 54.1958C159.416 54.1958 159.389 34.8188 179.666 34.8188C199.942 34.8188 199.901 54.1958 220.164 54.1958C240.427 54.1958 240.427 34.8188 260.676 34.8188C262.858 34.8188 265.018 34.3817 267.032 33.5327C269.047 32.6836 270.876 31.4393 272.416 29.871C273.956 28.3026 275.176 26.4412 276.006 24.3934C276.835 22.3456 277.259 20.1517 277.251 17.9374Z" fill="#FCF5F2" stroke="#0F274D" stroke-width="2" stroke-miterlimit="10"/>
<path d="M17.6303 34.8046C26.815 34.8046 34.2606 27.2466 34.2607 17.9233C34.2607 8.60002 26.815 1.042 17.6303 1.042C8.44565 1.04199 0.999999 8.60002 0.999997 17.9233C0.999995 27.2466 8.44565 34.8046 17.6303 34.8046Z" fill="#A6B1E1" stroke="#0F274D" stroke-width="2" stroke-miterlimit="10"/>
</svg>
