<svg width="104" height="272" viewBox="0 0 104 272" fill="none" xmlns="http://www.w3.org/2000/svg">
<circle cx="100" cy="4" r="3.5" transform="rotate(90 100 4)" stroke="#0F274D"/>
<circle cx="100" cy="100" r="3.5" transform="rotate(90 100 100)" stroke="#0F274D"/>
<circle cx="100" cy="196" r="3.5" transform="rotate(90 100 196)" stroke="#0F274D"/>
<circle cx="36" cy="4" r="3.5" transform="rotate(90 36 4)" stroke="#0F274D"/>
<circle cx="36" cy="100" r="3.5" transform="rotate(90 36 100)" stroke="#0F274D"/>
<circle cx="36" cy="196" r="3.5" transform="rotate(90 36 196)" stroke="#0F274D"/>
<circle cx="68" cy="4" r="3.5" transform="rotate(90 68 4)" stroke="#0F274D"/>
<circle cx="68" cy="100" r="3.5" transform="rotate(90 68 100)" stroke="#0F274D"/>
<circle cx="68" cy="196" r="3.5" transform="rotate(90 68 196)" stroke="#0F274D"/>
<circle cx="4" cy="4" r="3.5" transform="rotate(90 4 4)" stroke="#0F274D"/>
<circle cx="4" cy="100" r="3.5" transform="rotate(90 4 100)" stroke="#0F274D"/>
<circle cx="4" cy="196" r="3.5" transform="rotate(90 4 196)" stroke="#0F274D"/>
<circle cx="100" cy="52" r="3.5" transform="rotate(90 100 52)" stroke="#0F274D"/>
<circle cx="100" cy="148" r="3.5" transform="rotate(90 100 148)" stroke="#0F274D"/>
<circle cx="100" cy="244" r="3.5" transform="rotate(90 100 244)" stroke="#0F274D"/>
<circle cx="36" cy="52" r="3.5" transform="rotate(90 36 52)" stroke="#0F274D"/>
<circle cx="36" cy="148" r="3.5" transform="rotate(90 36 148)" stroke="#0F274D"/>
<circle cx="36" cy="244" r="3.5" transform="rotate(90 36 244)" stroke="#0F274D"/>
<circle cx="68" cy="52" r="3.5" transform="rotate(90 68 52)" stroke="#0F274D"/>
<circle cx="68" cy="148" r="3.5" transform="rotate(90 68 148)" stroke="#0F274D"/>
<circle cx="68" cy="244" r="3.5" transform="rotate(90 68 244)" stroke="#0F274D"/>
<circle cx="4" cy="52" r="3.5" transform="rotate(90 4 52)" stroke="#0F274D"/>
<circle cx="4" cy="148" r="3.5" transform="rotate(90 4 148)" stroke="#0F274D"/>
<circle cx="4" cy="244" r="3.5" transform="rotate(90 4 244)" stroke="#0F274D"/>
<circle cx="100" cy="28" r="3.5" transform="rotate(90 100 28)" stroke="#0F274D"/>
<circle cx="100" cy="124" r="3.5" transform="rotate(90 100 124)" stroke="#0F274D"/>
<circle cx="100" cy="220" r="3.5" transform="rotate(90 100 220)" stroke="#0F274D"/>
<circle cx="36" cy="28" r="3.5" transform="rotate(90 36 28)" stroke="#0F274D"/>
<circle cx="36" cy="124" r="3.5" transform="rotate(90 36 124)" stroke="#0F274D"/>
<circle cx="36" cy="220" r="3.5" transform="rotate(90 36 220)" stroke="#0F274D"/>
<circle cx="68" cy="28" r="3.5" transform="rotate(90 68 28)" stroke="#0F274D"/>
<circle cx="68" cy="124" r="3.5" transform="rotate(90 68 124)" stroke="#0F274D"/>
<circle cx="68" cy="220" r="3.5" transform="rotate(90 68 220)" stroke="#0F274D"/>
<circle cx="4" cy="28" r="3.5" transform="rotate(90 4 28)" stroke="#0F274D"/>
<circle cx="4" cy="124" r="3.5" transform="rotate(90 4 124)" stroke="#0F274D"/>
<circle cx="4" cy="220" r="3.5" transform="rotate(90 4 220)" stroke="#0F274D"/>
<circle cx="100" cy="76" r="3.5" transform="rotate(90 100 76)" stroke="#0F274D"/>
<circle cx="100" cy="172" r="3.5" transform="rotate(90 100 172)" stroke="#0F274D"/>
<circle cx="100" cy="268" r="3.5" transform="rotate(90 100 268)" stroke="#0F274D"/>
<circle cx="36" cy="76" r="3.5" transform="rotate(90 36 76)" stroke="#0F274D"/>
<circle cx="36" cy="172" r="3.5" transform="rotate(90 36 172)" stroke="#0F274D"/>
<circle cx="36" cy="268" r="3.5" transform="rotate(90 36 268)" stroke="#0F274D"/>
<circle cx="68" cy="76" r="3.5" transform="rotate(90 68 76)" stroke="#0F274D"/>
<circle cx="68" cy="172" r="3.5" transform="rotate(90 68 172)" stroke="#0F274D"/>
<circle cx="68" cy="268" r="3.5" transform="rotate(90 68 268)" stroke="#0F274D"/>
<circle cx="4" cy="76" r="3.5" transform="rotate(90 4 76)" stroke="#0F274D"/>
<circle cx="4" cy="172" r="3.5" transform="rotate(90 4 172)" stroke="#0F274D"/>
<circle cx="4" cy="268" r="3.5" transform="rotate(90 4 268)" stroke="#0F274D"/>
</svg>
