<svg width="120" height="171" viewBox="0 0 120 171" fill="none" xmlns="http://www.w3.org/2000/svg">
<path d="M21.5376 163.541C22.7488 164.251 24.0864 164.718 25.4734 164.915C26.8605 165.112 28.2695 165.035 29.6194 164.689C30.9693 164.343 32.2335 163.734 33.339 162.898C34.4446 162.062 35.3697 161.015 36.0612 159.817C42.4756 148.707 31.8586 142.577 38.2686 131.475C44.6786 120.372 55.2868 126.517 61.6968 115.415C68.1068 104.312 57.4942 98.1751 63.8955 87.0878C70.2967 76.0005 80.9312 82.1 87.3411 70.9976C93.7511 59.8951 83.121 53.7881 89.5441 42.663C95.9672 31.5379 106.571 37.6903 112.964 26.6182L94.4338 15.92C88.0238 27.0224 77.4069 20.8927 70.9969 31.9951C64.5869 43.0975 75.2082 49.2197 68.8114 60.2994C62.4145 71.3791 51.7844 65.2721 45.3657 76.3896C38.9469 87.5072 49.5727 93.6218 43.1583 104.732C36.7439 115.842 26.1401 109.689 19.7301 120.792C13.3201 131.894 23.9371 138.024 17.5315 149.119C16.8414 150.314 16.3976 151.636 16.2255 153.008C16.0535 154.38 16.1565 155.777 16.5286 157.116C16.9008 158.456 17.5349 159.713 18.3944 160.816C19.254 161.918 20.3221 162.844 21.5376 163.541Z" fill="#FFE2DD" stroke="#0F274D" stroke-width="2" stroke-miterlimit="10"/>
<path d="M94.4244 15.9545C91.519 20.9869 93.3048 27.4574 98.4132 30.4067C103.522 33.3561 110.018 31.6674 112.924 26.635C115.829 21.6025 114.043 15.1321 108.935 12.1827C103.826 9.23341 97.3299 10.9221 94.4244 15.9545Z" fill="url(#paint0_linear)" stroke="#0F274D" stroke-width="2" stroke-miterlimit="10"/>
<defs>
<linearGradient id="paint0_linear" x1="112.924" y1="26.635" x2="94.4244" y2="15.9545" gradientUnits="userSpaceOnUse">
<stop stop-color="#A8F454"/>
<stop offset="0.817708" stop-color="#A6B1E1"/>
</linearGradient>
</defs>
</svg>
