<svg width="24" height="24" viewBox="0 0 24 24" xmlns="http://www.w3.org/2000/svg">
<path d="M17.6819 15.4029L17.6819 15.4029L17.6851 15.4039C19.0884 15.8677 20.5683 16.1033 22.0742 16.1033C22.9427 16.1033 23.6499 16.8105 23.65 17.679V22.0742C23.65 22.9428 22.9428 23.65 22.0742 23.65C10.0956 23.65 0.35 13.9044 0.35 1.92581C0.35 1.05724 1.05724 0.35 1.92581 0.35H6.3333C7.20186 0.35 7.90909 1.05723 7.90904 1.92585V1.92587C7.90904 3.43173 8.14505 4.91 8.6101 6.3195C8.79094 6.8985 8.63885 7.51066 8.21878 7.93016L8.20128 7.94764L8.18641 7.9674L6.20923 10.5957L6.07544 10.7735L6.17973 10.9701C7.86044 14.1383 9.83874 16.1155 13.0291 17.8186L13.2264 17.9239L13.4048 17.7892L16.1034 15.752L16.1247 15.736L16.1433 15.7169C16.2901 15.5661 16.5319 15.4356 16.8223 15.3705C17.1104 15.306 17.4172 15.3126 17.6819 15.4029Z" stroke-width="0.7"/>
</svg>
