<svg width="65" height="91" viewBox="0 0 65 91" fill="none" xmlns="http://www.w3.org/2000/svg">
<ellipse cx="31.7375" cy="46.3341" rx="15.5" ry="27.5" transform="rotate(13.3386 31.7375 46.3341)" fill="url(#paint0_linear)"/>
<path d="M54.7867 50.6218C52.1911 61.569 47.3026 70.8526 41.5227 77.0165C35.7319 83.192 29.1287 86.161 23.0636 84.723C16.9985 83.285 12.4312 77.6673 10.0294 69.5494C7.63213 61.4467 7.43201 50.9565 10.0276 40.0093C12.6232 29.0621 17.5117 19.7785 23.2916 13.6146C29.0824 7.43912 35.6856 4.47004 41.7507 5.90808C47.8158 7.34613 52.3831 12.9637 54.7849 21.0817C57.1822 29.1844 57.3823 39.6746 54.7867 50.6218Z" stroke="#232323"/>
<defs>
<linearGradient id="paint0_linear" x1="31.7375" y1="18.8341" x2="31.7375" y2="73.8341" gradientUnits="userSpaceOnUse">
<stop stop-color="#A8F454"/>
<stop offset="0.817708" stop-color="#A6B1E1"/>
</linearGradient>
</defs>
</svg>
