<svg width="116" height="44" viewBox="0 0 116 44" fill="none" xmlns="http://www.w3.org/2000/svg">
<circle cx="1.5" cy="1.5" r="1.5" fill="#0F274D"/>
<circle cx="42.5" cy="1.5" r="1.5" fill="#0F274D"/>
<circle cx="83.5" cy="1.5" r="1.5" fill="#0F274D"/>
<circle cx="1.5" cy="28.5" r="1.5" fill="#0F274D"/>
<circle cx="42.5" cy="28.5" r="1.5" fill="#0F274D"/>
<circle cx="83.5" cy="28.5" r="1.5" fill="#0F274D"/>
<circle cx="1.5" cy="14.5" r="1.5" fill="#0F274D"/>
<circle cx="42.5" cy="14.5" r="1.5" fill="#0F274D"/>
<circle cx="83.5" cy="14.5" r="1.5" fill="#0F274D"/>
<circle cx="1.5" cy="42.5" r="1.5" fill="#0F274D"/>
<circle cx="42.5" cy="42.5" r="1.5" fill="#0F274D"/>
<circle cx="83.5" cy="42.5" r="1.5" fill="#0F274D"/>
<circle cx="21.5" cy="1.5" r="1.5" fill="#0F274D"/>
<circle cx="62.5" cy="1.5" r="1.5" fill="#0F274D"/>
<circle cx="103.5" cy="1.5" r="1.5" fill="#0F274D"/>
<circle cx="21.5" cy="28.5" r="1.5" fill="#0F274D"/>
<circle cx="62.5" cy="28.5" r="1.5" fill="#0F274D"/>
<circle cx="103.5" cy="28.5" r="1.5" fill="#0F274D"/>
<circle cx="21.5" cy="14.5" r="1.5" fill="#0F274D"/>
<circle cx="62.5" cy="14.5" r="1.5" fill="#0F274D"/>
<circle cx="103.5" cy="14.5" r="1.5" fill="#0F274D"/>
<circle cx="21.5" cy="42.5" r="1.5" fill="#0F274D"/>
<circle cx="62.5" cy="42.5" r="1.5" fill="#0F274D"/>
<circle cx="103.5" cy="42.5" r="1.5" fill="#0F274D"/>
<circle cx="11.5" cy="1.5" r="1.5" fill="#0F274D"/>
<circle cx="52.5" cy="1.5" r="1.5" fill="#0F274D"/>
<circle cx="93.5" cy="1.5" r="1.5" fill="#0F274D"/>
<circle cx="11.5" cy="28.5" r="1.5" fill="#0F274D"/>
<circle cx="52.5" cy="28.5" r="1.5" fill="#0F274D"/>
<circle cx="93.5" cy="28.5" r="1.5" fill="#0F274D"/>
<circle cx="11.5" cy="14.5" r="1.5" fill="#0F274D"/>
<circle cx="52.5" cy="14.5" r="1.5" fill="#0F274D"/>
<circle cx="93.5" cy="14.5" r="1.5" fill="#0F274D"/>
<circle cx="11.5" cy="42.5" r="1.5" fill="#0F274D"/>
<circle cx="52.5" cy="42.5" r="1.5" fill="#0F274D"/>
<circle cx="93.5" cy="42.5" r="1.5" fill="#0F274D"/>
<circle cx="32.5" cy="1.5" r="1.5" fill="#0F274D"/>
<circle cx="73.5" cy="1.5" r="1.5" fill="#0F274D"/>
<circle cx="114.5" cy="1.5" r="1.5" fill="#0F274D"/>
<circle cx="32.5" cy="28.5" r="1.5" fill="#0F274D"/>
<circle cx="73.5" cy="28.5" r="1.5" fill="#0F274D"/>
<circle cx="114.5" cy="28.5" r="1.5" fill="#0F274D"/>
<circle cx="32.5" cy="14.5" r="1.5" fill="#0F274D"/>
<circle cx="73.5" cy="14.5" r="1.5" fill="#0F274D"/>
<circle cx="114.5" cy="14.5" r="1.5" fill="#0F274D"/>
<circle cx="32.5" cy="42.5" r="1.5" fill="#0F274D"/>
<circle cx="73.5" cy="42.5" r="1.5" fill="#0F274D"/>
<circle cx="114.5" cy="42.5" r="1.5" fill="#0F274D"/>
</svg>
