<svg width="85" height="108" viewBox="0 0 85 108" fill="none" xmlns="http://www.w3.org/2000/svg">
<ellipse cx="42.1603" cy="54.8746" rx="18" ry="31.5" transform="rotate(-21.1682 42.1603 54.8746)" fill="url(#paint0_linear)"/>
<path d="M66.8621 44.5094C71.523 56.5458 72.9302 68.5055 71.4607 78.1004C69.9887 87.7107 65.6562 94.841 58.9417 97.4411C52.2272 100.041 44.2224 97.6884 36.662 91.5757C29.1137 85.4729 22.0993 75.6845 17.4383 63.6481C12.7774 51.6117 11.3702 39.6519 12.8397 30.0571C14.3117 20.4468 18.6442 13.3165 25.3587 10.7164C32.0732 8.11627 40.078 10.4691 47.6384 16.5818C55.1867 22.6846 62.2012 32.473 66.8621 44.5094Z" stroke="#232323"/>
<defs>
<linearGradient id="paint0_linear" x1="42.1603" y1="23.3746" x2="42.1603" y2="86.3746" gradientUnits="userSpaceOnUse">
<stop stop-color="#A8F454"/>
<stop offset="0.817708" stop-color="#A6B1E1"/>
</linearGradient>
</defs>
</svg>
