<svg width="90" height="20" viewBox="0 0 90 20" fill="none" xmlns="http://www.w3.org/2000/svg">
<path d="M1.74134 7.10746C1.73674 6.40642 1.86876 5.71138 2.12981 5.06236C2.39085 4.41334 2.77577 3.82315 3.2624 3.32579C3.74902 2.82843 4.32773 2.4337 4.96522 2.16435C5.60271 1.895 6.28637 1.75635 6.97685 1.75636C13.3816 1.75636 13.3816 7.87823 19.7821 7.87822C26.1825 7.87822 26.1737 1.75636 32.5742 1.75636C38.9746 1.75636 38.9789 7.87822 45.3706 7.87822C51.7623 7.87822 51.7798 1.75635 58.1802 1.75635C64.5806 1.75635 64.5675 7.87822 70.981 7.87822C77.3945 7.87821 77.3814 1.75635 83.7644 1.75635L83.7644 12.4408C77.364 12.4408 77.364 18.5627 70.9636 18.5627C64.5632 18.5627 64.5675 12.4408 58.1802 12.4408C51.7929 12.4408 51.7798 18.5627 45.3706 18.5627C38.9615 18.5627 38.9702 12.4408 32.5654 12.4408C26.1607 12.4408 26.1737 18.5627 19.7733 18.5627C13.3729 18.5627 13.3729 12.4408 6.97685 12.4408C6.28785 12.4408 5.60562 12.3028 4.96928 12.0345C4.33293 11.7663 3.755 11.3731 3.26861 10.8777C2.78221 10.3822 2.39694 9.79408 2.13486 9.14711C1.87277 8.50014 1.73905 7.80701 1.74134 7.10746Z" fill="#FCF5F2" stroke="#0F274D" stroke-width="2" stroke-miterlimit="10"/>
<path d="M83.747 12.4365C80.8459 12.4365 78.4941 10.0487 78.4941 7.10315C78.4941 4.15761 80.8459 1.76978 83.747 1.76978C86.6482 1.76978 89 4.15761 89 7.10315C89 10.0487 86.6482 12.4365 83.747 12.4365Z" fill="#A6B1E1" stroke="#0F274D" stroke-width="2" stroke-miterlimit="10"/>
</svg>
