<svg width="81" height="42" viewBox="0 0 81 42" fill="none" xmlns="http://www.w3.org/2000/svg">
<circle cx="78.8652" cy="29.1564" r="1" transform="rotate(171.619 78.8652 29.1564)" fill="#0F274D"/>
<circle cx="52.8652" cy="32.1564" r="1" transform="rotate(171.619 52.8652 32.1564)" fill="#0F274D"/>
<circle cx="25.8652" cy="36.1564" r="1" transform="rotate(171.619 25.8652 36.1564)" fill="#0F274D"/>
<circle cx="76.8652" cy="11.1564" r="1" transform="rotate(171.619 76.8652 11.1564)" fill="#0F274D"/>
<circle cx="49.8652" cy="15.1564" r="1" transform="rotate(171.619 49.8652 15.1564)" fill="#0F274D"/>
<circle cx="23.8652" cy="19.1564" r="1" transform="rotate(171.619 23.8652 19.1564)" fill="#0F274D"/>
<circle cx="77.8652" cy="19.1564" r="1" transform="rotate(171.619 77.8652 19.1564)" fill="#0F274D"/>
<circle cx="50.8652" cy="23.1564" r="1" transform="rotate(171.619 50.8652 23.1564)" fill="#0F274D"/>
<circle cx="24.8652" cy="27.1564" r="1" transform="rotate(171.619 24.8652 27.1564)" fill="#0F274D"/>
<circle cx="74.8652" cy="2.15643" r="1" transform="rotate(171.619 74.8652 2.15643)" fill="#0F274D"/>
<circle cx="48.8652" cy="6.15643" r="1" transform="rotate(171.619 48.8652 6.15643)" fill="#0F274D"/>
<circle cx="21.8652" cy="10.1564" r="1" transform="rotate(171.619 21.8652 10.1564)" fill="#0F274D"/>
<circle cx="65.8652" cy="31.1564" r="1" transform="rotate(171.619 65.8652 31.1564)" fill="#0F274D"/>
<circle cx="38.8652" cy="34.1564" r="1" transform="rotate(171.619 38.8652 34.1564)" fill="#0F274D"/>
<circle cx="12.8652" cy="38.1564" r="1" transform="rotate(171.619 12.8652 38.1564)" fill="#0F274D"/>
<circle cx="62.8652" cy="13.1564" r="1" transform="rotate(171.619 62.8652 13.1564)" fill="#0F274D"/>
<circle cx="36.8652" cy="17.1564" r="1" transform="rotate(171.619 36.8652 17.1564)" fill="#0F274D"/>
<circle cx="9.86517" cy="21.1564" r="1" transform="rotate(171.619 9.86517 21.1564)" fill="#0F274D"/>
<circle cx="64.8652" cy="21.1564" r="1" transform="rotate(171.619 64.8652 21.1564)" fill="#0F274D"/>
<circle cx="37.8652" cy="25.1564" r="1" transform="rotate(171.619 37.8652 25.1564)" fill="#0F274D"/>
<circle cx="10.8652" cy="29.1564" r="1" transform="rotate(171.619 10.8652 29.1564)" fill="#0F274D"/>
<circle cx="61.8652" cy="4.15643" r="1" transform="rotate(171.619 61.8652 4.15643)" fill="#0F274D"/>
<circle cx="34.8652" cy="8.15643" r="1" transform="rotate(171.619 34.8652 8.15643)" fill="#0F274D"/>
<circle cx="8.86517" cy="12.1564" r="1" transform="rotate(171.619 8.86517 12.1564)" fill="#0F274D"/>
<circle cx="72.8652" cy="29.1564" r="1" transform="rotate(171.619 72.8652 29.1564)" fill="#0F274D"/>
<circle cx="45.8652" cy="33.1564" r="1" transform="rotate(171.619 45.8652 33.1564)" fill="#0F274D"/>
<circle cx="19.8652" cy="37.1564" r="1" transform="rotate(171.619 19.8652 37.1564)" fill="#0F274D"/>
<circle cx="69.8652" cy="12.1564" r="1" transform="rotate(171.619 69.8652 12.1564)" fill="#0F274D"/>
<circle cx="42.8652" cy="15.1564" r="1" transform="rotate(171.619 42.8652 15.1564)" fill="#0F274D"/>
<circle cx="16.8652" cy="19.1564" r="1" transform="rotate(171.619 16.8652 19.1564)" fill="#0F274D"/>
<circle cx="70.8652" cy="21.1564" r="1" transform="rotate(171.619 70.8652 21.1564)" fill="#0F274D"/>
<circle cx="44.8652" cy="25.1564" r="1" transform="rotate(171.619 44.8652 25.1564)" fill="#0F274D"/>
<circle cx="17.8652" cy="29.1564" r="1" transform="rotate(171.619 17.8652 29.1564)" fill="#0F274D"/>
<circle cx="68.8652" cy="3.15643" r="1" transform="rotate(171.619 68.8652 3.15643)" fill="#0F274D"/>
<circle cx="41.8652" cy="7.15643" r="1" transform="rotate(171.619 41.8652 7.15643)" fill="#0F274D"/>
<circle cx="15.8652" cy="11.1564" r="1" transform="rotate(171.619 15.8652 11.1564)" fill="#0F274D"/>
<circle cx="59.8652" cy="31.1564" r="1" transform="rotate(171.619 59.8652 31.1564)" fill="#0F274D"/>
<circle cx="32.8652" cy="35.1564" r="1" transform="rotate(171.619 32.8652 35.1564)" fill="#0F274D"/>
<circle cx="5.86517" cy="39.1564" r="1" transform="rotate(171.619 5.86517 39.1564)" fill="#0F274D"/>
<circle cx="56.8652" cy="13.1564" r="1" transform="rotate(171.619 56.8652 13.1564)" fill="#0F274D"/>
<circle cx="29.8652" cy="17.1564" r="1" transform="rotate(171.619 29.8652 17.1564)" fill="#0F274D"/>
<circle cx="2.86517" cy="21.1564" r="1" transform="rotate(171.619 2.86517 21.1564)" fill="#0F274D"/>
<circle cx="57.8652" cy="23.1564" r="1" transform="rotate(171.619 57.8652 23.1564)" fill="#0F274D"/>
<circle cx="30.8652" cy="27.1564" r="1" transform="rotate(171.619 30.8652 27.1564)" fill="#0F274D"/>
<circle cx="4.86517" cy="31.1564" r="1" transform="rotate(171.619 4.86517 31.1564)" fill="#0F274D"/>
<circle cx="55.8652" cy="5.15643" r="1" transform="rotate(171.619 55.8652 5.15643)" fill="#0F274D"/>
<circle cx="28.8652" cy="9.15643" r="1" transform="rotate(171.619 28.8652 9.15643)" fill="#0F274D"/>
<circle cx="1.86517" cy="13.1564" r="1" transform="rotate(171.619 1.86517 13.1564)" fill="#0F274D"/>
</svg>
