<svg width="63" height="15" viewBox="0 0 63 15" fill="none" xmlns="http://www.w3.org/2000/svg">
<path d="M61.3033 5.44052C61.3065 4.95604 61.2153 4.47571 61.0349 4.02718C60.8545 3.57865 60.5885 3.17078 60.2522 2.82705C59.9159 2.48333 59.5159 2.21055 59.0754 2.0244C58.6348 1.83826 58.1623 1.74243 57.6851 1.74244C53.2589 1.74244 53.2589 5.97319 48.8356 5.97319C44.4124 5.97319 44.4184 1.74244 39.9951 1.74244C35.5719 1.74244 35.5689 5.97319 31.1517 5.97319C26.7344 5.97318 26.7224 1.74244 22.2991 1.74243C17.8759 1.74243 17.8849 5.97318 13.4526 5.97318C9.02031 5.97318 9.02936 1.74243 4.61816 1.74243L4.61816 9.12634C9.04142 9.12635 9.04142 13.3571 13.4647 13.3571C17.8879 13.3571 17.8849 9.12635 22.2991 9.12635C26.7133 9.12635 26.7224 13.3571 31.1517 13.3571C35.5809 13.3571 35.5749 9.12635 40.0012 9.12635C44.4274 9.12635 44.4184 13.3571 48.8416 13.3571C53.2649 13.3571 53.2649 9.12635 57.6851 9.12635C58.1613 9.12636 58.6328 9.03093 59.0726 8.84555C59.5123 8.66017 59.9117 8.38848 60.2479 8.04606C60.584 7.70364 60.8503 7.29722 61.0314 6.8501C61.2125 6.40299 61.3049 5.92397 61.3033 5.44052Z" fill="#FCF5F2" stroke="#0F274D" stroke-width="2" stroke-miterlimit="10"/>
<path d="M4.63026 9.12313C6.6352 9.12313 8.26053 7.47293 8.26053 5.4373C8.26053 3.40167 6.6352 1.75147 4.63026 1.75147C2.62532 1.75147 1 3.40167 0.999999 5.4373C0.999999 7.47293 2.62532 9.12313 4.63026 9.12313Z" fill="#A6B1E1" stroke="#0F274D" stroke-width="2" stroke-miterlimit="10"/>
</svg>
