<svg width="179" height="144" viewBox="0 0 179 144" fill="none" xmlns="http://www.w3.org/2000/svg">
<path d="M84.1261 50.7522C66.8411 48.2525 73.5906 63.9195 70.9567 63.2528C68.3228 62.5861 69.0362 63.5306 68.4874 64.0861C68.4874 65.1972 69.6398 68.2528 70.9567 68.2528C72.2737 68.2528 72.8847 69.215 72.6029 68.2528C73.7004 71.8639 73.7552 78.1239 71.7797 78.1239C69.3105 78.1239 65.3947 81.4572 65.3947 78.1239C65.3947 74.7906 59.7439 80.6039 58.8099 75.6239C56.9951 65.9469 67.6643 39.9187 84.1261 50.7522Z" fill="#A6B1E1"/>
<path d="M85.7725 52.4195C94.8265 60.7528 94.0035 74.086 93.1804 77.4194C92.3573 80.7527 84.9495 76.5863 84.9495 76.5863C87.7702 74.3284 90.711 69.9195 89.888 64.0861C89.0649 58.2528 85.7725 52.4195 85.7725 52.4195Z" fill="#A6B1E1"/>
<path d="M122.27 144C142.272 144 158.487 127.584 158.487 107.333C158.487 93.4202 150.833 81.3171 139.555 75.1043V85.0489C146.071 90.2365 150.256 98.2901 150.256 107.333C150.256 122.981 137.726 135.667 122.27 135.667C106.814 135.667 94.2851 122.981 94.2851 107.333C94.2851 104.737 94.63 102.222 95.276 99.8333H86.8772L86.0541 107.333C86.0541 127.584 102.269 144 122.27 144Z" fill="#A6B1E1"/>
<path d="M148.609 107.333C148.609 122.061 136.817 134 122.27 134C107.724 134 95.9313 122.061 95.9313 107.333C95.9313 104.813 96.2766 102.374 96.922 100.063H137.086L139.555 97.3333V87.2116C145.103 92.1005 148.609 99.3023 148.609 107.333Z" fill="#A6B1E1"/>
<path d="M11.9755 94C5.61132 94 0.452148 99.2233 0.452148 105.667C0.452148 112.11 5.61132 117.333 11.9755 117.333C12.5344 117.333 13.084 117.293 13.6217 117.215L15.2679 113.307C14.2596 113.753 13.1461 114 11.9755 114C7.42966 114 3.74453 110.269 3.74453 105.667C3.74453 101.064 7.42966 97.3333 11.9755 97.3333C12.7456 97.3333 13.491 97.4404 14.1979 97.6406V94.2167C13.4788 94.0745 12.7357 94 11.9755 94Z" fill="#A6B1E1"/>
<path d="M18.5603 105.667C18.5603 109.349 15.6122 112.333 11.9755 112.333C8.33882 112.333 5.39072 109.349 5.39072 105.667C5.39072 101.985 8.33882 99 11.9755 99C15.6122 99 18.5603 101.985 18.5603 105.667Z" fill="#A6B1E1"/>
<path d="M20.2064 105.667C20.2064 107.543 19.5939 109.275 18.5603 110.667L22.2952 110.864C23.0655 109.299 23.4988 107.534 23.4988 105.667C23.4988 103.627 22.9817 101.709 22.0729 100.041H18.0476C19.3883 101.523 20.2064 103.498 20.2064 105.667Z" fill="#A6B1E1"/>
<path d="M84.7199 24.1301C86.0141 19.24 90.9788 16.338 95.8088 17.6483C100.639 18.9586 103.505 23.985 102.211 28.8751C101.769 30.5466 100.897 31.9858 99.7494 33.1039L87.0313 32.9541C84.8444 30.7143 83.8566 27.3919 84.7199 24.1301Z" fill="#A6B1E1"/>
<path d="M21.0295 123.167C23.757 123.167 25.9681 120.928 25.9681 118.167C25.9681 115.405 23.757 113.167 21.0295 113.167C18.302 113.167 16.091 115.405 16.091 118.167C16.091 120.928 18.302 123.167 21.0295 123.167Z" fill="#A6B1E1"/>
<path fill-rule="evenodd" clip-rule="evenodd" d="M178.241 22.3333C178.241 34.2995 168.66 44 156.84 44C145.021 44 135.44 34.2995 135.44 22.3333C135.44 10.3671 145.021 0.666626 156.84 0.666626C168.66 0.666626 178.241 10.3671 178.241 22.3333ZM156.84 39C165.932 39 173.302 31.538 173.302 22.3333C173.302 13.1285 165.932 5.66663 156.84 5.66663C147.749 5.66663 140.378 13.1285 140.378 22.3333C140.378 31.538 147.749 39 156.84 39Z" fill="#A6B1E1"/>
<path d="M171.656 22.3333C171.656 30.6176 165.023 37.3333 156.84 37.3333C148.658 37.3333 142.025 30.6176 142.025 22.3333C142.025 14.049 148.658 7.33329 156.84 7.33329C165.023 7.33329 171.656 14.049 171.656 22.3333Z" fill="#A6B1E1"/>
<path d="M84.21 23.6012L84.6934 23.7291L84.21 23.6012ZM108.061 30.0717L108.545 30.1996L108.061 30.0717ZM16.6481 0.648638C16.4541 0.452173 16.1375 0.450217 15.941 0.644268C15.7446 0.83832 15.7426 1.1549 15.9367 1.35136L16.6481 0.648638ZM22.8771 7.66667L23.2329 8.01803C23.4252 7.82328 23.4252 7.51005 23.2329 7.3153L22.8771 7.66667ZM15.9367 13.982C15.7426 14.1784 15.7446 14.495 15.941 14.6891C16.1375 14.8831 16.4541 14.8812 16.6481 14.6847L15.9367 13.982ZM79.2034 119.685C79.3974 119.488 79.3955 119.172 79.199 118.978C79.0026 118.784 78.686 118.785 78.4919 118.982L79.2034 119.685ZM72.2629 126L71.9072 125.649C71.7148 125.843 71.7148 126.157 71.9072 126.351L72.2629 126ZM78.4919 133.018C78.686 133.214 79.0026 133.216 79.199 133.022C79.3955 132.828 79.3974 132.512 79.2034 132.315L78.4919 133.018ZM23.2329 0.648638C23.0388 0.452173 22.7223 0.450217 22.5258 0.644268C22.3293 0.83832 22.3274 1.1549 22.5214 1.35136L23.2329 0.648638ZM29.4619 7.66667L29.8176 8.01803C30.01 7.82328 30.01 7.51005 29.8176 7.3153L29.4619 7.66667ZM22.5214 13.982C22.3274 14.1784 22.3293 14.495 22.5258 14.6891C22.7223 14.8831 23.0388 14.8812 23.2329 14.6847L22.5214 13.982ZM72.6186 119.685C72.8127 119.488 72.8107 119.172 72.6143 118.978C72.4178 118.784 72.1012 118.785 71.9072 118.982L72.6186 119.685ZM65.6781 126L65.3224 125.649C65.13 125.843 65.13 126.157 65.3224 126.351L65.6781 126ZM71.9072 133.018C72.1012 133.214 72.4178 133.216 72.6143 133.022C72.8107 132.828 72.8127 132.512 72.6186 132.315L71.9072 133.018ZM29.8176 0.648638C29.6236 0.452173 29.307 0.450217 29.1106 0.644268C28.9141 0.83832 28.9121 1.1549 29.1062 1.35136L29.8176 0.648638ZM36.0467 7.66667L36.4024 8.01803C36.5948 7.82328 36.5948 7.51005 36.4024 7.3153L36.0467 7.66667ZM29.1062 13.982C28.9121 14.1784 28.9141 14.495 29.1106 14.6891C29.307 14.8831 29.6236 14.8812 29.8176 14.6847L29.1062 13.982ZM66.0339 119.685C66.2279 119.488 66.226 119.172 66.0295 118.978C65.833 118.784 65.5165 118.785 65.3224 118.982L66.0339 119.685ZM59.0934 126L58.7376 125.649C58.5453 125.843 58.5453 126.157 58.7376 126.351L59.0934 126ZM65.3224 133.018C65.5165 133.214 65.833 133.216 66.0295 133.022C66.226 132.828 66.2279 132.512 66.0339 132.315L65.3224 133.018ZM36.4024 0.648638C36.2084 0.452173 35.8918 0.450217 35.6953 0.644268C35.4989 0.83832 35.4969 1.1549 35.691 1.35136L36.4024 0.648638ZM42.6314 7.66667L42.9872 8.01803C43.1795 7.82328 43.1795 7.51005 42.9872 7.3153L42.6314 7.66667ZM35.691 13.982C35.4969 14.1784 35.4989 14.495 35.6953 14.6891C35.8918 14.8831 36.2084 14.8812 36.4024 14.6847L35.691 13.982ZM59.4491 119.685C59.6431 119.488 59.6412 119.172 59.4447 118.978C59.2483 118.784 58.9317 118.785 58.7376 118.982L59.4491 119.685ZM52.5086 126L52.1529 125.649C51.9605 125.843 51.9605 126.157 52.1529 126.351L52.5086 126ZM58.7376 133.018C58.9317 133.214 59.2483 133.216 59.4447 133.022C59.6412 132.828 59.6431 132.512 59.4491 132.315L58.7376 133.018ZM42.9872 0.648638C42.7931 0.452173 42.4766 0.450217 42.2801 0.644268C42.0836 0.83832 42.0817 1.1549 42.2757 1.35136L42.9872 0.648638ZM49.2162 7.66667L49.5719 8.01803C49.7643 7.82328 49.7643 7.51005 49.5719 7.3153L49.2162 7.66667ZM42.2757 13.982C42.0817 14.1784 42.0836 14.495 42.2801 14.6891C42.4766 14.8831 42.7931 14.8812 42.9872 14.6847L42.2757 13.982ZM52.8643 119.685C53.0584 119.488 53.0564 119.172 52.86 118.978C52.6635 118.784 52.3469 118.785 52.1529 118.982L52.8643 119.685ZM45.9238 126L45.5681 125.649C45.3757 125.843 45.3757 126.157 45.5681 126.351L45.9238 126ZM52.1529 133.018C52.3469 133.214 52.6635 133.216 52.86 133.022C53.0564 132.828 53.0584 132.512 52.8643 132.315L52.1529 133.018ZM74.4505 62.7523L74.522 63.2471C74.7947 63.2077 74.984 62.9552 74.9455 62.6824L74.4505 62.7523ZM75.4729 68.5856L75.9636 68.4895C75.932 68.328 75.8229 68.1925 75.672 68.127C75.5211 68.0614 75.3476 68.0744 75.208 68.1615L75.4729 68.5856ZM88.443 76.1106L88.1469 75.7077V75.7077L88.443 76.1106ZM86.0103 80.2523L85.6238 79.935L86.0103 80.2523ZM59.233 86.6211C59.0686 86.843 59.1152 87.1562 59.3371 87.3205C59.559 87.4849 59.8721 87.4383 60.0365 87.2164L59.233 86.6211ZM111.771 119.268C111.495 119.268 111.271 119.492 111.271 119.768C111.271 120.044 111.495 120.268 111.771 120.268V119.268ZM120.29 124.333C120.29 124.609 120.514 124.833 120.79 124.833C121.066 124.833 121.29 124.609 121.29 124.333H120.29ZM121.29 119.768C121.29 119.492 121.066 119.268 120.79 119.268C120.514 119.268 120.29 119.492 120.29 119.768H121.29ZM125.799 119.768C125.799 119.492 125.575 119.268 125.299 119.268C125.023 119.268 124.799 119.492 124.799 119.768H125.799ZM94.8102 87.146L94.3888 87.4152L94.8102 87.146ZM84.6934 23.7291C86.3885 17.324 92.8865 13.5321 99.2003 15.2449L99.4621 14.2798C92.6032 12.4191 85.5611 16.5418 83.7266 23.4733L84.6934 23.7291ZM99.2003 15.2449C105.517 16.9584 109.274 23.5364 107.578 29.9437L108.545 30.1996C110.379 23.2703 106.319 16.1399 99.4621 14.2798L99.2003 15.2449ZM86.1091 33.2275C84.4143 30.4977 83.804 27.0893 84.6934 23.7291L83.7266 23.4733C82.7642 27.1097 83.4252 30.8004 85.2596 33.7549L86.1091 33.2275ZM107.578 29.9437C107.219 31.2999 106.645 32.5382 105.904 33.6317L106.732 34.1929C107.535 33.0071 108.157 31.6658 108.545 30.1996L107.578 29.9437ZM15.9367 1.35136L22.5214 8.01803L23.2329 7.3153L16.6481 0.648638L15.9367 1.35136ZM22.5214 7.3153L15.9367 13.982L16.6481 14.6847L23.2329 8.01803L22.5214 7.3153ZM78.4919 118.982L71.9072 125.649L72.6186 126.351L79.2034 119.685L78.4919 118.982ZM71.9072 126.351L78.4919 133.018L79.2034 132.315L72.6186 125.649L71.9072 126.351ZM22.5214 1.35136L29.1062 8.01803L29.8176 7.3153L23.2329 0.648638L22.5214 1.35136ZM29.1062 7.3153L22.5214 13.982L23.2329 14.6847L29.8176 8.01803L29.1062 7.3153ZM71.9072 118.982L65.3224 125.649L66.0339 126.351L72.6186 119.685L71.9072 118.982ZM65.3224 126.351L71.9072 133.018L72.6186 132.315L66.0339 125.649L65.3224 126.351ZM29.1062 1.35136L35.691 8.01803L36.4024 7.3153L29.8176 0.648638L29.1062 1.35136ZM35.691 7.3153L29.1062 13.982L29.8176 14.6847L36.4024 8.01803L35.691 7.3153ZM65.3224 118.982L58.7376 125.649L59.4491 126.351L66.0339 119.685L65.3224 118.982ZM58.7376 126.351L65.3224 133.018L66.0339 132.315L59.4491 125.649L58.7376 126.351ZM35.691 1.35136L42.2757 8.01803L42.9872 7.3153L36.4024 0.648638L35.691 1.35136ZM42.2757 7.3153L35.691 13.982L36.4024 14.6847L42.9872 8.01803L42.2757 7.3153ZM58.7376 118.982L52.1529 125.649L52.8643 126.351L59.4491 119.685L58.7376 118.982ZM52.1529 126.351L58.7376 133.018L59.4491 132.315L52.8643 125.649L52.1529 126.351ZM42.2757 1.35136L48.8605 8.01803L49.5719 7.3153L42.9872 0.648638L42.2757 1.35136ZM48.8605 7.3153L42.2757 13.982L42.9872 14.6847L49.5719 8.01803L48.8605 7.3153ZM52.1529 118.982L45.5681 125.649L46.2796 126.351L52.8643 119.685L52.1529 118.982ZM45.5681 126.351L52.1529 133.018L52.8643 132.315L46.2796 125.649L45.5681 126.351ZM16.3337 43.5854V96.9188H17.3337V43.5854H16.3337ZM142.444 96.9188V43.5854H141.444V96.9188H142.444ZM65.2227 44.7521H24.2416V45.7521H65.2227V44.7521ZM20.4492 48.5854V51.0854H21.4492V48.5854H20.4492ZM20.4492 51.0854V89.4188H21.4492V51.0854H20.4492ZM20.4492 89.4188V91.9188H21.4492V89.4188H20.4492ZM24.2416 95.7521H65.4153V94.7521H24.2416V95.7521ZM91.3016 95.7521H133.713V94.7521H91.3016V95.7521ZM137.506 91.9188V89.4188H136.506V91.9188H137.506ZM137.506 89.4188V51.0854H136.506V89.4188H137.506ZM137.506 51.0854V48.5854H136.506V51.0854H137.506ZM133.713 44.7521H91.9091V45.7521H133.713V44.7521ZM20.9492 89.9188H60.1896V88.9188H20.9492V89.9188ZM98.3344 89.9188H137.006V88.9188H98.3344V89.9188ZM20.9492 51.5854H59.8671V50.5854H20.9492V51.5854ZM97.2647 51.5854H137.006V50.5854H97.2647V51.5854ZM20.4492 91.9188C20.4492 94.03 22.1413 95.7521 24.2416 95.7521V94.7521C22.7052 94.7521 21.4492 93.4894 21.4492 91.9188H20.4492ZM24.2416 44.7521C22.1413 44.7521 20.4492 46.4742 20.4492 48.5854H21.4492C21.4492 47.0148 22.7052 45.7521 24.2416 45.7521V44.7521ZM137.506 48.5854C137.506 46.4742 135.814 44.7521 133.713 44.7521V45.7521C135.25 45.7521 136.506 47.0148 136.506 48.5854H137.506ZM138.652 40.7521C140.188 40.7521 141.444 42.0148 141.444 43.5854H142.444C142.444 41.4742 140.752 39.7521 138.652 39.7521V40.7521ZM138.652 100.752C140.752 100.752 142.444 99.03 142.444 96.9188H141.444C141.444 98.4894 140.188 99.7521 138.652 99.7521V100.752ZM133.713 95.7521C135.814 95.7521 137.506 94.03 137.506 91.9188H136.506C136.506 93.4894 135.25 94.7521 133.713 94.7521V95.7521ZM16.3337 96.9188C16.3337 99.03 18.0258 100.752 20.1261 100.752V99.7521C18.5897 99.7521 17.3337 98.4894 17.3337 96.9188H16.3337ZM17.3337 43.5854C17.3337 42.0148 18.5897 40.7521 20.1261 40.7521V39.7521C18.0258 39.7521 16.3337 41.4742 16.3337 43.5854H17.3337ZM138.652 39.7521H20.1261V40.7521H138.652V39.7521ZM12.5 36.8333V90.1667H13.5V36.8333H12.5ZM134.818 34C136.355 34 137.611 35.2627 137.611 36.8333H138.611C138.611 34.7221 136.918 33 134.818 33V34ZM12.5 90.1667C12.5 92.2779 14.1921 94 16.2924 94V93C14.756 93 13.5 91.7373 13.5 90.1667H12.5ZM13.5 36.8333C13.5 35.2627 14.756 34 16.2924 34V33C14.1921 33 12.5 34.7221 12.5 36.8333H13.5ZM134.818 33H16.2924V34H134.818V33ZM137.611 36.8333V40.1667H138.611V36.8333H137.611ZM101.936 70.2521C101.936 87.1203 91.6515 99.7521 78.8477 99.7521V100.752C92.4096 100.752 102.936 87.4414 102.936 70.2521H101.936ZM78.8477 99.7521C66.0305 99.7521 55.1962 87.1038 55.1962 70.2521H54.1962C54.1962 87.458 65.299 100.752 78.8477 100.752V99.7521ZM55.1962 70.2521C55.1962 53.3922 65.7554 40.7521 78.5659 40.7521V39.7521C65.0106 39.7521 54.1962 53.0544 54.1962 70.2521H55.1962ZM78.5659 40.7521C91.3765 40.7521 101.936 53.3922 101.936 70.2521H102.936C102.936 53.0544 92.1212 39.7521 78.5659 39.7521V40.7521ZM61.0994 40.532C64.9932 36.894 69.7023 34 74.7322 34V33C69.325 33 64.3792 36.0991 60.4167 39.8013L61.0994 40.532ZM74.7322 34C79.7621 34 84.4712 36.894 88.365 40.532L89.0477 39.8013C85.0852 36.0991 80.1395 33 74.7322 33V34ZM74.3789 62.2574C72.8396 62.48 71.845 63.1126 71.3632 64.014C70.8886 64.9022 70.9801 65.9262 71.3379 66.7965C71.6959 67.6676 72.3477 68.4588 73.1194 68.9229C73.897 69.3907 74.8634 69.5557 75.7378 69.0097L75.208 68.1615C74.748 68.4488 74.1993 68.4055 73.6348 68.066C73.0643 67.7228 72.547 67.1078 72.2628 66.4164C71.9782 65.7241 71.9545 65.0294 72.2452 64.4853C72.5289 63.9544 73.1805 63.4412 74.522 63.2471L74.3789 62.2574ZM91.445 60.2229C92.3599 64.7026 92.3675 67.9589 91.737 70.3956C91.1112 72.8138 89.849 74.4567 88.1469 75.7077L88.7391 76.5135C90.6103 75.1383 92.0168 73.306 92.7051 70.6461C93.3886 68.0049 93.3555 64.5804 92.4248 60.0228L91.445 60.2229ZM88.1469 75.7077C86.0049 77.282 83.4385 77.8286 81.2069 76.8726C78.979 75.9181 76.9248 73.3967 75.9636 68.4895L74.9822 68.6817C75.9787 73.7686 78.1668 76.6581 80.8131 77.7918C83.4556 78.9239 86.3954 78.236 88.7391 76.5135L88.1469 75.7077ZM83.5044 81.4189C82.2591 81.4189 80.1541 81.4167 78.4429 81.0155C77.5833 80.8139 76.8871 80.5253 76.4484 80.1379C76.0421 79.7791 75.8426 79.3284 75.9644 78.6776L74.9814 78.4936C74.7913 79.5095 75.1312 80.3088 75.7865 80.8875C76.4094 81.4376 77.297 81.7739 78.2146 81.9891C80.0577 82.4212 82.2804 82.4189 83.5044 82.4189V81.4189ZM87.9828 75.915C87.5215 77.0001 86.6399 78.6975 85.6238 79.935L86.3967 80.5695C87.4955 79.2312 88.4214 77.4394 88.9031 76.3062L87.9828 75.915ZM85.6238 79.935C85.2462 80.395 84.8632 80.775 84.4908 81.0365C84.116 81.2997 83.7864 81.4189 83.5044 81.4189V82.4189C84.0662 82.4189 84.5953 82.185 85.0654 81.8549C85.5379 81.5231 85.986 81.0698 86.3967 80.5695L85.6238 79.935ZM85.7837 80.698C88.0595 81.8551 92.2912 84.1314 94.3888 87.4152L95.2316 86.8768C92.9665 83.331 88.4828 80.9486 86.2369 79.8066L85.7837 80.698ZM75.3843 78.0935C66.0148 79.7809 61.2896 83.8448 59.233 86.6211L60.0365 87.2164C61.9307 84.6594 66.4242 80.7233 75.5615 79.0777L75.3843 78.0935ZM80.2837 51.5805C83.149 51.166 85.4597 51.1942 87.2776 52.3271C89.0846 53.4532 90.5327 55.7558 91.445 60.2229L92.4248 60.0228C91.4915 55.4527 89.959 52.8199 87.8065 51.4784C85.6648 50.1437 83.0369 50.1718 80.1405 50.5908L80.2837 51.5805ZM80.1405 50.5908C78.6306 50.8092 77.4138 51.3054 76.4593 52.0444C75.504 52.784 74.8367 53.7473 74.397 54.8602C73.5252 57.0668 73.5404 59.8812 73.9554 62.8221L74.9455 62.6824C74.5374 59.7898 74.5527 57.1876 75.327 55.2276C75.7104 54.2572 76.2778 53.4496 77.0715 52.8351C77.8661 52.2199 78.9129 51.7787 80.2837 51.5805L80.1405 50.5908ZM74.9793 68.6655C75.6854 73.0296 76.3338 75.4263 75.0162 78.382L75.9296 78.7892C77.3982 75.4947 76.65 72.7309 75.9665 68.5058L74.9793 68.6655ZM111.771 120.268H117.784V119.268H111.771V120.268ZM117.784 120.268H128.305V119.268H117.784V120.268ZM134.817 113.681V112.159H133.817V113.681H134.817ZM117.284 106.072V119.768H118.284V106.072H117.284ZM128.305 105.572H117.784V106.572H128.305V105.572ZM134.817 112.159C134.817 108.527 131.907 105.572 128.305 105.572V106.572C131.343 106.572 133.817 109.068 133.817 112.159H134.817ZM128.305 120.268C131.907 120.268 134.817 117.313 134.817 113.681H133.817C133.817 116.773 131.343 119.268 128.305 119.268V120.268ZM125.299 105.572H117.784V106.572H125.299V105.572ZM121.29 124.333V119.768H120.29V124.333H121.29ZM125.799 124.333V119.768H124.799V124.333H125.799ZM30.6081 118.5C30.6081 122.372 27.5095 125.5 23.7002 125.5V126.5C28.0734 126.5 31.6081 122.912 31.6081 118.5H30.6081ZM23.7002 125.5C19.8909 125.5 16.7924 122.372 16.7924 118.5H15.7924C15.7924 122.912 19.327 126.5 23.7002 126.5V125.5ZM16.7924 118.5C16.7924 114.628 19.8909 111.5 23.7002 111.5V110.5C19.327 110.5 15.7924 114.088 15.7924 118.5H16.7924ZM23.7002 111.5C27.5095 111.5 30.6081 114.628 30.6081 118.5H31.6081C31.6081 114.088 28.0734 110.5 23.7002 110.5V111.5ZM117.284 100.252V106.072H118.284V100.252H117.284ZM20.1261 100.752H117.784V99.7521H20.1261V100.752ZM117.784 100.752H131.305V99.7521H117.784V100.752ZM131.305 100.752H138.652V99.7521H131.305V100.752ZM130.806 100.231C130.679 103.208 128.257 105.572 125.299 105.572V106.572C128.806 106.572 131.656 103.772 131.805 100.273L130.806 100.231ZM98.3344 88.9188C97.1055 88.9188 95.9838 88.0544 95.2316 86.8768L94.3888 87.4152C95.2332 88.737 96.6233 89.9188 98.3344 89.9188V88.9188Z" fill="#0F274D"/>
</svg>
