<svg width="159" height="161" viewBox="0 0 159 161" fill="none" xmlns="http://www.w3.org/2000/svg">
<path d="M90.5479 25.6667C90.5479 24.7462 91.2849 24 92.1941 24H103.717C104.627 24 105.364 24.7462 105.364 25.6667V51.5002C105.364 52.4207 104.627 53.1669 103.717 53.1669H92.1941C91.2849 53.1669 90.5479 52.4207 90.5479 51.5002V25.6667Z" fill="#A6B1E1"/>
<path d="M141.58 68.1667C142.489 68.1667 143.226 68.9129 143.226 69.8333V153.167H21.4079V88.1667H27.9926V131.5C27.9926 133.341 29.4667 134.833 31.285 134.833H133.349C135.167 134.833 136.641 133.341 136.641 131.5V79.8333C136.641 77.9924 135.167 76.5 133.349 76.5H70.7936V68.1667H141.58Z" fill="#A6B1E1"/>
<path d="M72.4398 116.749V91.2511C72.4398 89.926 73.8933 89.1308 74.9882 89.857L94.2079 102.606C95.1999 103.264 95.1999 104.736 94.2079 105.394L74.9882 118.143C73.8933 118.869 72.4398 118.074 72.4398 116.749Z" fill="#A6B1E1"/>
<path d="M14 56.5C14 54.659 15.4741 53.1667 17.2924 53.1667H60.0934C61.9117 53.1667 63.3857 54.659 63.3857 56.5V74.8333C63.3857 76.6743 61.9117 78.1667 60.0934 78.1667H17.2924C15.4741 78.1667 14 76.6743 14 74.8333V56.5Z" fill="#A6B1E1"/>
<path d="M135.888 39.25C135.612 39.25 135.388 39.4739 135.388 39.75C135.388 40.0261 135.612 40.25 135.888 40.25V39.25ZM152.35 40.25C152.626 40.25 152.85 40.0261 152.85 39.75C152.85 39.4739 152.626 39.25 152.35 39.25V40.25ZM135.684 32.6266C135.432 32.739 135.319 33.0345 135.431 33.2868C135.544 33.539 135.839 33.6524 136.091 33.5401L135.684 32.6266ZM146.38 28.9567C146.632 28.8444 146.746 28.5488 146.633 28.2965C146.521 28.0443 146.225 27.9309 145.973 28.0433L146.38 28.9567ZM136.091 45.9599C135.839 45.8476 135.544 45.961 135.431 46.2132C135.319 46.4654 135.432 46.761 135.684 46.8734L136.091 45.9599ZM145.973 51.4567C146.225 51.5691 146.521 51.4557 146.633 51.2035C146.746 50.9512 146.632 50.6556 146.38 50.5433L145.973 51.4567ZM123.793 10.2207L123.516 9.80421L123.793 10.2207ZM104.039 23.3457L104.315 23.7621L104.039 23.3457ZM104.039 56.1536L103.762 56.5701L104.039 56.1536ZM123.793 69.2786L124.07 68.8622L123.793 69.2786ZM12.012 14.6667C11.7359 14.6667 11.512 14.8905 11.512 15.1667C11.512 15.4428 11.7359 15.6667 12.012 15.6667V14.6667ZM59.7516 15.6667C60.0277 15.6667 60.2516 15.4428 60.2516 15.1667C60.2516 14.8905 60.0277 14.6667 59.7516 14.6667V15.6667ZM12.012 21.3333C11.7359 21.3333 11.512 21.5572 11.512 21.8333C11.512 22.1095 11.7359 22.3333 12.012 22.3333V21.3333ZM59.7516 22.3333C60.0277 22.3333 60.2516 22.1095 60.2516 21.8333C60.2516 21.5572 60.0277 21.3333 59.7516 21.3333V22.3333ZM12.012 28C11.7359 28 11.512 28.2239 11.512 28.5C11.512 28.7761 11.7359 29 12.012 29V28ZM59.7516 29C60.0277 29 60.2516 28.7761 60.2516 28.5C60.2516 28.2239 60.0277 28 59.7516 28V29ZM12.012 34.6667C11.7359 34.6667 11.512 34.8905 11.512 35.1667C11.512 35.4428 11.7359 35.6667 12.012 35.6667V34.6667ZM59.7516 35.6667C60.0277 35.6667 60.2516 35.4428 60.2516 35.1667C60.2516 34.8905 60.0277 34.6667 59.7516 34.6667V35.6667ZM12.012 41.3333C11.7359 41.3333 11.512 41.5572 11.512 41.8333C11.512 42.1095 11.7359 42.3333 12.012 42.3333V41.3333ZM59.7516 42.3333C60.0277 42.3333 60.2516 42.1095 60.2516 41.8333C60.2516 41.5572 60.0277 41.3333 59.7516 41.3333V42.3333ZM2.13485 8.83333C1.85871 8.83333 1.63485 9.05719 1.63485 9.33333C1.63485 9.60948 1.85871 9.83333 2.13485 9.83333V8.83333ZM7.07343 9.83333C7.34957 9.83333 7.57343 9.60948 7.57343 9.33333C7.57343 9.05719 7.34957 8.83333 7.07343 8.83333V9.83333ZM2.13485 18.8333C1.85871 18.8333 1.63485 19.0572 1.63485 19.3333C1.63485 19.6095 1.85871 19.8333 2.13485 19.8333V18.8333ZM7.07343 19.8333C7.34957 19.8333 7.57343 19.6095 7.57343 19.3333C7.57343 19.0572 7.34957 18.8333 7.07343 18.8333V19.8333ZM2.13485 28.8333C1.85871 28.8333 1.63485 29.0572 1.63485 29.3333C1.63485 29.6095 1.85871 29.8333 2.13485 29.8333V28.8333ZM7.07343 29.8333C7.34957 29.8333 7.57343 29.6095 7.57343 29.3333C7.57343 29.0572 7.34957 28.8333 7.07343 28.8333V29.8333ZM2.13485 38.8333C1.85871 38.8333 1.63485 39.0572 1.63485 39.3333C1.63485 39.6095 1.85871 39.8333 2.13485 39.8333V38.8333ZM7.07343 39.8333C7.34957 39.8333 7.57343 39.6095 7.57343 39.3333C7.57343 39.0572 7.34957 38.8333 7.07343 38.8333V39.8333ZM2.13485 48.8333C1.85871 48.8333 1.63485 49.0572 1.63485 49.3333C1.63485 49.6095 1.85871 49.8333 2.13485 49.8333V48.8333ZM7.07343 49.8333C7.34957 49.8333 7.57343 49.6095 7.57343 49.3333C7.57343 49.0572 7.34957 48.8333 7.07343 48.8333V49.8333ZM2.13485 58.8333C1.85871 58.8333 1.63485 59.0572 1.63485 59.3333C1.63485 59.6095 1.85871 59.8333 2.13485 59.8333V58.8333ZM7.07343 59.8333C7.34957 59.8333 7.57343 59.6095 7.57343 59.3333C7.57343 59.0572 7.34957 58.8333 7.07343 58.8333V59.8333ZM2.13485 68.8333C1.85871 68.8333 1.63485 69.0572 1.63485 69.3333C1.63485 69.6095 1.85871 69.8333 2.13485 69.8333V68.8333ZM7.07343 69.8333C7.34957 69.8333 7.57343 69.6095 7.57343 69.3333C7.57343 69.0572 7.34957 68.8333 7.07343 68.8333V69.8333ZM2.13485 78.8333C1.85871 78.8333 1.63485 79.0572 1.63485 79.3333C1.63485 79.6095 1.85871 79.8333 2.13485 79.8333V78.8333ZM7.07343 79.8333C7.34957 79.8333 7.57343 79.6095 7.57343 79.3333C7.57343 79.0572 7.34957 78.8333 7.07343 78.8333V79.8333ZM129.316 63C129.04 63 128.816 63.2239 128.816 63.5C128.816 63.7761 129.04 64 129.316 64V63ZM135.888 40.25H152.35V39.25H135.888V40.25ZM136.091 33.5401L146.38 28.9567L145.973 28.0433L135.684 32.6266L136.091 33.5401ZM135.684 46.8734L145.973 51.4567L146.38 50.5433L136.091 45.9599L135.684 46.8734ZM146.329 66.8333V154.404H147.329V66.8333H146.329ZM146.829 153.904H12.012V154.904H146.829V153.904ZM146.829 154.904H156.792V153.904H146.829V154.904ZM157.115 155.237V156.833H158.115V155.237H157.115ZM154.322 159.667H4.51895V160.667H154.322V159.667ZM1.72656 156.833V155.237H0.726562V156.833H1.72656ZM2.04966 154.904H12.012V153.904H2.04966V154.904ZM12.512 154.404V89.3333H11.512V154.404H12.512ZM1.72656 155.237C1.72656 155.047 1.87703 154.904 2.04966 154.904V153.904C1.31312 153.904 0.726562 154.507 0.726562 155.237H1.72656ZM4.51895 159.667C2.98257 159.667 1.72656 158.404 1.72656 156.833H0.726562C0.726562 158.945 2.41867 160.667 4.51895 160.667V159.667ZM156.792 154.904C156.964 154.904 157.115 155.047 157.115 155.237H158.115C158.115 154.507 157.528 153.904 156.792 153.904V154.904ZM157.115 156.833C157.115 158.404 155.859 159.667 154.322 159.667V160.667C156.423 160.667 158.115 158.945 158.115 156.833H157.115ZM147.329 66.8333C147.329 64.7221 145.637 63 143.537 63V64C145.073 64 146.329 65.2627 146.329 66.8333H147.329ZM123.516 9.80421L103.762 22.9292L104.315 23.7621L124.07 10.6371L123.516 9.80421ZM103.762 22.9292C102.694 23.639 102.053 24.8437 102.053 26.1325H103.053C103.053 25.1751 103.529 24.2847 104.315 23.7621L103.762 22.9292ZM102.053 26.1325V53.3668H103.053V26.1325H102.053ZM102.053 53.3668C102.053 54.6556 102.694 55.8603 103.762 56.5701L104.315 55.7372C103.529 55.2146 103.053 54.3242 103.053 53.3668H102.053ZM123.516 69.6951C126.047 71.3768 129.392 69.5308 129.392 66.4918H128.392C128.392 68.7555 125.917 70.0898 124.07 68.8622L123.516 69.6951ZM129.392 13.0075C129.392 9.96845 126.047 8.12245 123.516 9.80421L124.07 10.6371C125.917 9.40948 128.392 10.7437 128.392 13.0075H129.392ZM7.07344 1.5H64.6901V0.5H7.07344V1.5ZM67.4825 4.33333V86H68.4825V4.33333H67.4825ZM64.6901 88.8333H7.07344V89.8333H64.6901V88.8333ZM4.28105 86V4.33333H3.28105V86H4.28105ZM12.012 15.6667H59.7516V14.6667H12.012V15.6667ZM12.012 22.3333H59.7516V21.3333H12.012V22.3333ZM12.012 29H59.7516V28H12.012V29ZM12.012 35.6667H59.7516V34.6667H12.012V35.6667ZM12.012 42.3333H59.7516V41.3333H12.012V42.3333ZM7.07344 88.8333C5.53706 88.8333 4.28105 87.5706 4.28105 86H3.28105C3.28105 88.1112 4.97315 89.8333 7.07344 89.8333V88.8333ZM67.4825 86C67.4825 87.5706 66.2265 88.8333 64.6901 88.8333V89.8333C66.7904 89.8333 68.4825 88.1112 68.4825 86H67.4825ZM64.6901 1.5C66.2265 1.5 67.4825 2.76268 67.4825 4.33333H68.4825C68.4825 2.22209 66.7904 0.5 64.6901 0.5V1.5ZM7.07344 0.5C4.97315 0.5 3.28105 2.22208 3.28105 4.33333H4.28105C4.28105 2.76268 5.53705 1.5 7.07344 1.5V0.5ZM2.13485 9.83333H7.07343V8.83333H2.13485V9.83333ZM2.13485 19.8333H7.07343V18.8333H2.13485V19.8333ZM2.13485 29.8333H7.07343V28.8333H2.13485V29.8333ZM2.13485 39.8333H7.07343V38.8333H2.13485V39.8333ZM2.13485 49.8333H7.07343V48.8333H2.13485V49.8333ZM2.13485 59.8333H7.07343V58.8333H2.13485V59.8333ZM2.13485 69.8333H7.07343V68.8333H2.13485V69.8333ZM2.13485 79.8333H7.07343V78.8333H2.13485V79.8333ZM129.392 66.4918V13.0075H128.392V66.4918H129.392ZM103.762 56.5701L114.819 63.9165L115.372 63.0835L104.315 55.7372L103.762 56.5701ZM114.819 63.9165L123.516 69.6951L124.07 68.8622L115.372 63.0835L114.819 63.9165ZM67.9825 64H115.096V63H67.9825V64ZM129.316 64H143.537V63H129.316V64Z" fill="#0F274D"/>
</svg>
