<svg width="159" height="160" viewBox="0 0 159 160" fill="none" xmlns="http://www.w3.org/2000/svg">
<path d="M133.879 16.8337C126.94 14.8641 126.104 12.5112 124.311 8.43787C123.513 12.9139 123.035 16.8337 119.208 16.8337C119.208 16.8337 119.208 4.56287 131.328 4.56287C143.448 4.56287 143.448 17.4795 143.448 17.4795C139.131 16.9177 136.585 15.2182 133.879 12.3129V16.8337Z" fill="#A6B1E1"/>
<path d="M125.854 91.8334L126.432 109.958L120.876 106.208L119.681 104.958C122.215 102.971 122.91 101.253 122.768 99.3334C126.472 101.208 126.703 92.4709 124.002 93.0834V88.7084L118.447 82.4584L107.952 83.7084L104.866 88.7084L104.248 93.0834L103.014 93.7084C102.35 97.5676 102.607 99.093 105.483 99.3334C105.741 101.441 106.842 102.547 108.569 104.333C107.868 106.633 106.009 107.769 102.396 109.333V91.8334C102.396 91.8334 101.779 79.9584 114.125 79.9584C126.471 79.9584 125.854 91.8334 125.854 91.8334Z" fill="#A6B1E1"/>
<path d="M125.854 91.8334C121.676 91.2898 120.298 87.4586 120.298 87.4586C115.628 89.595 113.229 89.2789 109.187 86.8336C109.187 86.8336 104.994 91.2489 103.631 91.8336C103.631 91.8336 101.779 79.9584 114.125 79.9584C126.471 79.9584 125.854 91.8334 125.854 91.8334Z" fill="#A6B1E1"/>
<path d="M125.854 91.8334L126.432 109.958L120.876 106.208L119.681 104.958C122.215 102.971 122.91 101.253 122.768 99.3334C126.472 101.208 126.703 92.4709 124.002 93.0834V88.7084L118.447 82.4584L107.952 83.7084L104.866 88.7084L104.248 93.0834L103.014 93.7084C102.35 97.5676 102.607 99.093 105.483 99.3334C105.741 101.441 106.842 102.547 108.569 104.333C107.868 106.633 106.009 107.769 102.396 109.333V91.8334C102.396 91.8334 101.779 79.9584 114.125 79.9584M125.854 91.8334C125.854 91.8334 126.471 79.9584 114.125 79.9584M125.854 91.8334C121.676 91.2898 120.298 87.4586 120.298 87.4586C115.628 89.595 113.229 89.2789 109.187 86.8336C109.187 86.8336 104.994 91.2489 103.631 91.8336C103.631 91.8336 101.779 79.9584 114.125 79.9584M133.879 16.8337C126.94 14.8641 126.104 12.5112 124.311 8.43787C123.513 12.9139 123.035 16.8337 119.208 16.8337C119.208 16.8337 119.208 4.56287 131.328 4.56287C143.448 4.56287 143.448 17.4795 143.448 17.4795C139.131 16.9177 136.585 15.2182 133.879 12.3129V16.8337Z" stroke="#A6B1E1" stroke-linecap="round" stroke-linejoin="round"/>
<path d="M142.934 18.2499V16.9583C142.934 10.5379 139.106 5.33325 131.451 5.33325C123.797 5.33325 119.969 10.5379 119.969 16.9583V19.5416" stroke="#A6B1E1"/>
<path d="M143.757 21.8746C143.757 28.2949 140.329 33.4996 136.102 33.4996" stroke="#A6B1E1"/>
<path d="M139.62 25.4683V24.9683C139.4 24.9683 139.205 25.1121 139.141 25.3226L139.62 25.4683ZM140.456 19.2927L139.961 19.2217C139.94 19.3652 139.983 19.5106 140.078 19.6202C140.173 19.7298 140.311 19.7927 140.456 19.7927V19.2927ZM122.478 25.4683L122.957 25.3226C122.893 25.1121 122.698 24.9683 122.478 24.9683V25.4683ZM121.642 19.2927V19.7927C121.787 19.7927 121.925 19.7298 122.02 19.6202C122.115 19.5106 122.158 19.3652 122.137 19.2217L121.642 19.2927ZM149.47 39.8244L149.747 39.4084C149.735 39.4005 149.723 39.3932 149.711 39.3863L149.47 39.8244ZM150.324 42.9792C150.324 43.2553 150.548 43.4792 150.824 43.4792C151.1 43.4792 151.324 43.2553 151.324 42.9792H150.324ZM136.86 30.2111C136.783 29.9457 136.506 29.7926 136.241 29.8691C135.976 29.9455 135.823 30.2226 135.899 30.488L136.86 30.2111ZM112.628 39.8244L112.387 39.3863C112.375 39.3932 112.363 39.4005 112.351 39.4084L112.628 39.8244ZM110.774 42.9792C110.774 43.2553 110.998 43.4792 111.274 43.4792C111.55 43.4792 111.774 43.2553 111.774 42.9792H110.774ZM141.122 17.1631C141.131 16.8871 140.915 16.6557 140.639 16.6461C140.364 16.6366 140.132 16.8526 140.123 17.1286L141.122 17.1631ZM121.976 17.1286C121.966 16.8526 121.735 16.6366 121.459 16.6461C121.183 16.6557 120.967 16.8871 120.976 17.1631L121.976 17.1286ZM148.503 64.7516C148.763 64.6584 148.898 64.3721 148.805 64.1122C148.712 63.8522 148.425 63.717 148.165 63.8102L148.503 64.7516ZM140.828 66.9715L140.659 66.5009L140.828 66.9715ZM138.701 64.9262L139.18 65.0669V65.0669L138.701 64.9262ZM138.734 64.8105L138.255 64.6698V64.6698L138.734 64.8105ZM136.607 62.7652L136.438 62.2945L136.607 62.7652ZM128.932 64.9851C128.672 65.0783 128.537 65.3646 128.63 65.6245C128.723 65.8845 129.01 66.0197 129.27 65.9265L128.932 64.9851ZM109.032 136.766C108.78 136.653 108.484 136.764 108.37 137.016C108.256 137.267 108.368 137.563 108.619 137.677L109.032 136.766ZM113.323 139.259L113.116 139.714L113.323 139.259ZM114.597 137.71L115.084 137.597L114.597 137.71ZM114.577 137.623L114.09 137.736L114.577 137.623ZM115.852 136.075L115.645 136.53L115.852 136.075ZM120.143 138.567C120.394 138.681 120.69 138.569 120.804 138.318C120.918 138.066 120.807 137.77 120.555 137.656L120.143 138.567ZM62.0391 27.3096C62.1911 27.0791 62.1274 26.7689 61.8969 26.6169C61.6664 26.4649 61.3563 26.5286 61.2042 26.7591L62.0391 27.3096ZM58.8862 31.1827L58.4688 30.9074L58.8862 31.1827ZM56.9929 30.5593L57.4664 30.3987L57.4664 30.3987L56.9929 30.5593ZM56.9641 30.4742L56.4906 30.6348V30.6348L56.9641 30.4742ZM55.0708 29.8508L55.4882 30.126L55.0708 29.8508ZM51.9179 33.7239C51.7659 33.9544 51.8296 34.2645 52.0601 34.4165C52.2906 34.5686 52.6007 34.5049 52.7528 34.2744L51.9179 33.7239ZM68.1588 94.0124C67.8837 93.9878 67.6408 94.1908 67.6162 94.4659C67.5917 94.7409 67.7947 94.9838 68.0697 95.0084L68.1588 94.0124ZM73.0218 94.9491L72.9772 95.4471L73.0218 94.9491ZM73.3902 96.9299L73.7617 97.2646L73.3902 96.9299ZM73.3303 96.9964L72.9588 96.6618L73.3303 96.9964ZM73.6988 98.9773L73.7433 98.4792L73.6988 98.9773ZM78.5617 99.914C78.8368 99.9386 79.0797 99.7355 79.1043 99.4605C79.1289 99.1855 78.9258 98.9426 78.6508 98.918L78.5617 99.914ZM15.3371 113.982C15.5373 113.792 15.5454 113.475 15.3552 113.275C15.1649 113.075 14.8485 113.067 14.6483 113.257L15.3371 113.982ZM41.8098 124.308C41.7957 124.032 41.5607 123.82 41.2849 123.834C41.0091 123.848 40.797 124.083 40.8111 124.359L41.8098 124.308ZM77.3799 108.5V108V108.5ZM45.4472 108.5V109V108.5ZM79.1941 110.337H78.6941H79.1941ZM79.1941 121H79.6941H79.1941ZM75.9017 124.333V123.833V124.333ZM42.1548 124.333V124.833V124.333ZM1 82.6666V82.1666C0.723858 82.1666 0.5 82.3905 0.5 82.6666H1ZM16.8249 82.6666L17.3218 82.6108C17.2933 82.3579 17.0794 82.1666 16.8249 82.1666V82.6666ZM122.058 99.2623V98.7623C121.838 98.7623 121.644 98.9061 121.58 99.1166L122.058 99.2623ZM122.867 93.2859L122.372 93.2148C122.352 93.3584 122.394 93.5038 122.489 93.6134C122.584 93.723 122.722 93.7859 122.867 93.7859V93.2859ZM105.47 99.2623L105.948 99.1166C105.884 98.9061 105.69 98.7623 105.47 98.7623V99.2623ZM104.661 93.2859V93.7859C104.806 93.7859 104.944 93.723 105.038 93.6134C105.133 93.5038 105.176 93.3584 105.156 93.2148L104.661 93.2859ZM131.591 113.155L131.868 112.739C131.856 112.731 131.844 112.724 131.832 112.717L131.591 113.155ZM132.401 115.715C132.401 115.991 132.625 116.215 132.901 116.215C133.177 116.215 133.401 115.991 133.401 115.715H132.401ZM119.403 103.848C119.326 103.582 119.049 103.429 118.784 103.506C118.519 103.582 118.365 103.859 118.442 104.124L119.403 103.848ZM95.9374 113.155L95.6963 112.717C95.6839 112.724 95.6718 112.731 95.66 112.739L95.9374 113.155ZM94.127 115.715C94.127 115.991 94.3508 116.215 94.627 116.215C94.9031 116.215 95.127 115.991 95.127 115.715H94.127ZM123.528 91.2255C123.538 90.9496 123.322 90.7181 123.046 90.7086C122.77 90.699 122.538 90.915 122.529 91.191L123.528 91.2255ZM104.999 91.191C104.99 90.915 104.758 90.699 104.482 90.7086C104.206 90.7181 103.99 90.9496 104 91.2255L104.999 91.191ZM105.033 26.8333C105.033 41.371 116.675 53.1667 131.049 53.1667V52.1667C117.239 52.1667 106.033 40.8304 106.033 26.8333H105.033ZM131.049 53.1667C145.423 53.1667 157.065 41.371 157.065 26.8333H156.065C156.065 40.8304 144.859 52.1667 131.049 52.1667V53.1667ZM157.065 26.8333C157.065 12.2957 145.423 0.5 131.049 0.5V1.5C144.859 1.5 156.065 12.8363 156.065 26.8333H157.065ZM131.049 0.5C116.675 0.5 105.033 12.2957 105.033 26.8333H106.033C106.033 12.8363 117.239 1.5 131.049 1.5V0.5ZM139.141 25.3226C138.813 26.3993 138.005 28.0413 136.661 29.4061C135.325 30.7626 133.479 31.8301 131.049 31.8301V32.8301C133.804 32.8301 135.894 31.6103 137.373 30.1077C138.845 28.6135 139.729 26.8246 140.098 25.614L139.141 25.3226ZM139.62 25.9683C140.593 25.9683 141.333 25.4804 141.83 24.7976C142.318 24.1272 142.582 23.2612 142.652 22.4227C142.723 21.5859 142.607 20.718 142.273 20.0374C141.934 19.347 141.332 18.7927 140.456 18.7927V19.7927C140.834 19.7927 141.146 20.0105 141.376 20.478C141.61 20.9553 141.716 21.6313 141.656 22.3384C141.596 23.0437 141.376 23.7217 141.022 24.2092C140.676 24.6843 140.215 24.9683 139.62 24.9683V25.9683ZM122 25.614C122.42 26.9935 123.515 29.1366 125.395 30.7309L126.042 29.9682C124.336 28.5217 123.333 26.5571 122.957 25.3226L122 25.614ZM125.395 30.7309C126.816 31.935 128.69 32.8301 131.049 32.8301V31.8301C128.964 31.8301 127.312 31.0447 126.042 29.9682L125.395 30.7309ZM122.478 24.9683C121.884 24.9683 121.422 24.6843 121.076 24.2092C120.722 23.7217 120.502 23.0437 120.442 22.3384C120.382 21.6313 120.488 20.9553 120.723 20.478C120.952 20.0105 121.264 19.7927 121.642 19.7927V18.7927C120.766 18.7927 120.164 19.347 119.825 20.0374C119.491 20.718 119.375 21.5859 119.446 22.4227C119.517 23.2612 119.78 24.1272 120.268 24.7976C120.765 25.4804 121.506 25.9683 122.478 25.9683V24.9683ZM138.148 34.1651L149.229 40.2624L149.711 39.3863L138.63 33.289L138.148 34.1651ZM149.192 40.2404C149.492 40.4403 149.782 40.8516 149.998 41.3921C150.21 41.9226 150.324 42.5083 150.324 42.9792H151.324C151.324 42.3685 151.181 41.6571 150.926 41.0207C150.676 40.3944 150.288 39.769 149.747 39.4084L149.192 40.2404ZM136.379 30.3495C135.899 30.488 135.899 30.4881 135.899 30.4882C135.899 30.4882 135.899 30.4884 135.899 30.4885C135.899 30.4886 135.899 30.4889 135.899 30.4892C135.899 30.4897 135.9 30.4904 135.9 30.4913C135.9 30.493 135.901 30.4953 135.902 30.4982C135.904 30.504 135.906 30.5121 135.909 30.5225C135.915 30.5433 135.925 30.573 135.937 30.6106C135.96 30.6858 135.995 30.7928 136.042 30.9234C136.133 31.1839 136.27 31.5412 136.45 31.9278C136.796 32.6748 137.347 33.6326 138.112 34.143L138.667 33.311C138.149 32.9657 137.694 32.2348 137.357 31.507C137.194 31.1562 137.069 30.8296 136.985 30.5905C136.942 30.4713 136.911 30.3746 136.89 30.3085C136.879 30.2755 136.872 30.2502 136.867 30.2336C136.864 30.2253 136.862 30.2192 136.861 30.2154C136.861 30.2135 136.86 30.2122 136.86 30.2115C136.86 30.2111 136.86 30.2109 136.86 30.2108C136.86 30.2108 136.86 30.2108 136.86 30.2108C136.86 30.2109 136.86 30.2109 136.86 30.2109C136.86 30.211 136.86 30.2111 136.379 30.3495ZM123.468 33.289L112.387 39.3863L112.869 40.2624L123.95 34.1651L123.468 33.289ZM112.351 39.4084C111.81 39.769 111.422 40.3944 111.172 41.0207C110.917 41.6571 110.774 42.3685 110.774 42.9792H111.774C111.774 42.5083 111.888 41.9226 112.1 41.3921C112.316 40.8516 112.606 40.4403 112.906 40.2404L112.351 39.4084ZM125.719 30.3495C125.238 30.2111 125.238 30.211 125.238 30.2109C125.238 30.2109 125.238 30.2109 125.238 30.2108C125.238 30.2108 125.238 30.2108 125.238 30.2108C125.238 30.2109 125.238 30.2111 125.238 30.2115C125.238 30.2122 125.238 30.2135 125.237 30.2154C125.236 30.2192 125.234 30.2253 125.232 30.2336C125.227 30.2502 125.219 30.2755 125.208 30.3085C125.187 30.3746 125.156 30.4713 125.114 30.5905C125.029 30.8296 124.904 31.1562 124.741 31.507C124.404 32.2348 123.949 32.9657 123.431 33.311L123.986 34.143C124.752 33.6326 125.302 32.6748 125.649 31.9278C125.828 31.5412 125.965 31.1839 126.057 30.9234C126.103 30.7928 126.138 30.6858 126.162 30.6106C126.174 30.573 126.183 30.5433 126.189 30.5225C126.192 30.5121 126.194 30.504 126.196 30.4982C126.197 30.4953 126.198 30.493 126.198 30.4913C126.198 30.4904 126.199 30.4897 126.199 30.4892C126.199 30.4889 126.199 30.4887 126.199 30.4885C126.199 30.4884 126.199 30.4882 126.199 30.4882C126.199 30.4881 126.199 30.488 125.719 30.3495ZM140.456 19.2927C140.951 19.3638 140.951 19.3638 140.951 19.3637C140.951 19.3637 140.951 19.3637 140.951 19.3636C140.951 19.3635 140.951 19.3634 140.951 19.3633C140.951 19.3631 140.951 19.3629 140.951 19.3626C140.951 19.3619 140.951 19.3611 140.951 19.3601C140.952 19.358 140.952 19.3551 140.952 19.3514C140.954 19.344 140.955 19.3334 140.957 19.3197C140.96 19.2923 140.966 19.2523 140.972 19.2006C140.984 19.0972 141.001 18.9467 141.02 18.7553C141.057 18.3727 141.099 17.8257 141.122 17.1631L140.123 17.1286C140.1 17.7678 140.06 18.2943 140.024 18.6596C140.007 18.8422 139.991 18.9844 139.979 19.0801C139.973 19.128 139.969 19.1642 139.965 19.1881C139.964 19.2 139.963 19.2088 139.962 19.2144C139.962 19.2172 139.961 19.2193 139.961 19.2205C139.961 19.2211 139.961 19.2215 139.961 19.2217C139.961 19.2218 139.961 19.2218 139.961 19.2218C139.961 19.2218 139.961 19.2218 139.961 19.2218C139.961 19.2218 139.961 19.2217 139.961 19.2217C139.961 19.2217 139.961 19.2217 140.456 19.2927ZM121.642 19.2927C122.137 19.2217 122.137 19.2217 122.137 19.2217C122.137 19.2217 122.137 19.2218 122.137 19.2218C122.137 19.2218 122.137 19.2218 122.137 19.2218C122.137 19.2218 122.137 19.2218 122.137 19.2217C122.137 19.2215 122.137 19.2211 122.137 19.2205C122.137 19.2193 122.137 19.2173 122.136 19.2144C122.135 19.2088 122.134 19.2 122.133 19.1881C122.129 19.1642 122.125 19.128 122.119 19.0801C122.107 18.9844 122.091 18.8422 122.074 18.6596C122.039 18.2943 121.998 17.7679 121.976 17.1286L120.976 17.1631C120.999 17.8256 121.041 18.3727 121.078 18.7553C121.097 18.9467 121.114 19.0972 121.126 19.2006C121.133 19.2523 121.138 19.2922 121.141 19.3197C121.143 19.3334 121.145 19.344 121.146 19.3514C121.146 19.3551 121.147 19.358 121.147 19.3601C121.147 19.3611 121.147 19.3619 121.147 19.3626C121.147 19.3629 121.147 19.3631 121.147 19.3633C121.147 19.3634 121.147 19.3635 121.147 19.3636C121.147 19.3637 121.147 19.3637 121.147 19.3637C121.147 19.3638 121.147 19.3638 121.642 19.2927ZM138.072 33.3405C135.362 35.564 133.31 36.6265 131.254 36.6444C129.194 36.6624 127.003 35.6333 124.014 33.3309L123.404 34.1231C126.431 36.4552 128.851 37.6654 131.262 37.6444C133.677 37.6234 135.958 36.3687 138.706 34.1136L138.072 33.3405ZM72.1092 22.6667C72.1092 29.3803 77.4865 34.8333 84.1326 34.8333V33.8333C78.0504 33.8333 73.1092 28.8397 73.1092 22.6667H72.1092ZM84.1326 34.8333C90.7787 34.8333 96.1559 29.3803 96.1559 22.6667H95.1559C95.1559 28.8397 90.2148 33.8333 84.1326 33.8333V34.8333ZM96.1559 22.6667C96.1559 15.9531 90.7787 10.5 84.1326 10.5V11.5C90.2148 11.5 95.1559 16.4936 95.1559 22.6667H96.1559ZM84.1326 10.5C77.4865 10.5 72.1092 15.9531 72.1092 22.6667H73.1092C73.1092 16.4936 78.0504 11.5 84.1326 11.5V10.5ZM91.8635 61C91.8635 65.8727 95.7667 69.8333 100.594 69.8333V68.8333C96.3306 68.8333 92.8635 65.3321 92.8635 61H91.8635ZM100.594 69.8333C105.422 69.8333 109.325 65.8727 109.325 61H108.325C108.325 65.3321 104.858 68.8333 100.594 68.8333V69.8333ZM109.325 61C109.325 56.1273 105.422 52.1667 100.594 52.1667V53.1667C104.858 53.1667 108.325 56.6679 108.325 61H109.325ZM100.594 52.1667C95.7667 52.1667 91.8635 56.1273 91.8635 61H92.8635C92.8635 56.6679 96.3306 53.1667 100.594 53.1667V52.1667ZM141.249 132.667C141.249 137.539 145.152 141.5 149.98 141.5V140.5C145.716 140.5 142.249 136.999 142.249 132.667H141.249ZM149.98 141.5C154.808 141.5 158.711 137.539 158.711 132.667H157.711C157.711 136.999 154.244 140.5 149.98 140.5V141.5ZM158.711 132.667C158.711 127.794 154.808 123.833 149.98 123.833V124.833C154.244 124.833 157.711 128.335 157.711 132.667H158.711ZM149.98 123.833C145.152 123.833 141.249 127.794 141.249 132.667H142.249C142.249 128.335 145.716 124.833 149.98 124.833V123.833ZM80.3402 147.667C80.3402 154.38 85.7174 159.833 92.3635 159.833V158.833C86.2813 158.833 81.3402 153.84 81.3402 147.667H80.3402ZM92.3635 159.833C99.0097 159.833 104.387 154.38 104.387 147.667H103.387C103.387 153.84 98.4458 158.833 92.3635 158.833V159.833ZM104.387 147.667C104.387 140.953 99.0097 135.5 92.3635 135.5V136.5C98.4458 136.5 103.387 141.494 103.387 147.667H104.387ZM92.3635 135.5C85.7174 135.5 80.3402 140.953 80.3402 147.667H81.3402C81.3402 141.494 86.2813 136.5 92.3635 136.5V135.5ZM148.165 63.8102L140.659 66.5009L140.997 67.4422L148.503 64.7516L148.165 63.8102ZM139.18 65.0669L139.214 64.9511L138.255 64.6698L138.221 64.7856L139.18 65.0669ZM136.438 62.2945L128.932 64.9851L129.27 65.9265L136.776 63.2358L136.438 62.2945ZM139.214 64.9511C139.708 63.2669 138.105 61.6971 136.438 62.2945L136.776 63.2358C137.646 62.924 138.527 63.7424 138.255 64.6698L139.214 64.9511ZM140.659 66.5009C139.789 66.8127 138.908 65.9943 139.18 65.0669L138.221 64.7856C137.727 66.4698 139.33 68.0396 140.997 67.4422L140.659 66.5009ZM108.619 137.677L113.116 139.714L113.529 138.803L109.032 136.766L108.619 137.677ZM115.084 137.597L115.064 137.51L114.09 137.736L114.11 137.824L115.084 137.597ZM115.645 136.53L120.143 138.567L120.555 137.656L116.058 135.619L115.645 136.53ZM115.064 137.51C114.983 137.161 115.08 136.849 115.229 136.667C115.373 136.493 115.517 136.472 115.645 136.53L116.058 135.619C115.426 135.333 114.819 135.592 114.457 136.031C114.102 136.462 113.941 137.096 114.09 137.736L115.064 137.51ZM113.116 139.714C113.748 140 114.356 139.741 114.717 139.302C115.072 138.871 115.233 138.237 115.084 137.597L114.11 137.823C114.191 138.172 114.095 138.485 113.945 138.667C113.801 138.841 113.657 138.861 113.529 138.803L113.116 139.714ZM61.2042 26.7591L58.4688 30.9074L59.3036 31.4579L62.0391 27.3096L61.2042 26.7591ZM57.4664 30.3987L57.4376 30.3136L56.4906 30.6348L56.5194 30.7199L57.4664 30.3987ZM54.6534 29.5755L51.9179 33.7239L52.7528 34.2744L55.4882 30.126L54.6534 29.5755ZM57.4376 30.3136C57.2265 29.6913 56.7556 29.2393 56.225 29.0646C55.6834 28.8862 55.0343 28.9978 54.6534 29.5755L55.4882 30.126C55.5695 30.0028 55.7042 29.9459 55.9122 30.0144C56.1312 30.0865 56.3759 30.2966 56.4906 30.6348L57.4376 30.3136ZM58.4688 30.9074C58.3875 31.0307 58.2528 31.0876 58.0448 31.0191C57.8258 30.947 57.5811 30.7368 57.4664 30.3987L56.5194 30.7199C56.7305 31.3421 57.2014 31.7942 57.732 31.9689C58.2736 32.1473 58.9227 32.0357 59.3036 31.4579L58.4688 30.9074ZM68.0697 95.0084L72.9772 95.4471L73.0663 94.4511L68.1588 94.0124L68.0697 95.0084ZM73.0187 96.5953L72.9588 96.6618L73.7018 97.3311L73.7617 97.2646L73.0187 96.5953ZM73.6542 99.4753L78.5617 99.914L78.6508 98.918L73.7433 98.4792L73.6542 99.4753ZM72.9588 96.6618C72.5195 97.1494 72.3564 97.7826 72.4586 98.3318C72.5623 98.8893 72.965 99.4137 73.6542 99.4753L73.7433 98.4792C73.6033 98.4667 73.4839 98.3758 73.4417 98.149C73.398 97.9139 73.4652 97.5937 73.7018 97.3311L72.9588 96.6618ZM72.9772 95.4471C73.1172 95.4597 73.2366 95.5506 73.2788 95.7774C73.3225 96.0125 73.2553 96.3326 73.0187 96.5953L73.7617 97.2646C74.201 96.777 74.3641 96.1438 74.2619 95.5945C74.1583 95.0371 73.7555 94.5127 73.0663 94.4511L72.9772 95.4471ZM1.32317 57.6667C1.32317 72.6646 13.3336 84.8334 28.1622 84.8334V83.8334C13.8975 83.8334 2.32317 72.124 2.32317 57.6667H1.32317ZM28.1622 84.8334C42.9909 84.8334 55.0013 72.6646 55.0013 57.6667H54.0013C54.0013 72.124 42.427 83.8334 28.1622 83.8334V84.8334ZM55.0013 57.6667C55.0013 42.6688 42.9909 30.5001 28.1622 30.5001V31.5001C42.427 31.5001 54.0013 43.2094 54.0013 57.6667H55.0013ZM28.1622 30.5001C13.3336 30.5001 1.32317 42.6688 1.32317 57.6667H2.32317C2.32317 43.2094 13.8975 31.5001 28.1622 31.5001V30.5001ZM9.55413 125.167C9.55413 134.182 16.7739 141.5 25.693 141.5V140.5C17.3378 140.5 10.5541 133.641 10.5541 125.167H9.55413ZM25.693 141.5C34.612 141.5 41.8318 134.182 41.8318 125.167H40.8318C40.8318 133.641 34.0481 140.5 25.693 140.5V141.5ZM14.6483 113.257C11.5126 116.237 9.55413 120.471 9.55413 125.167H10.5541C10.5541 120.755 12.3933 116.779 15.3371 113.982L14.6483 113.257ZM41.8318 125.167C41.8318 124.879 41.8244 124.592 41.8098 124.308L40.8111 124.359C40.8248 124.626 40.8318 124.896 40.8318 125.167H41.8318ZM77.3799 108H45.4472V109H77.3799V108ZM78.6941 110.337V121H79.6941V110.337H78.6941ZM75.9017 123.833H42.1548V124.833H75.9017V123.833ZM42.1548 123.833C19.7076 123.833 1.5 105.408 1.5 82.6666H0.5C0.499999 105.949 19.1437 124.833 42.1548 124.833V123.833ZM78.6941 121C78.6941 122.571 77.4381 123.833 75.9017 123.833V124.833C78.002 124.833 79.6941 123.111 79.6941 121H78.6941ZM77.3799 109C78.0999 109 78.6941 109.593 78.6941 110.337H79.6941C79.6941 109.052 78.6638 108 77.3799 108V109ZM45.4472 108C30.9124 108 18.928 96.9042 17.3218 82.6108L16.328 82.7225C17.9893 97.5062 30.3878 109 45.4472 109V108ZM1 83.1666H16.8249V82.1666H1V83.1666ZM86.9249 99.3333C86.9249 114.331 98.9353 126.5 113.764 126.5V125.5C99.4992 125.5 87.9249 113.791 87.9249 99.3333H86.9249ZM113.764 126.5C128.593 126.5 140.603 114.331 140.603 99.3333H139.603C139.603 113.791 128.029 125.5 113.764 125.5V126.5ZM140.603 99.3333C140.603 84.3354 128.593 72.1666 113.764 72.1666V73.1666C128.029 73.1666 139.603 84.876 139.603 99.3333H140.603ZM113.764 72.1666C98.9353 72.1666 86.9249 84.3354 86.9249 99.3333H87.9249C87.9249 84.876 99.4992 73.1666 113.764 73.1666V72.1666ZM121.58 99.1166C121.263 100.156 120.482 101.743 119.183 103.062C117.893 104.372 116.11 105.403 113.764 105.403V106.403C116.435 106.403 118.462 105.22 119.896 103.763C121.322 102.315 122.179 100.582 122.536 99.408L121.58 99.1166ZM122.058 99.7623C123.006 99.7623 123.727 99.2868 124.21 98.6227C124.685 97.971 124.94 97.1299 125.009 96.3163C125.078 95.5043 124.965 94.6613 124.641 93.9994C124.311 93.3277 123.723 92.7859 122.867 92.7859V93.7859C123.225 93.7859 123.523 93.9912 123.743 94.44C123.968 94.8987 124.07 95.5498 124.013 96.2319C123.955 96.9124 123.743 97.5654 123.402 98.0343C123.07 98.4908 122.628 98.7623 122.058 98.7623V99.7623ZM104.992 99.408C105.399 100.745 106.46 102.822 108.282 104.367L108.929 103.605C107.281 102.207 106.311 100.309 105.948 99.1166L104.992 99.408ZM108.282 104.367C109.659 105.535 111.477 106.403 113.764 106.403V105.403C111.751 105.403 110.155 104.644 108.929 103.605L108.282 104.367ZM105.47 98.7623C104.9 98.7623 104.458 98.4908 104.126 98.0343C103.785 97.5654 103.573 96.9124 103.515 96.2319C103.457 95.5498 103.56 94.8987 103.785 94.44C104.005 93.9912 104.303 93.7859 104.661 93.7859V92.7859C103.804 92.7859 103.217 93.3277 102.887 93.9994C102.563 94.6613 102.45 95.5043 102.519 96.3163C102.588 97.1299 102.843 97.971 103.318 98.6227C103.801 99.2868 104.522 99.7623 105.47 99.7623V98.7623ZM120.626 107.693L131.349 113.593L131.832 112.717L121.108 106.817L120.626 107.693ZM131.313 113.571C131.976 114.013 132.401 114.822 132.401 115.715H133.401C133.401 114.515 132.832 113.382 131.868 112.739L131.313 113.571ZM118.922 103.986C118.442 104.124 118.442 104.125 118.442 104.125C118.442 104.125 118.442 104.125 118.442 104.125C118.442 104.125 118.442 104.125 118.442 104.126C118.442 104.126 118.443 104.127 118.443 104.128C118.443 104.129 118.444 104.132 118.445 104.134C118.447 104.14 118.449 104.148 118.452 104.158C118.458 104.178 118.467 104.207 118.478 104.244C118.501 104.316 118.536 104.42 118.58 104.547C118.669 104.799 118.802 105.145 118.976 105.52C119.311 106.243 119.845 107.174 120.59 107.671L121.145 106.839C120.648 106.507 120.209 105.803 119.883 105.099C119.726 104.76 119.605 104.445 119.523 104.214C119.482 104.099 119.452 104.005 119.432 103.942C119.422 103.91 119.414 103.885 119.409 103.869C119.407 103.861 119.405 103.855 119.404 103.852C119.404 103.85 119.403 103.849 119.403 103.848C119.403 103.848 119.403 103.847 119.403 103.847C119.403 103.847 119.403 103.847 119.403 103.847C119.403 103.847 119.403 103.847 119.403 103.847C119.403 103.848 119.403 103.848 118.922 103.986ZM106.419 106.817L95.6963 112.717L96.1784 113.593L106.902 107.693L106.419 106.817ZM95.66 112.739C94.6961 113.382 94.127 114.515 94.127 115.715H95.127C95.127 114.822 95.5516 114.013 96.2148 113.571L95.66 112.739ZM108.606 103.986C108.125 103.848 108.125 103.848 108.125 103.847C108.125 103.847 108.125 103.847 108.125 103.847C108.125 103.847 108.125 103.847 108.125 103.847C108.125 103.847 108.125 103.848 108.125 103.848C108.125 103.849 108.124 103.85 108.124 103.852C108.123 103.855 108.121 103.861 108.119 103.869C108.114 103.885 108.106 103.91 108.096 103.942C108.076 104.005 108.045 104.099 108.005 104.214C107.923 104.445 107.802 104.76 107.645 105.099C107.319 105.803 106.88 106.507 106.383 106.839L106.938 107.671C107.683 107.174 108.217 106.243 108.552 105.52C108.726 105.145 108.859 104.799 108.948 104.547C108.992 104.42 109.026 104.316 109.05 104.244C109.061 104.207 109.07 104.178 109.076 104.158C109.079 104.148 109.081 104.14 109.083 104.134C109.084 104.132 109.085 104.129 109.085 104.128C109.085 104.127 109.085 104.126 109.086 104.126C109.086 104.125 109.086 104.125 109.086 104.125C109.086 104.125 109.086 104.125 109.086 104.125C109.086 104.125 109.086 104.124 108.606 103.986ZM122.867 93.2859C123.362 93.357 123.362 93.3569 123.362 93.3569C123.362 93.3569 123.362 93.3568 123.362 93.3568C123.362 93.3567 123.362 93.3566 123.362 93.3565C123.362 93.3563 123.362 93.3561 123.362 93.3558C123.362 93.3551 123.363 93.3543 123.363 93.3533C123.363 93.3513 123.363 93.3485 123.364 93.3449C123.365 93.3377 123.366 93.3274 123.368 93.3141C123.372 93.2875 123.377 93.2488 123.383 93.1987C123.395 93.0985 123.411 92.9528 123.429 92.7674C123.465 92.3968 123.506 91.8671 123.528 91.2255L122.529 91.191C122.507 91.8093 122.468 92.3184 122.434 92.6717C122.417 92.8482 122.401 92.9857 122.39 93.0782C122.384 93.1245 122.38 93.1595 122.377 93.1825C122.375 93.194 122.374 93.2025 122.373 93.2079C122.373 93.2106 122.373 93.2126 122.373 93.2137C122.372 93.2143 122.372 93.2147 122.372 93.2149C122.372 93.215 122.372 93.215 122.372 93.215C122.372 93.215 122.372 93.215 122.372 93.215C122.372 93.2149 122.372 93.2149 122.372 93.2149C122.372 93.2149 122.372 93.2148 122.867 93.2859ZM104.661 93.2859C105.156 93.2148 105.156 93.2149 105.156 93.2149C105.156 93.2149 105.156 93.2149 105.156 93.215C105.156 93.215 105.156 93.215 105.156 93.215C105.156 93.215 105.156 93.215 105.156 93.2149C105.156 93.2147 105.155 93.2143 105.155 93.2137C105.155 93.2126 105.155 93.2106 105.155 93.2079C105.154 93.2025 105.153 93.194 105.151 93.1825C105.148 93.1595 105.144 93.1245 105.138 93.0782C105.127 92.9857 105.111 92.8482 105.094 92.6717C105.06 92.3184 105.021 91.8093 104.999 91.191L104 91.2255C104.022 91.8671 104.063 92.3968 104.099 92.7674C104.117 92.9528 104.133 93.0985 104.145 93.1987C104.151 93.2488 104.156 93.2875 104.16 93.3141C104.162 93.3274 104.163 93.3377 104.164 93.3449C104.165 93.3485 104.165 93.3513 104.165 93.3533C104.165 93.3543 104.165 93.3551 104.166 93.3558C104.166 93.3561 104.166 93.3563 104.166 93.3565C104.166 93.3566 104.166 93.3567 104.166 93.3568C104.166 93.3568 104.166 93.3569 104.166 93.3569C104.166 93.3569 104.166 93.357 104.661 93.2859ZM120.55 106.868C117.928 109.019 115.946 110.044 113.962 110.062C111.974 110.079 109.857 109.086 106.966 106.858L106.355 107.651C109.285 109.908 111.631 111.082 113.97 111.062C116.313 111.041 118.524 109.824 121.185 107.641L120.55 106.868Z" fill="#0F274D"/>
<path d="M45.8082 56.8333L77.741 56.8333C78.7429 56.8333 79.5552 56.011 79.5552 54.9966L79.5552 44.3333C79.5552 42.4924 78.0811 41 76.2628 41L42.5159 41C19.7867 41 1.36108 59.6548 1.36107 82.6667L16.9999 82.6667C16.9999 66.5584 29.8978 56.8333 45.8082 56.8333Z" fill="#A6B1E1" stroke="#A6B1E1" stroke-linecap="round" stroke-linejoin="round"/>
<path d="M133.139 19.5419C133.139 20.2553 133.71 20.8336 134.414 20.8336C135.119 20.8336 135.69 20.2553 135.69 19.5419C135.69 18.8285 135.119 18.2502 134.414 18.2502C133.71 18.2502 133.139 18.8285 133.139 19.5419Z" fill="#0F274D"/>
<path d="M125.484 19.5419C125.484 20.2553 126.055 20.8336 126.759 20.8336C127.464 20.8336 128.035 20.2553 128.035 19.5419C128.035 18.8285 127.464 18.2502 126.759 18.2502C126.055 18.2502 125.484 18.8285 125.484 19.5419Z" fill="#0F274D"/>
<path d="M116.595 94.3334C116.595 95.0238 117.147 95.5834 117.829 95.5834C118.511 95.5834 119.064 95.0238 119.064 94.3334C119.064 93.643 118.511 93.0834 117.829 93.0834C117.147 93.0834 116.595 93.643 116.595 94.3334Z" fill="#0F274D"/>
<path d="M109.187 94.3334C109.187 95.0238 109.739 95.5834 110.421 95.5834C111.103 95.5834 111.656 95.0238 111.656 94.3334C111.656 93.643 111.103 93.0834 110.421 93.0834C109.739 93.0834 109.187 93.643 109.187 94.3334Z" fill="#0F274D"/>
<path d="M38.4004 17.6667C38.4004 18.5871 39.1374 19.3333 40.0466 19.3333C40.9557 19.3333 41.6928 18.5871 41.6928 17.6667C41.6928 16.7462 40.9557 16 40.0466 16C39.1374 16 38.4004 16.7462 38.4004 17.6667Z" fill="#0F274D"/>
<path d="M61.4471 139.333C61.4471 140.254 62.1841 141 63.0933 141C64.0024 141 64.7395 140.254 64.7395 139.333C64.7395 138.413 64.0024 137.667 63.0933 137.667C62.1841 137.667 61.4471 138.413 61.4471 139.333Z" fill="#0F274D"/>
<path d="M119.769 18.3479L119.769 18.3479C120.887 18.2074 121.916 19.0113 122.057 20.1582L122.528 24.0037C122.669 25.1517 121.863 26.1879 120.744 26.3286L120.673 26.3374C119.555 26.478 118.526 25.674 118.386 24.5272L117.914 20.6817C117.773 19.5337 118.579 18.4975 119.698 18.3568C119.698 18.3568 119.698 18.3568 119.698 18.3568L119.769 18.3479ZM143.147 18.3479L143.209 17.8518L143.147 18.3479L143.217 18.3568C144.337 18.4975 145.142 19.5337 145.001 20.6817L144.53 24.5272C144.389 25.674 143.36 26.478 142.242 26.3374L142.171 26.3286C141.052 26.1879 140.247 25.1517 140.387 24.0037L140.859 20.1582C140.999 19.0113 142.028 18.2074 143.147 18.3479ZM135.16 34.2915C134.737 34.2915 134.384 33.9429 134.384 33.4998C134.384 33.0568 134.737 32.7082 135.16 32.7082C135.583 32.7082 135.936 33.0568 135.936 33.4998C135.936 33.9429 135.583 34.2915 135.16 34.2915Z" fill="#0F274D" stroke="#0F274D"/>
</svg>
