<svg width="158" height="161" viewBox="0 0 158 161" fill="none" xmlns="http://www.w3.org/2000/svg">
<path d="M75.5541 26.0018C75.5541 26.2779 75.7779 26.5018 76.0541 26.5018C76.3302 26.5018 76.5541 26.2779 76.5541 26.0018H75.5541ZM76.5541 17.6685C76.5541 17.3923 76.3302 17.1685 76.0541 17.1685C75.7779 17.1685 75.5541 17.3923 75.5541 17.6685H76.5541ZM82.9619 26.0018C82.9619 26.2779 83.1858 26.5018 83.4619 26.5018C83.7381 26.5018 83.9619 26.2779 83.9619 26.0018H82.9619ZM83.9619 17.6685C83.9619 17.3923 83.7381 17.1685 83.4619 17.1685C83.1858 17.1685 82.9619 17.3923 82.9619 17.6685H83.9619ZM90.3698 26.0018C90.3698 26.2779 90.5936 26.5018 90.8698 26.5018C91.1459 26.5018 91.3698 26.2779 91.3698 26.0018H90.3698ZM91.3698 17.6685C91.3698 17.3923 91.1459 17.1685 90.8698 17.1685C90.5936 17.1685 90.3698 17.3923 90.3698 17.6685H91.3698ZM97.7776 26.0018C97.7776 26.2779 98.0015 26.5018 98.2776 26.5018C98.5538 26.5018 98.7776 26.2779 98.7776 26.0018H97.7776ZM98.7776 17.6685C98.7776 17.3923 98.5538 17.1685 98.2776 17.1685C98.0015 17.1685 97.7776 17.3923 97.7776 17.6685H98.7776ZM105.186 26.0018C105.186 26.2779 105.409 26.5018 105.686 26.5018C105.962 26.5018 106.186 26.2779 106.186 26.0018H105.186ZM106.186 17.6685C106.186 17.3923 105.962 17.1685 105.686 17.1685C105.409 17.1685 105.186 17.3923 105.186 17.6685H106.186ZM112.593 26.0018C112.593 26.2779 112.817 26.5018 113.093 26.5018C113.37 26.5018 113.593 26.2779 113.593 26.0018H112.593ZM113.593 17.6685C113.593 17.3923 113.37 17.1685 113.093 17.1685C112.817 17.1685 112.593 17.3923 112.593 17.6685H113.593ZM120.001 26.0018C120.001 26.2779 120.225 26.5018 120.501 26.5018C120.777 26.5018 121.001 26.2779 121.001 26.0018H120.001ZM121.001 17.6685C121.001 17.3923 120.777 17.1685 120.501 17.1685C120.225 17.1685 120.001 17.3923 120.001 17.6685H121.001ZM76.0541 41.3351C75.7779 41.3351 75.5541 41.559 75.5541 41.8351C75.5541 42.1113 75.7779 42.3351 76.0541 42.3351V41.3351ZM121.324 42.3351C121.6 42.3351 121.824 42.1113 121.824 41.8351C121.824 41.559 121.6 41.3351 121.324 41.3351V42.3351ZM76.0541 46.3351C75.7779 46.3351 75.5541 46.559 75.5541 46.8351C75.5541 47.1113 75.7779 47.3351 76.0541 47.3351V46.3351ZM107.332 47.3351C107.608 47.3351 107.832 47.1113 107.832 46.8351C107.832 46.559 107.608 46.3351 107.332 46.3351V47.3351ZM76.0541 51.3351C75.7779 51.3351 75.5541 51.559 75.5541 51.8351C75.5541 52.1113 75.7779 52.3351 76.0541 52.3351V51.3351ZM115.563 52.3351C115.839 52.3351 116.063 52.1113 116.063 51.8351C116.063 51.559 115.839 51.3351 115.563 51.3351V52.3351ZM76.0541 56.3351C75.7779 56.3351 75.5541 56.559 75.5541 56.8351C75.5541 57.1113 75.7779 57.3351 76.0541 57.3351V56.3351ZM121.324 57.3351C121.6 57.3351 121.824 57.1113 121.824 56.8351C121.824 56.559 121.6 56.3351 121.324 56.3351V57.3351ZM76.0541 61.3351C75.7779 61.3351 75.5541 61.559 75.5541 61.8351C75.5541 62.1113 75.7779 62.3351 76.0541 62.3351V61.3351ZM107.332 62.3351C107.608 62.3351 107.832 62.1113 107.832 61.8351C107.832 61.559 107.608 61.3351 107.332 61.3351V62.3351ZM76.0541 66.3351C75.7779 66.3351 75.5541 66.559 75.5541 66.8351C75.5541 67.1113 75.7779 67.3351 76.0541 67.3351V66.3351ZM115.563 67.3351C115.839 67.3351 116.063 67.1113 116.063 66.8351C116.063 66.559 115.839 66.3351 115.563 66.3351V67.3351ZM21.7276 56.5584L22.0374 56.9507C22.0528 56.9386 22.0674 56.9256 22.0812 56.9118L21.7276 56.5584ZM52.9985 25.2647L53.3563 24.9154L52.9985 25.2647ZM53.8817 26.1692L53.5239 26.5185V26.5185L53.8817 26.1692ZM53.861 29.7666L53.5073 29.4132L53.861 29.7666ZM44.5727 38.3542C44.3776 38.5496 44.3777 38.8661 44.573 39.0613C44.7683 39.2565 45.0849 39.2564 45.2801 39.0611L44.5727 38.3542ZM51.2323 23.4555L50.8745 23.8048V23.8048L51.2323 23.4555ZM47.6791 23.4346L47.3255 23.0812L47.6791 23.4346ZM18.1951 52.9401L17.8414 52.5867C17.8276 52.6004 17.8146 52.615 17.8026 52.6303L18.1951 52.9401ZM11.4378 61.5028L11.8303 61.8125L11.4378 61.5028ZM13.192 63.2995L12.8821 62.9072L13.192 63.2995ZM65.6769 82.2415C65.6769 82.5176 65.9008 82.7415 66.1769 82.7415C66.4531 82.7415 66.6769 82.5176 66.6769 82.2415H65.6769ZM123.104 91.8351V91.3351C122.828 91.3351 122.604 91.559 122.604 91.8351H123.104ZM13.192 82.7415C13.4681 82.7415 13.692 82.5176 13.692 82.2415C13.692 81.9654 13.4681 81.7415 13.192 81.7415V82.7415ZM113.093 81.7415C112.817 81.7415 112.593 81.9654 112.593 82.2415C112.593 82.5176 112.817 82.7415 113.093 82.7415V81.7415ZM130.878 88.5018V25.1685H129.878V88.5018H130.878ZM127.086 21.3351H120.501V22.3351H127.086V21.3351ZM120.501 21.3351H113.093V22.3351H120.501V21.3351ZM113.093 21.3351H105.686V22.3351H113.093V21.3351ZM105.686 21.3351H98.2776V22.3351H105.686V21.3351ZM98.2776 21.3351H90.8698V22.3351H98.2776V21.3351ZM90.8698 21.3351H83.4619V22.3351H90.8698V21.3351ZM83.4619 21.3351H76.0541V22.3351H83.4619V21.3351ZM76.0541 21.3351H69.4693V22.3351H76.0541V21.3351ZM130.878 25.1685C130.878 23.0572 129.186 21.3351 127.086 21.3351V22.3351C128.622 22.3351 129.878 23.5978 129.878 25.1685H130.878ZM127.086 92.3351C129.186 92.3351 130.878 90.613 130.878 88.5018H129.878C129.878 90.0724 128.622 91.3351 127.086 91.3351V92.3351ZM66.6769 25.1685C66.6769 23.5978 67.9329 22.3351 69.4693 22.3351V21.3351C67.369 21.3351 65.6769 23.0572 65.6769 25.1685H66.6769ZM76.5541 26.0018V21.8351H75.5541V26.0018H76.5541ZM76.5541 21.8351V17.6685H75.5541V21.8351H76.5541ZM83.9619 26.0018V21.8351H82.9619V26.0018H83.9619ZM83.9619 21.8351V17.6685H82.9619V21.8351H83.9619ZM91.3698 26.0018V21.8351H90.3698V26.0018H91.3698ZM91.3698 21.8351V17.6685H90.3698V21.8351H91.3698ZM98.7776 26.0018V21.8351H97.7776V26.0018H98.7776ZM98.7776 21.8351V17.6685H97.7776V21.8351H98.7776ZM106.186 26.0018V21.8351H105.186V26.0018H106.186ZM106.186 21.8351V17.6685H105.186V21.8351H106.186ZM113.593 26.0018V21.8351H112.593V26.0018H113.593ZM113.593 21.8351V17.6685H112.593V21.8351H113.593ZM121.001 26.0018V21.8351H120.001V26.0018H121.001ZM121.001 21.8351V17.6685H120.001V21.8351H121.001ZM76.0541 42.3351H121.324V41.3351H76.0541V42.3351ZM76.0541 47.3351H107.332V46.3351H76.0541V47.3351ZM76.0541 52.3351H115.563V51.3351H76.0541V52.3351ZM76.0541 57.3351H121.324V56.3351H76.0541V57.3351ZM76.0541 62.3351H107.332V61.3351H76.0541V62.3351ZM76.0541 67.3351H115.563V66.3351H76.0541V67.3351ZM5.15075 81.7415C2.66054 81.7415 0.652344 83.7836 0.652344 86.2896H1.65234C1.65234 84.3242 3.22444 82.7415 5.15075 82.7415V81.7415ZM0.652344 86.2896V153.084H1.65234V86.2896H0.652344ZM0.652344 153.084C0.652344 155.59 2.66054 157.632 5.15075 157.632V156.632C3.22444 156.632 1.65234 155.049 1.65234 153.084H0.652344ZM5.15075 157.632H54.631V156.632H5.15075V157.632ZM54.631 157.632C55.1772 157.632 55.6304 158.082 55.6304 158.65H56.6304C56.6304 157.541 55.7411 156.632 54.631 156.632V157.632ZM55.6304 158.65C55.6304 159.759 56.5198 160.668 57.6299 160.668V159.668C57.0837 159.668 56.6304 159.218 56.6304 158.65H55.6304ZM57.6299 160.668H66.6263V159.668H57.6299V160.668ZM66.6263 160.668C67.7363 160.668 68.6257 159.759 68.6257 158.65H67.6257C67.6257 159.218 67.1724 159.668 66.6263 159.668V160.668ZM68.6257 158.65C68.6257 158.082 69.0789 157.632 69.6251 157.632V156.632C68.515 156.632 67.6257 157.541 67.6257 158.65H68.6257ZM69.6251 157.632H119.105V156.632H69.6251V157.632ZM119.105 157.632C121.596 157.632 123.604 155.59 123.604 153.084H122.604C122.604 155.049 121.032 156.632 119.105 156.632V157.632ZM22.0812 56.9118L53.3522 25.6181L52.6449 24.9112L21.3739 56.2049L22.0812 56.9118ZM52.6408 25.614L53.5239 26.5185L54.2394 25.82L53.3563 24.9154L52.6408 25.614ZM53.5073 29.4132L44.5727 38.3542L45.2801 39.0611L54.2147 30.12L53.5073 29.4132ZM53.3563 24.9154L51.5901 23.1062L50.8745 23.8048L52.6408 25.614L53.3563 24.9154ZM47.3255 23.0812L17.8414 52.5867L18.5487 53.2935L48.0328 23.788L47.3255 23.0812ZM17.8026 52.6303L11.0453 61.1931L11.8303 61.8125L18.5876 53.2498L17.8026 52.6303ZM21.4177 56.166L12.8821 62.9072L13.5019 63.6919L22.0374 56.9507L21.4177 56.166ZM17.8373 53.2894L21.3698 56.9076L22.0853 56.2091L18.5528 52.5908L17.8373 53.2894ZM11.0453 61.1931C10.4006 62.0101 10.6135 62.972 11.1681 63.5401C11.7241 64.1096 12.6811 64.3401 13.5019 63.6919L12.8821 62.9072C12.5284 63.1865 12.1435 63.1078 11.8836 62.8415C11.6223 62.5739 11.5454 62.1737 11.8303 61.8125L11.0453 61.1931ZM51.5901 23.1062C50.4201 21.9078 48.5093 21.8965 47.3255 23.0812L48.0328 23.788C48.8228 22.9975 50.0936 23.0049 50.8745 23.8048L51.5901 23.1062ZM53.5239 26.5185C54.3082 27.3219 54.3007 28.6192 53.5073 29.4132L54.2147 30.12C55.3951 28.9387 55.4061 27.0149 54.2394 25.82L53.5239 26.5185ZM65.6769 25.1685V82.2415H66.6769V25.1685H65.6769ZM123.604 153.084V91.8351H122.604V153.084H123.604ZM123.104 92.3351H127.086V91.3351H123.104V92.3351ZM119.105 82.7415C121.032 82.7415 122.604 84.3242 122.604 86.2896H123.604C123.604 83.7836 121.596 81.7415 119.105 81.7415V82.7415ZM122.604 86.2896V153.084H123.604V86.2896H122.604ZM5.15075 82.7415H13.192V81.7415H5.15075V82.7415ZM119.105 81.7415H113.093V82.7415H119.105V81.7415Z" fill="#0F274D"/>
<path d="M9.83106 66.1819C8.45924 68.1263 7.03254 71.8485 12.3004 71.1819C18.8851 70.3485 45.2242 47.8484 55.9244 56.1817C66.6247 64.5151 55.1013 73.6814 55.1013 73.6814" stroke="#A6B1E1" stroke-linecap="round" stroke-linejoin="round"/>
<path d="M6 79.8229C6 78.3707 6.93153 77.0814 8.30373 76.6584C28.3703 70.4737 40.4719 70.5201 61.1624 77.3843V152.275C41.0679 144.667 29.0831 143.748 10.5558 150.513C8.36285 151.314 6 149.704 6 147.344V79.8229Z" fill="#A6B1E1"/>
<path d="M62.7973 77.3843C83.1766 70.1552 95.2601 70.1362 115.681 76.6441C117.038 77.0768 117.955 78.3587 117.955 79.7997V147.76C117.955 150.003 115.808 151.603 113.674 150.999C94.7679 145.652 82.804 146.339 62.7973 152.275V77.3843Z" fill="#A6B1E1"/>
<path d="M141.21 71.8587C132.273 71.8587 125.029 64.5416 125.029 55.5155C125.029 49.1188 128.668 43.5803 133.968 40.8964C134.985 40.3817 135.565 39.3742 135.565 38.2235V35L146.854 35V38.2235C146.854 39.3742 147.435 40.3817 148.451 40.8964C153.752 43.5803 157.39 49.1188 157.39 55.5155C157.39 64.5416 150.146 71.8587 141.21 71.8587Z" fill="#A6B1E1"/>
<path d="M135.699 35.4533H135.199C135.199 35.7295 135.423 35.9533 135.699 35.9533V35.4533ZM135.699 29.4468H136.199H135.699ZM137.267 27.8585V27.3585V27.8585ZM137.574 27.8585V28.3585V27.8585ZM138.803 26.8351L138.312 26.7396V26.7396L138.803 26.8351ZM138.866 26.5145L139.356 26.61V26.61L138.866 26.5145ZM146.987 35.4533V35.9533C147.264 35.9533 147.487 35.7295 147.487 35.4533H146.987ZM146.987 29.4468H147.487H146.987ZM145.419 27.8585V28.3585V27.8585ZM144.92 27.8585V27.3585V27.8585ZM143.69 26.8351L143.2 26.9306V26.9306L143.69 26.8351ZM143.628 26.5145L144.119 26.4191L144.119 26.419L143.628 26.5145ZM134.026 55.2313L133.542 55.1036L134.026 55.2313ZM148.493 55.2224L148.976 55.0947L148.493 55.2224ZM134.271 56.5884L134.679 56.2986L134.271 56.5884ZM134.939 57.5265L134.531 57.8163V57.8163L134.939 57.5265ZM136.409 57.4349L136.848 57.6728V57.6728L136.409 57.4349ZM136.5 57.2667L136.06 57.0288V57.0288L136.5 57.2667ZM144.613 57.3061L144.164 57.0846L144.164 57.0847L144.613 57.3061ZM144.628 57.2738L145.077 57.4953L145.077 57.4952L144.628 57.2738ZM145.997 57.252L146.438 57.0167L146.438 57.0167L145.997 57.252ZM146.09 57.4275L145.649 57.6628L145.649 57.6628L146.09 57.4275ZM147.565 57.5288L147.159 57.2363L147.565 57.5288ZM148.24 56.5929L148.645 56.8854L148.24 56.5929ZM141.922 57.3124L141.475 57.0884L141.922 57.3124ZM143.267 57.31L143.714 57.0861L143.267 57.31ZM137.869 57.3016L138.316 57.0776L137.869 57.3016ZM141.628 1C141.628 0.723858 141.405 0.5 141.128 0.5C140.852 0.5 140.628 0.723858 140.628 1H141.628ZM72.6334 97.9634C72.3665 98.0342 72.2075 98.3079 72.2783 98.5749C72.3491 98.8418 72.6229 99.0007 72.8898 98.9299L72.6334 97.9634ZM107.605 98.9313C107.872 98.9992 108.145 98.8373 108.212 98.5696C108.28 98.302 108.118 98.0299 107.851 97.962L107.605 98.9313ZM49.983 98.9299C50.2499 99.0007 50.5237 98.8418 50.5945 98.5749C50.6653 98.3079 50.5063 98.0342 50.2394 97.9634L49.983 98.9299ZM15.022 97.962C14.7544 98.0299 14.5925 98.302 14.6604 98.5696C14.7283 98.8373 15.0003 98.9992 15.268 98.9313L15.022 97.962ZM137.267 28.3585H137.574V27.3585H137.267V28.3585ZM139.294 26.9306L139.356 26.61L138.375 26.419L138.312 26.7396L139.294 26.9306ZM145.419 27.3585H144.92V28.3585H145.419V27.3585ZM144.181 26.7396L144.119 26.4191L143.137 26.61L143.2 26.9306L144.181 26.7396ZM146.987 34.9533H143.269V35.9533H146.987V34.9533ZM143.269 34.9533H139.251V35.9533H143.269V34.9533ZM139.251 34.9533H135.699V35.9533H139.251V34.9533ZM138.768 35.3256L133.542 55.1036L134.509 55.359L139.735 35.5811L138.768 35.3256ZM142.786 35.5811L148.009 55.3501L148.976 55.0947L143.753 35.3256L142.786 35.5811ZM133.864 56.8782L134.531 57.8163L135.346 57.2367L134.679 56.2986L133.864 56.8782ZM136.848 57.6728L136.939 57.5046L136.06 57.0288L135.969 57.197L136.848 57.6728ZM145.061 57.5276L145.077 57.4953L144.18 57.0524L144.164 57.0846L145.061 57.5276ZM145.556 57.4873L145.649 57.6628L146.532 57.1922L146.438 57.0167L145.556 57.4873ZM147.97 57.8213L148.645 56.8854L147.834 56.3004L147.159 57.2363L147.97 57.8213ZM142.369 57.5363C142.465 57.3445 142.727 57.3481 142.82 57.5339L143.714 57.0861C143.249 56.1581 141.937 56.1664 141.475 57.0884L142.369 57.5363ZM139.671 57.5387C139.767 57.3479 140.03 57.3479 140.126 57.5387L141.02 57.0908C140.555 56.1638 139.242 56.1638 138.777 57.0908L139.671 57.5387ZM137.422 57.5255C137.878 58.4361 139.199 58.482 139.671 57.5387L138.777 57.0908C138.69 57.2653 138.42 57.2848 138.316 57.0776L137.422 57.5255ZM136.939 57.5046C137.036 57.3254 137.315 57.3116 137.422 57.5255L138.316 57.0776C137.863 56.1721 136.558 56.1072 136.06 57.0288L136.939 57.5046ZM148.009 55.3501C148.096 55.6781 148.031 56.0276 147.834 56.3004L148.645 56.8854C149.018 56.3689 149.139 55.7108 148.976 55.0947L148.009 55.3501ZM133.542 55.1036C133.381 55.7134 133.499 56.3646 133.864 56.8782L134.679 56.2986C134.486 56.0279 134.424 55.6828 134.509 55.359L133.542 55.1036ZM144.119 26.419C143.985 25.7332 143.596 25.0495 143.083 24.5357C142.573 24.0248 141.884 23.6272 141.128 23.6272V24.6272C141.532 24.6272 141.981 24.8473 142.375 25.2421C142.766 25.634 143.047 26.144 143.137 26.61L144.119 26.419ZM144.92 27.3585C144.565 27.3585 144.252 27.1035 144.181 26.7396L143.2 26.9306C143.36 27.756 144.078 28.3585 144.92 28.3585V27.3585ZM134.531 57.8163C135.121 58.6451 136.365 58.5657 136.848 57.6728L135.969 57.197C135.837 57.4411 135.505 57.46 135.346 57.2367L134.531 57.8163ZM147.487 29.4468C147.487 28.2993 146.567 27.3585 145.419 27.3585V28.3585C146.003 28.3585 146.487 28.8399 146.487 29.4468H147.487ZM145.649 57.6628C146.128 58.5601 147.374 58.6478 147.97 57.8213L147.159 57.2363C146.998 57.4602 146.663 57.4392 146.532 57.1922L145.649 57.6628ZM139.356 26.61C139.453 26.1135 139.693 25.5983 140.024 25.2165C140.355 24.8346 140.738 24.6272 141.128 24.6272V23.6272C140.36 23.6272 139.723 24.0375 139.268 24.5613C138.814 25.0852 138.502 25.7638 138.375 26.419L139.356 26.61ZM145.077 57.4952C145.176 57.2944 145.451 57.2907 145.556 57.4873L146.438 57.0167C145.95 56.1009 144.639 56.1224 144.18 57.0524L145.077 57.4952ZM137.574 28.3585C138.416 28.3585 139.133 27.756 139.294 26.9306L138.312 26.7396C138.242 27.1035 137.929 27.3585 137.574 27.3585V28.3585ZM142.82 57.5339C143.285 58.462 144.601 58.458 145.061 57.5275L144.164 57.0847C144.07 57.2748 143.809 57.2754 143.714 57.0861L142.82 57.5339ZM136.199 29.4468C136.199 28.8399 136.683 28.3585 137.267 28.3585V27.3585C136.119 27.3585 135.199 28.2993 135.199 29.4468H136.199ZM140.126 57.5387C140.591 58.4686 141.906 58.4603 142.369 57.5363L141.475 57.0884C141.378 57.2822 141.114 57.2787 141.02 57.0908L140.126 57.5387ZM136.199 35.4533V29.4468H135.199V35.4533H136.199ZM147.487 35.4533V29.4468H146.487V35.4533H147.487ZM72.8898 98.9299C85.2321 95.6559 94.9839 95.7286 107.605 98.9313L107.851 97.962C95.0744 94.7199 85.1495 94.6433 72.6334 97.9634L72.8898 98.9299ZM50.2394 97.9634C37.7234 94.6433 27.7984 94.7199 15.022 97.962L15.268 98.9313C27.8889 95.7286 37.6407 95.6559 49.983 98.9299L50.2394 97.9634ZM141.628 24.1272V1H140.628V24.1272H141.628Z" fill="#0F274D"/>
<path d="M72.7616 106.78C85.1908 103.483 95.0292 103.558 107.728 106.78M50.1112 106.78C37.682 103.483 27.8437 103.558 15.145 106.78M72.7616 111.78C85.1908 108.483 95.0292 108.558 107.728 111.78M50.1112 111.78C37.682 108.483 27.8437 108.558 15.145 111.78M72.7616 116.78C85.1908 113.483 95.0292 113.558 107.728 116.78M50.1112 116.78C37.682 113.483 27.8437 113.558 15.145 116.78M72.7616 121.78C85.1908 118.483 95.0292 118.558 107.728 121.78M50.1112 121.78C37.682 118.483 27.8437 118.558 15.145 121.78" stroke="white" stroke-linecap="round" stroke-linejoin="round"/>
</svg>
