<svg width="21" height="21" viewBox="0 0 21 21" fill="none" xmlns="http://www.w3.org/2000/svg">
<path d="M12.5001 2.61019L11.5442 2.90382L12.5001 2.61019L13.8903 7.13588H18.4293C19.9427 7.13588 20.5639 9.05062 19.3844 9.9571L15.6407 12.8343L17.062 17.4616C17.5052 18.9045 15.8377 20.1186 14.6068 19.1726L11 16.4007L7.39319 19.1726C6.16233 20.1186 4.49475 18.9045 4.93797 17.4616L6.35935 12.8343L2.61556 9.9571M12.5001 2.61019L2.61556 9.9571M12.5001 2.61019C12.0454 1.12995 9.9546 1.12993 9.4999 2.61019L8.10974 7.13588H3.57068C2.05729 7.13588 1.43607 9.05063 2.61556 9.9571M12.5001 2.61019L2.61556 9.9571" stroke="#232323" stroke-width="2" stroke-linecap="round" stroke-linejoin="round"/>
</svg>
