<svg width="22" height="20" viewBox="0 0 22 20" fill="none" xmlns="http://www.w3.org/2000/svg">
<path d="M20.3068 0.00171696C20.0085 0.0147275 19.7304 0.10107 19.4869 0.19924C19.2578 0.290313 18.383 0.661703 17.0045 1.24717C15.6261 1.83265 13.8001 2.60973 11.8535 3.44003C7.95804 5.10064 3.57802 6.96824 1.33549 7.9251C1.25075 7.96058 0.957161 8.05402 0.644472 8.2953C0.331784 8.53777 0 9.03808 0 9.59635C0 10.0458 0.216018 10.4929 0.488128 10.7602C0.761432 11.0275 1.04906 11.1588 1.29611 11.2581C2.19121 11.6213 4.9696 12.7473 5.49353 12.9601C5.67852 13.5208 6.68461 16.5688 6.91734 17.3151C7.07129 17.8083 7.2169 18.117 7.40785 18.3619C7.50333 18.4849 7.61432 18.5925 7.74799 18.6765C7.8017 18.7096 7.86018 18.7356 7.91985 18.7593L7.92343 18.7616C7.93656 18.7676 7.94849 18.7758 7.96281 18.7806C7.98907 18.79 8.00697 18.7912 8.04158 18.7983C8.18122 18.8433 8.32205 18.8716 8.44736 18.8716C8.98442 18.8716 9.31262 18.5783 9.31262 18.5783L9.33172 18.5641L12.091 16.1998L15.4363 19.3365C15.484 19.4027 15.9232 20 16.8923 20C17.4676 20 17.9235 19.7138 18.2171 19.4086C18.5107 19.1046 18.6921 18.7841 18.7709 18.382V18.3796C18.8425 17.9999 21.9264 2.31167 21.9264 2.31167L21.9216 2.33296C22.0111 1.9249 22.035 1.54405 21.9347 1.16911C21.8357 0.794173 21.5731 0.434611 21.2473 0.240637C20.9227 0.0478452 20.604 -0.0112936 20.3057 0.00171696H20.3068ZM20.135 1.90006C20.1302 1.92608 20.1374 1.91307 20.1314 1.94501L20.129 1.95565L20.1278 1.9663C20.1278 1.9663 17.0821 17.4535 16.9699 18.0437C16.9771 17.9988 16.9401 18.0875 16.9019 18.1407C16.847 18.1028 16.7348 18.0555 16.7348 18.0555L16.7169 18.0366L12.1471 13.7514L8.9152 16.5191L9.87714 12.7047C9.87714 12.7047 15.8862 6.54007 16.2479 6.18169C16.5391 5.89428 16.6011 5.79374 16.6011 5.69557C16.6011 5.56192 16.5307 5.46612 16.3756 5.46612C16.2347 5.46612 16.0462 5.60095 15.9459 5.66482C14.6319 6.49513 8.86508 9.82581 6.28003 11.3161C5.86947 11.1493 3.0147 9.9914 2.04799 9.5999C2.05515 9.59635 2.05276 9.59753 2.06112 9.59517C4.30364 8.63831 8.68128 6.76953 12.5768 5.1101C14.5233 4.2798 16.3505 3.50272 17.729 2.91725C19.0847 2.34005 20.0276 1.94383 20.135 1.90006Z" fill="white"/>
</svg>
