<svg width="204" height="203" viewBox="0 0 204 203" fill="none" xmlns="http://www.w3.org/2000/svg">
<path d="M159.556 201.133C154.772 192.832 145.792 198.025 140.998 189.721C136.203 181.417 145.19 176.236 140.411 167.916C135.632 159.595 126.637 164.805 121.843 156.501C117.049 148.197 126.036 143.017 121.239 134.723C116.442 126.429 107.467 131.602 102.68 123.311C97.893 115.019 106.885 109.86 102.068 101.561C97.2523 93.2619 88.2969 98.4405 83.5123 90.1393C78.7278 81.8382 87.6929 76.6621 82.9084 68.361C78.1239 60.0598 69.1343 65.2499 64.3401 56.9462C59.5459 48.6424 68.5329 43.4619 63.7388 35.1581C58.9446 26.8543 49.9646 32.0471 45.1704 23.7433C40.3762 15.4396 49.3633 10.2591 44.5691 1.95529" stroke="#FFE2DD" stroke-width="3" stroke-miterlimit="10" stroke-linecap="round"/>
</svg>
