<svg width="167" height="167" viewBox="0 0 167 167" fill="none" xmlns="http://www.w3.org/2000/svg">
<path d="M2 164.63C8.77 157.85 16.1 165.19 22.88 158.41C29.66 151.63 22.32 144.3 29.09 137.5C35.86 130.7 43.2 138.06 49.98 131.28C56.76 124.5 49.42 117.17 56.2 110.4C62.98 103.63 70.31 110.95 77.08 104.18C83.85 97.41 76.5 90.1 83.3 83.33C90.1 76.56 97.41 83.88 104.18 77.1C110.95 70.32 103.63 63 110.4 56.22C117.17 49.44 124.51 56.78 131.29 50C138.07 43.22 130.73 35.89 137.51 29.11C144.29 22.33 151.62 29.67 158.4 22.89C165.18 16.11 157.84 8.78 164.62 2" stroke="#A6B1E1" stroke-width="3" stroke-miterlimit="10" stroke-linecap="round"/>
</svg>
