<svg width="23" height="13" viewBox="0 0 23 13" fill="none" xmlns="http://www.w3.org/2000/svg">
<path fill-rule="evenodd" clip-rule="evenodd" d="M17.1989 0.811888C16.8286 0.44161 16.2283 0.44161 15.858 0.811888L8.50547 8.16442L6.01133 5.67029C5.64105 5.30001 5.04072 5.30001 4.67044 5.67029C4.30016 6.04057 4.30016 6.6409 4.67044 7.01118L7.16458 9.50532L7.14226 9.52763L2.44917 4.83454C2.07889 4.46426 1.47855 4.46426 1.10827 4.83454C0.737997 5.20481 0.737997 5.80515 1.10827 6.17543L5.80137 10.8685L5.80131 10.8686L6.4351 11.5024C6.82562 11.8929 7.45878 11.8929 7.84931 11.5024L17.1989 2.15278C17.5692 1.7825 17.5692 1.18216 17.1989 0.811888ZM20.5507 1.48217C20.921 1.1119 21.5214 1.1119 21.8916 1.48217C22.2619 1.85245 22.2619 2.45279 21.8916 2.82307L12.542 12.1727C12.1515 12.5632 11.5184 12.5632 11.1278 12.1727L10.494 11.5389L20.5507 1.48217Z" fill="#0F274D"/>
</svg>
