<svg width="9" height="13" viewBox="0 0 9 13" fill="none" xmlns="http://www.w3.org/2000/svg">
<path fill-rule="evenodd" clip-rule="evenodd" d="M4.92971 11.7748C4.92971 12.1753 4.60504 12.5 4.20454 12.5C3.80404 12.5 3.47937 12.1753 3.47937 11.7748L3.47937 2.82942L1.23789 5.07091C0.954689 5.3541 0.495537 5.35411 0.212342 5.07091C-0.0708545 4.78771 -0.0708544 4.32856 0.212342 4.04537L3.54536 0.712353C3.74072 0.516987 4.01983 0.456397 4.26713 0.530582C4.42868 0.546199 4.58599 0.61587 4.70972 0.739595L8.04273 4.07261C8.32593 4.35581 8.32593 4.81496 8.04273 5.09815C7.75954 5.38135 7.30038 5.38135 7.01719 5.09815L4.92971 3.01067L4.92971 11.7748Z" fill="#B9B9B9"/>
</svg>
